<?xml version="1.0" standalone="no"?>
<!DOCTYPE svg PUBLIC "-//W3C//DTD SVG 1.1//EN" "http://www.w3.org/Graphics/SVG/1.1/DTD/svg11.dtd" >
<svg xmlns="http://www.w3.org/2000/svg" xmlns:xlink="http://www.w3.org/1999/xlink" version="1.1">
<metadata>
Created by FontForge 20170731 at Fri Oct  3 09:09:34 2014
 By Aleksey,,,
(c) 2009, 2010, 2011, 2012 GrandChaos9000. Some Rights Reserved.
</metadata>
<defs>
<font id="DimboRegular" horiz-adv-x="835" >
  <font-face 
    font-family="Dimbo"
    font-weight="400"
    font-stretch="normal"
    units-per-em="2048"
    panose-1="2 11 6 3 1 1 1 1 1 1"
    ascent="1638"
    descent="-410"
    x-height="1077"
    cap-height="1508"
    bbox="-204 -418 2412 2009"
    underline-thickness="150"
    underline-position="-442"
    unicode-range="U+0020-E037"
  />
<missing-glyph horiz-adv-x="780" 
d="M740 1500v-1500h-700v1500h700zM240 1300v-1100h300v1100h-300z" />
    <glyph glyph-name=".notdef" horiz-adv-x="780" 
d="M740 1500v-1500h-700v1500h700zM240 1300v-1100h300v1100h-300z" />
    <glyph glyph-name=".null" horiz-adv-x="0" 
 />
    <glyph glyph-name="nonmarkingreturn" horiz-adv-x="682" 
 />
    <glyph glyph-name="space" unicode=" " horiz-adv-x="373" 
 />
    <glyph glyph-name="exclam" unicode="!" horiz-adv-x="335" 
d="M173 45q-60 0 -103 43t-43 103q0 61 43 104t103 43q61 0 104 -43t43 -104q0 -60 -43 -103t-104 -43zM296 1453q-14 -509 -19 -1006l-222 -5q-10 426 -23 1011h264z" />
    <glyph glyph-name="quotedbl" unicode="&#x22;" horiz-adv-x="713" 
d="M40 1221q111 32 129 123q-77 26 -101 62t-24 81t19 79.5t54.5 52.5t70.5 19h2q33 0 64 -12q31 -13 50.5 -39t27.5 -55.5t9 -70.5v-4q0 -40 -11 -88q-11 -51 -38 -97t-78.5 -87.5t-153.5 -49.5zM380 1171q111 32 129 123q-77 26 -101 62t-24 81t19 79.5t54.5 52.5t70.5 19
h2q33 0 64 -12q31 -13 50.5 -39t27.5 -55.5t9 -70.5v-4q0 -40 -11 -88q-11 -51 -38 -97t-78.5 -87.5t-153.5 -49.5z" />
    <glyph glyph-name="numbersign" unicode="#" horiz-adv-x="1309" 
d="M444 1476h209l-55 -304h263l55 304h209l-55 -304h199l-38 -209h-199l-74 -420h199l-38 -209h-199l-54 -304h-210l55 304h-262l-55 -304h-209l54 304h-199l38 209h199l75 420h-199l38 209h199zM561 963l-75 -420h262l76 420h-263z" />
    <glyph glyph-name="dollar" unicode="$" horiz-adv-x="909" 
d="M349 594q-6 -62 -6 -112q0 -227 113 -227h4q137 4 137 146v9q-5 151 -259 296q-247 140 -247 463v18q7 295 291 337v176h150v-173q281 -33 281 -423q0 -35 -2 -72l-261 -15q4 45 4 83q0 179 -87 179q-105 0 -115 -107q-1 -15 -1 -30q0 -89 53 -166q61 -89 209.5 -163
t207.5 -203q42 -93 42 -198q0 -40 -6 -82q-23 -151 -128 -251q-79 -74 -197 -98v-181h-150v172q-134 13 -228 116q-104 113 -104 411q0 36 2 75z" />
    <glyph glyph-name="percent" unicode="%" horiz-adv-x="1700" 
d="M1170 1560l-440 -1540l-170 30l440 1540zM412 1560q340 0 340 -398q0 -16 -1 -32q-14 -431 -362 -435q-4 -1 -8 -1q-331 0 -331 407v24q10 435 362 435zM379 1329q-63 -17 -86 -121q-14 -62 -14 -124q0 -43 6 -86q16 -106 103 -110h8q80 0 110 79q25 66 25 156
q0 22 -1 45q-8 119 -48 149q-25 18 -60 18q-20 0 -43 -6zM1322 906q340 0 340 -398q0 -16 -1 -32q-14 -431 -362 -435q-4 -1 -8 -1q-331 0 -331 407v24q10 435 362 435zM1289 675q-63 -17 -86 -121q-14 -62 -14 -124q0 -43 6 -86q16 -106 103 -110h8q80 0 110 79
q25 66 25 156q0 22 -1 45q-8 119 -48 149q-25 18 -60 18q-20 0 -43 -6z" />
    <glyph glyph-name="ampersand" unicode="&#x26;" horiz-adv-x="936" 
d="M239 785q-112 37 -161 110q-44 65 -44 207v30q5 164 71.5 258t177.5 121q57 14 120 14q62 0 130 -13q139 -26 201 -136q47 -86 47 -245q0 -46 -4 -99l-252 -11q1 27 1 51q0 203 -105 210h-13q-106 0 -115 -128q-2 -22 -2 -43q0 -107 45 -174q46 -72 171 -72q15 0 32 1
l-12 -190q-143 0 -204 -78q-46 -58 -46 -137q0 -28 6 -59q21 -110 143 -110q8 0 17 1q102 6 102 183q0 63 -13 147l364 16l5 -204l-110 -7v-4q0 -199 -104 -289q-102 -88 -271 -88h-15q-181 4 -267.5 95t-101.5 216q-7 57 -7 106q0 60 10 110q18 90 64.5 143.5t139.5 67.5z
" />
    <glyph glyph-name="quotesingle" unicode="'" horiz-adv-x="381" 
d="M40 1221q111 32 129 123q-77 26 -101 62t-24 81t19 79.5t54.5 52.5t70.5 19h2q33 0 64 -12q31 -13 50.5 -39t27.5 -55.5t9 -70.5v-4q0 -40 -11 -88q-11 -51 -38 -97t-78.5 -87.5t-153.5 -49.5z" />
    <glyph glyph-name="parenleft" unicode="(" horiz-adv-x="553" 
d="M300 -200q-248 400 -253 1000q0 500 253 900h200q-200 -400 -200 -900q0 -600 200 -1000h-200z" />
    <glyph glyph-name="parenright" unicode=")" horiz-adv-x="553" 
d="M47 -200q200 400 200 1000q0 500 -200 900h200q253 -400 253 -900q-5 -600 -253 -1000h-200z" />
    <glyph glyph-name="asterisk" unicode="*" horiz-adv-x="640" 
d="M239 1596h168l-16 -177l180 68l29 -152l-164 -49l110 -147l-133 -78l-93 168l-94 -174l-139 78l123 160l-170 35l51 162l157 -67z" />
    <glyph glyph-name="plus" unicode="+" horiz-adv-x="920" 
d="M40 630v250h290v290h250v-290h300v-250h-300v-300h-250v300h-290z" />
    <glyph glyph-name="comma" unicode="," horiz-adv-x="381" 
d="M40 -79q111 32 129 123q-77 26 -101 62t-24 81t19 79.5t54.5 52.5t70.5 19h2q33 0 64 -12q31 -13 50.5 -39t27.5 -55.5t9 -70.5v-4q0 -40 -11 -88q-11 -51 -38 -97t-78.5 -87.5t-153.5 -49.5z" />
    <glyph glyph-name="hyphen" unicode="-" horiz-adv-x="580" 
d="M540 870v-250h-500v250h500z" />
    <glyph glyph-name="period" unicode="." horiz-adv-x="373" 
d="M186 45q-60 0 -103 43t-43 103q0 61 43 104t103 43q61 0 104 -43t43 -104q0 -60 -43 -103t-104 -43z" />
    <glyph glyph-name="slash" unicode="/" horiz-adv-x="600" 
d="M600 1600l-440 -1750l-170 50l430 1750z" />
    <glyph glyph-name="zero" unicode="0" horiz-adv-x="896" 
d="M477 1544q395 0 395 -720q0 -721 -423 -721t-423 747q0 694 451 694zM297 817q-1 -27 -1 -52q0 -395 163 -395q172 0 172 447t-161 447t-173 -447z" />
    <glyph glyph-name="one" unicode="1" horiz-adv-x="603" 
d="M561 1516q-7 -472 -7 -939q0 -234 2 -467l-248 -13q-7 601 -17 1113q-84 -17 -228 -84l-48 219l278 176z" />
    <glyph glyph-name="two" unicode="2" horiz-adv-x="855" 
d="M72 1052q-5 60 -5 111q0 179 65 258q83 101 212 121q46 7 90 7q79 0 152 -22q114 -35 172 -138q47 -86 47 -220q0 -26 -1 -55q-12 -172 -103.5 -316.5t-316.5 -413.5l437 -3l-3 -251q-287 -13 -740 -13l-23 273q272 294 388 452q106 145 106 285v25q-11 150 -126 150h-4
q-100 -3 -100 -182q0 -34 3 -73z" />
    <glyph glyph-name="three" unicode="3" horiz-adv-x="824" 
d="M39 1062q-4 53 -4 99q0 159 48 245q61 110 200 136q68 13 130 13q63 0 120 -14q111 -27 177.5 -121t71.5 -258v-30q0 -142 -44 -207q-49 -73 -161 -110q93 -14 139.5 -67.5t64.5 -143.5q10 -50 10 -110q0 -49 -7 -106q-15 -125 -101.5 -216t-266.5 -95h-16
q-169 0 -270 88q-105 90 -105 387v6l259 15q-1 -17 -1 -33q0 -210 110 -217q8 -1 15 -1q104 0 125 110q6 31 6 59q0 79 -45 137q-62 78 -205 78l-12 190q17 -1 32 -1q125 0 172 72q44 67 44 174q0 21 -2 43q-9 128 -115 128h-13q-105 -7 -105 -210q0 -24 1 -51z" />
    <glyph glyph-name="four" unicode="4" horiz-adv-x="921" 
d="M39 537l-21 239q172 376 398 778l322 -18l-4 -772l141 -3v-239h-137v-421l-242 9l3 417zM503 761l3 516q-110 -254 -234 -511z" />
    <glyph glyph-name="five" unicode="5" horiz-adv-x="824" 
d="M29 545l235 20q0 -219 138 -219q137 0 149 131q5 61 5 123q0 71 -7 143q-13 131 -108 131h-6q-102 -5 -148 -159l-243 6l28 829l672 12l3 -243l-445 -9l-18 -340q46 133 167 152q29 5 57 5q87 0 160 -46q96 -60 120 -286q8 -77 8 -151q0 -140 -30 -265
q-46 -191 -180 -237q-95 -33 -191 -33q-39 0 -79 6q-136 19 -215 117q-73 89 -73 275q0 18 1 38z" />
    <glyph glyph-name="six" unicode="6" horiz-adv-x="885" 
d="M312 804q78 147 226 147h2q149 -1 227 -109.5t83 -249.5v-25q0 -129 -44 -257q-48 -140 -151 -186q-75 -35 -169 -35q-34 0 -71 5q-137 17 -219 126t-118 290q-27 133 -27 298q0 58 4 119q12 236 60 384.5t143 211.5q93 61 212 61h6q122 -2 206.5 -79t109.5 -210
q16 -88 16 -173q0 -45 -4 -88h-224q2 35 2 65q0 187 -69 205q-18 4 -34 4q-58 0 -97 -59q-51 -76 -63 -210q-9 -91 -9 -167q0 -36 2 -68zM332 614q2 -132 34.5 -197.5t96.5 -75.5q10 -2 21 -2q50 0 89 41q43 45 43 162v20q-4 133 -93 156q-14 3 -28 3q-77 0 -163 -107z" />
    <glyph glyph-name="seven" unicode="7" horiz-adv-x="826" 
d="M64 1274l10 250q363 6 698 9v-254q-278 -570 -322 -1131l-237 27q44 543 289 1102z" />
    <glyph glyph-name="eight" unicode="8" horiz-adv-x="820" 
d="M605 805q136 -61 169 -176q23 -80 23 -164q0 -38 -5 -77q-15 -125 -101.5 -216t-266.5 -95h-16q-169 0 -270 88q-106 91 -110 257q-1 11 -1 22q0 151 58 241q62 96 153 121q-67 27 -136 107.5t-71 231.5v9q0 144 60 252q61 110 200 136q68 13 130 13q63 0 120 -14
q111 -27 177.5 -121t71.5 -248v-29q0 -134 -44 -208q-49 -83 -141 -130zM416 704q-102 -54 -120 -128q-10 -42 -10 -81q0 -30 6 -58q14 -66 53 -94q28 -21 65 -21q14 0 30 3q56 10 81.5 48.5t29.5 106.5q1 8 1 17q0 58 -24 110q-28 60 -112 97zM414 956q104 45 121 145
q7 38 7 70q0 50 -17 84q-27 55 -95 59h-9q-62 0 -97 -52q-28 -42 -28 -108q0 -24 4 -52q14 -103 114 -146z" />
    <glyph glyph-name="nine" unicode="9" horiz-adv-x="885" 
d="M589 769q-78 -147 -226 -147q-1 0 -1 1q-150 0 -233 108.5t-87 300.5q-1 14 -1 29q0 173 49 302q53 140 166 187q83 34 173 34q33 0 67 -5q127 -17 209 -126t118 -289q27 -134 27 -299q0 -58 -3 -118q-13 -237 -61 -385.5t-143 -210.5q-93 -62 -221 -62q-3 0 -6 1
q-133 1 -227 98q-92 94 -92 336v15h224q-2 -23 -2 -44q0 -111 60 -145q29 -18 58 -18q40 0 78 33q65 55 73 180q4 69 4 130q0 50 -3 94zM579 959q1 34 1 64q0 143 -30 214q-38 85 -101 95q-9 1 -17 1q-54 0 -99 -55q-48 -59 -48 -213v-24q4 -173 114 -185q10 -2 21 -2
q95 0 159 105z" />
    <glyph glyph-name="colon" unicode=":" horiz-adv-x="373" 
d="M186 45q-60 0 -103 43t-43 103q0 61 43 104t103 43q61 0 104 -43t43 -104q0 -60 -43 -103t-104 -43zM186 806q-60 0 -103 43t-43 103q0 61 43 104t103 43q61 0 104 -43t43 -104q0 -60 -43 -103t-104 -43z" />
    <glyph glyph-name="semicolon" unicode=";" horiz-adv-x="381" 
d="M40 -79q111 32 129 123q-77 26 -101 62t-24 81t19 79.5t54.5 52.5t70.5 19h2q33 0 64 -12q31 -13 50.5 -39t27.5 -55.5t9 -70.5v-4q0 -40 -11 -88q-11 -51 -38 -97t-78.5 -87.5t-153.5 -49.5zM186 806q-60 0 -103 43t-43 103q0 61 43 104t103 43q61 0 104 -43t43 -104
q0 -60 -43 -103t-104 -43z" />
    <glyph glyph-name="less" unicode="&#x3c;" horiz-adv-x="780" 
d="M40 700v200l700 450v-300l-420 -250l420 -250v-300z" />
    <glyph glyph-name="equal" unicode="=" horiz-adv-x="880" 
d="M840 1170v-250h-800v250h800zM840 670v-250h-800v250h800z" />
    <glyph glyph-name="greater" unicode="&#x3e;" horiz-adv-x="780" 
d="M40 250v300l420 250l-420 250v300l700 -450v-200z" />
    <glyph glyph-name="question" unicode="?" horiz-adv-x="855" 
d="M72 1002q-5 60 -5 111q0 179 65 258q83 101 212 121q46 7 90 7q79 0 152 -22q114 -35 172 -138q51 -93 51 -237v-33q-7 -167 -68.5 -276.5t-186.5 -158.5l-3 -183l-213 -4l-3 333q162 24 198 142q25 82 25 160q0 33 -4 65q-16 105 -130 105h-5q-100 -3 -100 -182
q0 -34 3 -73zM453 45q-60 0 -103 43t-43 103q0 61 43 104t103 43q61 0 104 -43t43 -104q0 -60 -43 -103t-104 -43z" />
    <glyph glyph-name="at" unicode="@" horiz-adv-x="1454" 
d="M794 330v406q-49 99 -124 99q-15 0 -31 -4q-97 -23 -107 -267q-1 -26 -1 -50q0 -199 74 -244q25 -16 53 -16q62 0 136 76zM819 942l6 154l216 4q-1 -325 -1 -535q0 -350 3 -379q5 -46 41 -46q1 0 3 1q38 1 93 70.5t68 262.5q3 46 3 95q0 150 -30 316q-41 218 -170 285.5
t-313 71.5h-18q-172 0 -290 -72q-124 -77 -168 -241t-48 -366q-1 -19 -1 -38q0 -179 40 -327q43 -163 198 -262q100 -64 320 -64q118 0 270 18l12 -166q-158 -20 -289 -20q-213 0 -352 53q-226 84 -316 379q-60 193 -60 417q0 117 16 241q47 364 243 493q188 124 456 124h21
q282 -5 443.5 -147t192.5 -489q9 -111 9 -208q0 -208 -44 -354q-65 -216 -310 -243q-29 -4 -55 -4q-193 0 -209 182q-90 -106 -185 -109q-7 -1 -13 -1q-87 0 -151 43q-70 45 -107 140t-46 223q-4 47 -4 95q0 81 10 165q16 132 83 233.5t213 109.5h18q133 0 202 -105z" />
    <glyph glyph-name="A" unicode="A" horiz-adv-x="960" 
d="M-18 90q188 854 304 1448l375 6q138 -618 316 -1408l-256 -52l-81 379h-311l-84 -409zM632 744q-52 216 -170 517q-91 -253 -154 -524z" />
    <glyph glyph-name="B" unicode="B" horiz-adv-x="917" 
d="M312 1309l7 -429q186 10 236 127q27 62 27 122q0 50 -20 99q-35 85 -179 85q-32 0 -71 -4zM331 674v-335q23 -1 44 -1q186 0 235 102q27 57 27 103q0 45 -26 79q-43 55 -200 55q-37 0 -80 -3zM55 85q4 279 4 549q0 466 -12 905q170 18 298 18q235 0 326 -61
q140 -94 158 -254q4 -41 4 -79q0 -109 -37 -189q-51 -109 -181 -156q145 -22 208 -105q53 -70 53 -200q0 -25 -2 -52q-12 -170 -107.5 -254t-265.5 -115q-96 -17 -225 -17q-101 0 -221 10z" />
    <glyph glyph-name="C" unicode="C" horiz-adv-x="885" 
d="M816 978l-222 -1v27q0 235 -132 235q-141 0 -141 -434q0 -489 148 -489h1q148 1 148 240v99h248v-75q0 -498 -409 -521q-12 -1 -24 -1q-385 0 -385 740q0 724 396 724q373 0 373 -484q0 -29 -1 -60z" />
    <glyph glyph-name="D" unicode="D" horiz-adv-x="875" 
d="M296 1231q-17 -329 -17 -636q0 -116 2 -228q35 -8 67 -8q88 0 148 61q82 82 82 368v4q-1 288 -80 378q-61 68 -145 68q-27 0 -57 -7zM48 88q2 337 2 694q0 358 -2 735q115 14 212 14q270 0 398 -108q174 -148 182 -547v-72q0 -342 -66 -488q-73 -161 -267 -214
q-112 -31 -246 -31q-100 0 -213 17z" />
    <glyph glyph-name="E" unicode="E" horiz-adv-x="798" 
d="M683 1490v-282l-395 16v-328l355 10l9 -271h-317v-254h415v-284l-692 10q11 281 11 566q0 395 -21 797q226 9 635 20z" />
    <glyph glyph-name="F" unicode="F" horiz-adv-x="731" 
d="M683 1511v-282l-395 15v-375l355 9l9 -271h-317v-493l-277 13q11 281 11 566q0 395 -21 797q226 10 635 21z" />
    <glyph glyph-name="G" unicode="G" horiz-adv-x="981" 
d="M882 959l-227 -2q-5 254 -128 267h-18q-110 0 -178 -145t-68 -411v-44q6 -298 209 -298q140 0 140 228q0 23 -1 47l-199 -3l10 225l511 -8v-245l-102 -2q0 -522 -416 -522q-385 0 -385 614q0 51 3 107q35 721 459 751q21 1 40 1q353 0 353 -476q0 -40 -3 -84z" />
    <glyph glyph-name="H" unicode="H" horiz-adv-x="904" 
d="M856 1484q-12 -673 -23 -1450h-227v583h-285v-536l-273 1q12 367 12 718q0 350 -12 684h261l-11 -583l285 -12v619z" />
    <glyph glyph-name="I" unicode="I" horiz-adv-x="381" 
d="M321 127l-249 -23q0 734 -24 1378l285 24q-11 -679 -12 -1379z" />
    <glyph glyph-name="J" unicode="J" horiz-adv-x="912" 
d="M64 689l263 18q-1 -29 -1 -55q0 -223 54 -270q33 -31 71 -31q30 0 62 18q70 39 70 273v23q-4 255 -22 828l285 17q7 -281 7 -496q0 -535 -44 -667q-62 -187 -204 -232q-85 -27 -165 -27q-54 0 -106 13q-129 30 -189.5 129.5t-71.5 210.5q-9 93 -9 206v42z" />
    <glyph glyph-name="K" unicode="K" horiz-adv-x="904" 
d="M305 1473l-4 -625q167 322 309 589l280 -16q-141 -262 -386 -647q124 -255 373 -703l-318 -4q-92 233 -272 586v-534l-239 -4q7 532 7 1338z" />
    <glyph glyph-name="L" unicode="L" horiz-adv-x="842" 
d="M349 1554q-18 -521 -18 -893q0 -148 3 -273l446 22l7 -326l-714 -16q1 132 1 263q0 601 -26 1196z" />
    <glyph glyph-name="M" unicode="M" horiz-adv-x="1307" 
d="M396 1533l233 -1036l171 960l456 -5q-12 -325 -12 -656q0 -369 15 -747l-291 -20q0 398 -9 973l-163 -879l-310 -21l-200 948l-4 -960l-244 -17q7 329 7 653q0 404 -11 798z" />
    <glyph glyph-name="N" unicode="N" horiz-adv-x="947" 
d="M52 79q12 342 12 666q0 374 -16 725l294 14l270 -753q-4 388 -22 794l309 4q-46 -613 -46 -1238q0 -84 1 -168l-271 -3l-288 806q13 -446 24 -829z" />
    <glyph glyph-name="O" unicode="O" horiz-adv-x="952" 
d="M507 1524q421 0 421 -720q0 -721 -451 -721t-451 747q0 694 481 694zM307 777q-1 -26 -1 -50q0 -377 176 -377q187 0 187 427t-174 427q-175 0 -188 -427z" />
    <glyph glyph-name="P" unicode="P" horiz-adv-x="879" 
d="M56 80q6 263 6 538q0 422 -14 874q171 24 302 24q206 0 310 -60q161 -93 161 -381v-33q-10 -316 -143 -404.5t-328 -94.5q-1 -31 -1 -64q0 -166 17 -393zM312 1260l7 -489q186 10 218 133q15 56 15 115q0 69 -20 142q-30 107 -150 107q-32 0 -70 -8z" />
    <glyph glyph-name="Q" unicode="Q" horiz-adv-x="957" 
d="M801 -30q-51 77 -110 163q-88 -52 -209 -52q-451 0 -451 748q0 694 481 694q421 0 421 -721q0 -341 -101 -521q58 -77 114 -147zM312 775q-1 -26 -1 -50q0 -377 176 -377q25 0 47 8q-62 88 -131 183l143 157q54 -83 106 -161q22 96 22 240q0 428 -174 428
q-175 0 -188 -428z" />
    <glyph glyph-name="R" unicode="R" horiz-adv-x="895" 
d="M56 64q6 286 6 576q0 444 -14 897q155 16 278 16q342 0 436 -125q88 -117 88 -258q0 -64 -17 -132q-58 -220 -244 -279q130 -18 197 -140q64 -118 64 -594v-43l-302 -4q5 126 5 226q0 303 -49 371q-56 76 -133 76q-15 0 -31 -3q6 -305 26 -578zM312 1304l7 -428
q186 9 236 126q27 62 27 121q0 51 -20 100q-36 85 -179 85q-33 0 -71 -4z" />
    <glyph glyph-name="S" unicode="S" horiz-adv-x="909" 
d="M52 609l297 20q-6 -62 -6 -112q0 -227 113 -227h4q137 4 137 146v9q-5 151 -259 296q-247 140 -247 462q0 10 1 20q7 337 378 343h8q335 0 335 -427q0 -34 -2 -72l-261 -15q4 45 4 83q0 179 -87 179q-105 0 -115 -107q-1 -15 -1 -30q0 -89 53 -166q61 -89 209.5 -163
t207.5 -203q42 -93 42 -198q0 -40 -6 -82q-23 -151 -128 -250.5t-282 -108.5q-12 -1 -24 -1q-161 0 -269 118q-104 113 -104 411q0 36 2 75z" />
    <glyph glyph-name="T" unicode="T" 
d="M48 1232v263q147 -4 291 -4q224 0 439 9l9 -280h-252q0 -711 15 -1128l-282 -14q22 710 32 1158z" />
    <glyph glyph-name="U" unicode="U" horiz-adv-x="912" 
d="M864 1516v-989q0 -457 -418 -457h-22q-350 40 -362 383q0 685 -14 1080h266q-10 -226 -10 -531q0 -214 5 -468q2 -186 134 -186q0 -1 1 -1q131 0 131 238l-5 922z" />
    <glyph glyph-name="V" unicode="V" horiz-adv-x="913" 
d="M264 94q-122 674 -289 1409l292 30l171 -1096q131 575 214 1041l277 -34q-210 -907 -313 -1339z" />
    <glyph glyph-name="W" unicode="W" horiz-adv-x="1337" 
d="M258 1515l91 -989l155 869l361 4l103 -866l89 947l300 -39q-108 -654 -204 -1322l-364 -19l-119 959l-184 -978l-342 14q-77 680 -186 1401z" />
    <glyph glyph-name="X" unicode="X" horiz-adv-x="913" 
d="M293 1513l181 -530l166 529l267 -13q-75 -216 -236 -683q90 -290 245 -729l-281 -28l-168 560l-169 -536l-284 40q106 284 257 693l-265 654z" />
    <glyph glyph-name="Y" unicode="Y" 
d="M304 75l11 620q-228 482 -352 784l282 29l191 -558q129 402 207 599h273q-245 -603 -352 -873v-589z" />
    <glyph glyph-name="Z" unicode="Z" horiz-adv-x="826" 
d="M61 1252l14 260q473 6 685 6v-263q-264 -513 -432 -858q116 -3 220 -3q121 0 226 4l10 -279q-265 11 -712 11l-21 292q290 502 434 832z" />
    <glyph glyph-name="bracketleft" unicode="[" horiz-adv-x="553" 
d="M503 1700v-250h-200v-1400h200v-250h-450v1900h450z" />
    <glyph glyph-name="backslash" unicode="\" horiz-adv-x="600" 
d="M170 1650l430 -1750l-170 -50l-440 1750z" />
    <glyph glyph-name="bracketright" unicode="]" horiz-adv-x="553" 
d="M503 1700v-1900h-450v250h200v1400h-200v250h450z" />
    <glyph glyph-name="asciicircum" unicode="^" horiz-adv-x="980" 
d="M640 1700l300 -600h-250l-200 400l-200 -400h-250l300 600h300z" />
    <glyph glyph-name="underscore" unicode="_" horiz-adv-x="694" 
d="M692 -150v-200h-700v200h700z" />
    <glyph glyph-name="grave" unicode="`" horiz-adv-x="395" 
d="M254 1181q-130 151 -236 255l164 130q75 -126 192 -265z" />
    <glyph glyph-name="a" unicode="a" horiz-adv-x="796" 
d="M427 1106q329 -18 329 -331v-710l-233 -4l-8 95q-72 -82 -191 -82q-51 0 -110 16q-177 44 -177 274q0 28 3 60q20 237 337 237q61 0 134 -9v116q0 141 -89 141h-4q-7 1 -13 1q-97 0 -97 -158v-15l-238 20q0 349 336 349h21zM511 316v176q-43 9 -78 9q-91 0 -124 -61
q-20 -37 -20 -69q0 -40 32 -71q25 -24 65 -24q51 0 125 40z" />
    <glyph glyph-name="b" unicode="b" 
d="M312 1465q-11 -301 -11 -523q53 95 135 111q14 1 27 1q326 0 333 -471v-18q0 -472 -347 -472q-83 0 -157 111l-8 -153l-237 1q5 366 5 704q0 371 -6 709h266zM301 755l-5 -346q52 -106 132 -106q9 0 18 1q92 13 102 247q1 24 1 46q0 192 -78 229q-24 11 -47 11
q-63 0 -123 -82z" />
    <glyph glyph-name="c" unicode="c" horiz-adv-x="730" 
d="M449 462l238 -15q0 -361 -333 -366q-4 -1 -7 -1q-317 0 -317 481v30q10 516 338 521h8q302 0 302 -346q0 -20 -1 -40l-215 -16v24q0 182 -103 182q-105 0 -105 -295v-33q6 -319 106 -319h6q87 7 87 133q0 27 -4 60z" />
    <glyph glyph-name="d" unicode="d" 
d="M796 1465q-6 -338 -6 -709q0 -338 5 -704l-237 -1l-8 153q-74 -111 -197 -111q-307 0 -307 470q0 10 1 20q6 471 304 471q12 0 25 -1q102 -6 165 -111q0 222 -11 523h266zM546 409l-5 346q-58 79 -119 79q-25 0 -50 -13q-79 -41 -79 -230q0 -22 1 -45q10 -229 102 -242
q9 -1 18 -1q80 0 132 106z" />
    <glyph glyph-name="e" unicode="e" horiz-adv-x="747" 
d="M365 1077q347 0 347 -461q0 -56 -5 -120h-447q0 -257 99 -257h7q87 7 87 133q0 27 -4 60l238 5q0 -381 -333 -386q-4 -1 -7 -1q-317 0 -317 481v30q10 516 335 516zM236 680h226v24q0 182 -103 182q-111 0 -123 -206z" />
    <glyph glyph-name="f" unicode="f" horiz-adv-x="699" 
d="M186 1041q-2 27 -2 55q0 94 19 193q23 129 140 206q87 58 220 58q44 0 94 -7l-2 -219q-30 4 -56 4q-83 0 -122 -41q-43 -43 -43 -168q0 -30 3 -66l214 3v-203l-220 -14q8 -328 8 -620q0 -88 -1 -172l-254 -11q3 333 10 788l-162 -8l-4 215z" />
    <glyph glyph-name="g" unicode="g" horiz-adv-x="827" 
d="M546 330v406q-49 99 -124 99q-15 0 -31 -4q-97 -23 -107 -267q-1 -26 -1 -50q0 -199 74 -244q25 -16 53 -16q62 0 136 76zM68 -66l235 13q-1 -12 -1 -24q0 -109 87 -119q14 -2 26 -2q75 0 107 60q28 54 28 202q0 40 -2 88q-56 -112 -208 -122q-297 3 -297 505v7
q2 508 353 511q96 0 172 -112l3 159l219 -10q0 -825 -5 -1022t-59.5 -316t-185.5 -152q-69 -18 -137 -18q-61 0 -121 14q-128 30 -176 113q-40 68 -40 178q0 22 2 47z" />
    <glyph glyph-name="h" unicode="h" horiz-adv-x="791" 
d="M278 1483l10 -563q42 130 196 132h3q152 0 216 -138q44 -94 44 -440q0 -170 -11 -402h-252q13 309 13 479q0 85 -3 136q-10 150 -86 150t-98 -80l10 -725l-245 -2q0 460 -41 1443z" />
    <glyph glyph-name="i" unicode="i" horiz-adv-x="335" 
d="M320 1307q0 -61 -43 -104t-104 -43q-60 0 -103 43t-43 104q0 60 43 103t103 43q61 0 104 -43t43 -103zM52 45q-7 585 -7 1011l252 15q-12 -408 -12 -811q0 -108 1 -215h-234z" />
    <glyph glyph-name="j" unicode="j" horiz-adv-x="335" 
d="M48 1037l246 18q4 -305 4 -529q0 -281 -6 -437q-10 -280 -118 -380q-95 -88 -277 -88q-27 0 -56 2l-28 254q42 -7 76 -7q95 0 131 55q47 73 47 305v10q-1 239 -19 797zM320 1307q0 -61 -43 -104t-104 -43q-60 0 -103 43t-43 104q0 60 43 103t103 43q61 0 104 -43t43 -103
z" />
    <glyph glyph-name="k" unicode="k" horiz-adv-x="808" 
d="M285 1473l-4 -775q137 212 259 409l230 -26q-181 -252 -316 -477q114 -205 313 -533l-248 -24q-112 243 -252 456v-384l-219 -4q7 532 7 1338z" />
    <glyph glyph-name="l" unicode="l" horiz-adv-x="367" 
d="M321 67l-249 -23q4 331 4 637q0 430 -8 811l245 4q-4 -245 -4 -503q0 -445 12 -926z" />
    <glyph glyph-name="m" unicode="m" horiz-adv-x="1140" 
d="M201 1098l4 -160q54 115 125 143q42 16 85 16q32 0 64 -8q78 -20 111 -160q26 109 90 145.5t142 37.5h4q76 0 146 -37q71 -38 108.5 -142.5t39.5 -286.5v-581l-216 -5q13 329 13 560t-88 249q-13 2 -25 2q-70 0 -108 -90q-6 -104 -6 -243q0 -189 11 -441l-250 -2
q14 387 14 564v12q-1 175 -69 184h-13q-61 0 -118 -70l2 -732l-236 -9v164q0 436 -13 871z" />
    <glyph glyph-name="n" unicode="n" horiz-adv-x="786" 
d="M224 1103l10 -163q42 130 221 132h4q176 0 240 -138q44 -94 44 -440q0 -170 -11 -402h-242q13 309 13 479q0 85 -3 136q-10 150 -96 150t-108 -80l10 -725l-235 -2q0 460 -31 1033z" />
    <glyph glyph-name="o" unicode="o" horiz-adv-x="747" 
d="M392 1077q340 0 340 -472q0 -19 -1 -38q-14 -511 -362 -516q-4 -1 -8 -1q-331 0 -331 483v28q10 516 362 516zM359 849q-63 -22 -86 -163q-14 -84 -14 -169q0 -57 6 -115q16 -144 103 -149h7q81 0 111 107q25 89 25 211q0 30 -1 61q-8 161 -48 201q-25 24 -60 24
q-20 0 -43 -8z" />
    <glyph glyph-name="p" unicode="p" 
d="M46 -349q6 337 6 717q0 346 -5 726l237 1l8 -154q74 112 197 112q307 0 307 -485v-20q-7 -486 -306 -486q-12 0 -24 1q-102 5 -165 111q0 -222 11 -523h-266zM296 736l5 -376q58 -79 117 -79q24 0 48 14q73 40 73 239q0 24 -1 50q-10 244 -97 257q-9 1 -17 1
q-76 0 -128 -106z" />
    <glyph glyph-name="q" unicode="q" 
d="M545 -399q1 321 1 543q-58 -106 -210 -111q-293 0 -294 510q-1 2 -1 4q0 506 352 506q103 0 177 -112l8 154l217 -1q-5 -395 -5 -748q0 -388 6 -725zM546 330v406q-49 99 -124 99q-15 0 -31 -4q-97 -23 -107 -267q-1 -26 -1 -50q0 -199 74 -244q25 -16 53 -16
q62 0 136 76z" />
    <glyph glyph-name="r" unicode="r" horiz-adv-x="759" 
d="M306 767l10 -725l-245 -2q0 460 -31 1033l184 20l10 -163q42 120 196 137q23 2 44 2q121 0 184 -79q73 -94 74 -299l-222 -22q1 17 1 33q0 160 -83 160h-4q-96 -5 -118 -95z" />
    <glyph glyph-name="s" unicode="s" horiz-adv-x="710" 
d="M28 405l229 11v-13q0 -154 95 -156h4q92 0 92 89v7q-4 98 -181.5 158t-213.5 202q-13 50 -13 96q0 84 43 156q66 110 200 126q36 4 70 4q89 0 157 -31q93 -43 129 -123q24 -55 24 -122q0 -32 -5 -66l-214 -5q3 25 3 46q0 100 -64 107q-7 1 -14 1q-66 0 -89 -67
q-8 -23 -8 -42q0 -47 44 -81q62 -48 183.5 -97.5t163.5 -168.5q15 -45 15 -90q0 -76 -44 -153q-70 -123 -217 -143q-32 -5 -63 -5q-110 0 -204 57q-120 73 -122 303z" />
    <glyph glyph-name="t" unicode="t" horiz-adv-x="671" 
d="M207 1396l227 15v-331l191 5l3 -189l-194 -9v-455q0 -159 135 -159q28 0 61 7l-9 -220q-48 -6 -91 -6q-316 0 -322 326v489l-164 -10l-4 223l168 -2z" />
    <glyph glyph-name="u" unicode="u" horiz-adv-x="786" 
d="M559 50l-10 163q-42 -130 -226 -131q-2 -1 -3 -1q-182 0 -241 164q-40 109 -40 451q0 176 11 415h243q-20 -336 -20 -517q0 -91 5 -142q15 -156 101 -156t108 81l-10 694l235 2q0 -430 31 -1002z" />
    <glyph glyph-name="v" unicode="v" horiz-adv-x="755" 
d="M226 76q-126 579 -226 994l243 13l123 -727q96 408 153 744l239 -30q-113 -419 -263 -990z" />
    <glyph glyph-name="w" unicode="w" horiz-adv-x="1168" 
d="M221 1107l97 -757l126 700l279 10l143 -648l92 695l221 -20q-92 -479 -166 -1009l-296 -13l-107 686l-168 -676l-270 -13q-97 490 -194 1009z" />
    <glyph glyph-name="x" unicode="x" horiz-adv-x="812" 
d="M291 1096l105 -393l104 396l264 -31q-92 -195 -196 -475q92 -242 203 -495l-258 -28l-126 385l-120 -382l-245 32q107 243 202 478l-196 473z" />
    <glyph glyph-name="y" unicode="y" horiz-adv-x="803" 
d="M38 1081l262 21q-9 -300 -9 -494q0 -73 2 -131q4 -214 96 -220q6 -1 11 -1q82 0 104 94q12 55 12 261q0 165 -8 426l246 18q4 -305 4 -524q0 -273 -6 -412q-10 -250 -143 -380q-120 -118 -337 -118q-25 0 -51 2l-28 244q19 -1 37 -1q168 0 230 59q64 61 64 196v16
q-57 -90 -175 -90h-14q-129 6 -200 101.5t-77.5 268t-19.5 664.5z" />
    <glyph glyph-name="z" unicode="z" horiz-adv-x="685" 
d="M45 1082q88 -2 197 -2q175 0 405 5l5 -204l-356 -600h356l-3 -219q-251 0 -611 -10l-8 194l373 635q-179 0 -353 -13z" />
    <glyph glyph-name="braceleft" unicode="{" horiz-adv-x="830" 
d="M790 50v-250h-100q-400 0 -400 400v270q0 150 -250 150v250q250 0 250 150v280q0 400 400 400h100v-250h-100q-150 0 -150 -150v-300q0 -200 -200 -250q200 -50 200 -250v-300q0 -150 150 -150h100z" />
    <glyph glyph-name="bar" unicode="|" horiz-adv-x="330" 
d="M290 1700v-1900h-250v1900h250z" />
    <glyph glyph-name="braceright" unicode="}" horiz-adv-x="830" 
d="M140 50q150 0 150 150v300q0 200 200 250q-200 50 -200 250v300q0 150 -150 150h-100v250h100q400 0 400 -400v-280q0 -150 250 -150v-250q-250 0 -250 -150v-270q0 -400 -400 -400h-100v250h100z" />
    <glyph glyph-name="asciitilde" unicode="~" horiz-adv-x="883" 
d="M50 614q0 366 244 366q122 0 189 -91q56 -77 103 -77q10 0 19 4q55 18 55 164h183q0 -366 -244 -366q-122 0 -195 92q-61 76 -105 76q-9 0 -17 -3q-49 -19 -49 -165h-183z" />
    <glyph glyph-name="uni00A0" unicode="&#xa0;" horiz-adv-x="373" 
 />
    <glyph glyph-name="exclamdown" unicode="&#xa1;" horiz-adv-x="335" 
d="M174 1099q60 0 103 -43t43 -103q0 -61 -43 -104t-103 -43q-61 0 -104 43t-43 104q0 60 43 103t104 43zM51 -309q14 509 19 1006l222 5q10 -426 23 -1011h-264z" />
    <glyph glyph-name="cent" unicode="&#xa2;" horiz-adv-x="730" 
d="M687 857q0 -315 -254 -359v-198h-150v195q-253 46 -253 476v30q8 444 253 509v190h150v-182q245 -31 245 -343q0 -19 -1 -39l-215 -16v24q0 182 -103 182q-105 0 -105 -295v-33q6 -319 106 -319h6q87 7 87 133q0 27 -4 60z" />
    <glyph glyph-name="sterling" unicode="&#xa3;" horiz-adv-x="919" 
d="M600 1040v28q0 207 -94 207h-11q-110 -14 -110 -199v-10q2 -118 12 -226h293v-220h-267v-11q0 -124 -45 -267q39 -4 80 -4q164 0 347 65l74 -248q-189 -64 -348 -71q-65 -3 -159 -3q-133 0 -322 6l-7 253l144 -1q20 94 20 179q0 53 -8 102h-159v220h102q-19 101 -20 210
v9q0 175 77 295q79 122 210 146q53 9 101 9q69 0 125 -19q96 -34 157 -146q49 -92 49 -231q0 -32 -3 -67z" />
    <glyph glyph-name="yen" unicode="&#xa5;" horiz-adv-x="1033" 
d="M381 75l4 235h-328v170h331l2 130h-333v170h295q-199 424 -312 699l282 29l191 -558q129 402 207 599h273q-203 -499 -311 -769h275v-170h-316v-130h316v-170h-316v-223z" />
    <glyph glyph-name="dieresis" unicode="&#xa8;" horiz-adv-x="777" 
d="M186 1245q-60 0 -103 43t-43 103q0 61 43 104t103 43q61 0 104 -43t43 -104q0 -60 -43 -103t-104 -43zM596 1245q-60 0 -103 43t-43 103q0 61 43 104t103 43q61 0 104 -43t43 -104q0 -60 -43 -103t-104 -43z" />
    <glyph glyph-name="copyright" unicode="&#xa9;" horiz-adv-x="1108" 
d="M763 769l-115 1q-6 88 -35 110q-12 8 -24 8q-19 0 -40 -21q-34 -35 -35 -193q-1 -4 -1 -8q0 -151 62 -154q1 -1 3 -1q59 0 64 129l126 -3q-14 -208 -120 -242q-42 -13 -78 -13q-56 0 -96 32q-68 52 -88 146q-15 68 -15 137q0 26 2 54q8 106 66.5 181t145.5 76h1
q86 0 129.5 -53t47.5 -186zM582 1111h-19q-158 0 -233 -96q-80 -103 -106 -241q-11 -54 -11 -107q0 -84 26 -166q41 -135 180 -190q82 -33 164 -33q58 0 116 16q140 39 189 158q38 94 38 222q0 34 -3 71q-13 173 -90.5 266.5t-250.5 99.5zM598 1248q251 -13 343 -137.5
t110 -355.5q3 -51 3 -99q0 -166 -47 -286q-62 -155 -258 -212q-88 -26 -175 -26q-106 0 -211 39q-190 70 -251 254q-41 122 -41 245q0 62 10 124q31 184 149 326q108 129 327 129q20 0 41 -1z" />
    <glyph glyph-name="guillemotleft" unicode="&#xab;" horiz-adv-x="936" 
d="M50 700l230 400h220l-200 -400l200 -400h-220zM446 700l230 400h220l-200 -400l200 -400h-220z" />
    <glyph glyph-name="logicalnot" unicode="&#xac;" horiz-adv-x="920" 
d="M40 630v250h840v-550h-250v300h-590z" />
    <glyph glyph-name="registered" unicode="&#xae;" horiz-adv-x="1108" 
d="M577 1099h-19q-156 0 -231 -95q-79 -102 -105 -238q-10 -53 -10 -105q0 -83 26 -165q41 -134 179 -189q80 -33 162 -33q57 0 114 16q139 39 187 157q37 93 37 221q0 33 -2 69q-13 172 -90 264t-248 98zM598 1248q251 -13 343 -137.5t110 -355.5q3 -51 3 -99
q0 -166 -47 -286q-62 -155 -258 -212q-88 -26 -175 -26q-106 0 -211 39q-190 70 -251 254q-41 122 -41 245q0 62 10 124q31 184 149 326q108 129 327 129q20 0 41 -1zM507 878l2 -177h7q40 0 72 22q35 24 35 75t-26 70q-18 12 -55 12q-16 0 -35 -2zM375 412v145
q0 218 -2 443q65 5 118 5q81 0 132 -11q84 -19 112 -87q17 -43 17 -84q0 -27 -6 -52q-18 -68 -87 -96q75 -16 90.5 -67t15.5 -193l-136 -4q1 18 1 34q0 96 -25 125q-26 29 -81 29q-9 0 -20 -1l1 -184z" />
    <glyph glyph-name="degree" unicode="&#xb0;" horiz-adv-x="690" 
d="M650 1130q0 -124 -88 -212t-212 -88t-212 88t-88 212t88 212t212 88t212 -88t88 -212zM350 1265q-56 0 -95.5 -39.5t-39.5 -95.5t39.5 -95.5t95.5 -39.5t95.5 39.5t39.5 95.5t-39.5 95.5t-95.5 39.5z" />
    <glyph glyph-name="plusminus" unicode="&#xb1;" horiz-adv-x="920" 
d="M40 780v250h290v290h250v-290h300v-250h-300v-300h-250v300h-290zM40 50v250h840v-250h-840z" />
    <glyph glyph-name="acute" unicode="&#xb4;" horiz-adv-x="395" 
d="M18 1301q117 139 192 265l164 -130q-106 -104 -236 -255z" />
    <glyph glyph-name="mu" unicode="&#xb5;" horiz-adv-x="786" 
d="M559 50l-10 133q-52 -100 -129 -110q-10 -2 -20 -2q-64 0 -111 59l1 -460l-250 -10q13 509 13 995q0 231 -3 456h233q-5 -252 -5 -416q0 -163 5 -238q10 -151 96 -151t108 81l-10 684l235 2q0 -430 31 -1002z" />
    <glyph glyph-name="paragraph" unicode="&#xb6;" horiz-adv-x="1130" 
d="M1090 1470v-1450h-250v1200h-150v-1200h-250v670q-400 0 -400 390t390 390h660z" />
    <glyph glyph-name="periodcentered" unicode="&#xb7;" horiz-adv-x="381" 
d="M163 629q-51 0 -87.5 36.5t-36.5 87.5q0 52 36.5 88.5t87.5 36.5q52 0 88.5 -36.5t36.5 -88.5q0 -51 -36.5 -87.5t-88.5 -36.5z" />
    <glyph glyph-name="cedilla" unicode="&#xb8;" horiz-adv-x="429" 
d="M139 -237l-89 9q10 156 18 232h122l-9 -89q26 21 59 21q18 0 38 -6q56 -17 84 -79q17 -40 17 -82q0 -25 -6 -51q-16 -70 -86 -106q-45 -23 -123 -23q-45 0 -102 8l-10 119q56 -6 95 -6q63 0 83 15q21 16 21 37q0 10 -4 20q-12 27 -42 27q-7 0 -14 -1q-41 -7 -52 -45z" />
    <glyph glyph-name="guillemotright" unicode="&#xbb;" horiz-adv-x="936" 
d="M270 300h-220l200 400l-200 400h220l230 -400zM666 300h-220l200 400l-200 400h220l230 -400z" />
    <glyph glyph-name="questiondown" unicode="&#xbf;" horiz-adv-x="855" 
d="M791 142q5 -60 5 -111q0 -179 -64 -257q-84 -102 -212 -121q-47 -8 -91 -8q-79 0 -152 23q-114 34 -171 137q-52 93 -52 237q0 16 1 33q6 167 67.5 276.5t186.5 158.5l3 183l213 4l3 -333q-162 -24 -198 -142q-25 -82 -25 -160q0 -33 5 -65q15 -105 129 -105q2 0 5 1
q100 2 100 181q0 34 -3 73zM410 1099q60 0 103 -43t43 -103q0 -61 -43 -104t-103 -43q-61 0 -104 43t-43 104q0 60 43 103t104 43z" />
    <glyph glyph-name="Agrave" unicode="&#xc0;" horiz-adv-x="960" 
d="M-18 90q188 854 304 1448l375 6q138 -618 316 -1408l-256 -52l-81 379h-311l-84 -409zM632 744q-52 216 -170 517q-91 -253 -154 -524zM478 1610q-130 151 -236 255l164 130q75 -126 192 -265z" />
    <glyph glyph-name="Aacute" unicode="&#xc1;" horiz-adv-x="960" 
d="M-18 90q188 854 304 1448l375 6q138 -618 316 -1408l-256 -52l-81 379h-311l-84 -409zM632 744q-52 216 -170 517q-91 -253 -154 -524zM361 1730q117 139 192 265l164 -130q-106 -104 -236 -255z" />
    <glyph glyph-name="Acircumflex" unicode="&#xc2;" horiz-adv-x="960" 
d="M-18 90q188 854 304 1448l375 6q138 -618 316 -1408l-256 -52l-81 379h-311l-84 -409zM632 744q-52 216 -170 517q-91 -253 -154 -524zM180 1659l180 300h240l180 -300h-200l-100 150l-100 -150h-200z" />
    <glyph glyph-name="Atilde" unicode="&#xc3;" horiz-adv-x="960" 
d="M-18 90q188 854 304 1448l375 6q138 -618 316 -1408l-256 -52l-81 379h-311l-84 -409zM632 744q-52 216 -170 517q-91 -253 -154 -524zM155 1669q0 300 200 300q100 0 155 -75q46 -62 85 -62q8 0 15 2q45 15 45 135h150q0 -300 -200 -300q-100 0 -160 75q-50 63 -86 63
q-7 0 -14 -3q-40 -15 -40 -135h-150z" />
    <glyph glyph-name="Adieresis" unicode="&#xc4;" horiz-adv-x="960" 
d="M-18 90q188 854 304 1448l375 6q138 -618 316 -1408l-256 -52l-81 379h-311l-84 -409zM632 744q-52 216 -170 517q-91 -253 -154 -524zM274 1654q-60 0 -103 43t-43 103q0 61 43 104t103 43q61 0 104 -43t43 -104q0 -60 -43 -103t-104 -43zM684 1654q-60 0 -103 43
t-43 103q0 61 43 104t103 43q61 0 104 -43t43 -104q0 -60 -43 -103t-104 -43z" />
    <glyph glyph-name="Aring" unicode="&#xc5;" horiz-adv-x="960" 
d="M-18 90q188 854 304 1448l375 6q138 -618 316 -1408l-256 -52l-81 379h-311l-84 -409zM632 744q-52 216 -170 517q-91 -253 -154 -524zM680 1809q0 -83 -58.5 -141.5t-141.5 -58.5t-141.5 58.5t-58.5 141.5t58.5 141.5t141.5 58.5t141.5 -58.5t58.5 -141.5zM480 1892
q-34 0 -58 -24.5t-24 -58.5t24 -58t58 -24t58.5 24t24.5 58t-24.5 58.5t-58.5 24.5z" />
    <glyph glyph-name="AE" unicode="&#xc6;" horiz-adv-x="1376" 
d="M1261 1208l-395 16v-328l355 10l9 -271h-317v-254h415v-284l-692 10q7 177 9 356h-276l-84 -409l-263 36q188 854 304 1378l935 22v-282zM636 1232l-124 -1q-71 -223 -134 -494l268 6z" />
    <glyph glyph-name="Ccedilla" unicode="&#xc7;" horiz-adv-x="885" 
d="M594 977v27q0 235 -132 235q-141 0 -141 -434q0 -489 148 -489h1q148 1 148 240v99h248v-75q0 -473 -369 -518l-9 -87q26 21 59 21q18 0 38 -6q56 -17 84 -79q17 -40 17 -82q0 -25 -6 -51q-16 -70 -86 -106q-45 -23 -123 -23q-45 0 -102 8l-10 119q56 -6 95 -6
q63 0 83 15q21 16 21 37q0 10 -4 20q-12 27 -42 27q-7 0 -14 -1q-41 -7 -52 -45l-89 9q10 155 18 230q-327 53 -327 736q0 724 396 724q373 0 373 -484q0 -29 -1 -60z" />
    <glyph glyph-name="Egrave" unicode="&#xc8;" horiz-adv-x="798" 
d="M683 1490v-282l-395 16v-328l355 10l9 -271h-317v-254h415v-284l-692 10q11 281 11 566q0 395 -21 797q226 9 635 20zM398 1560q-130 151 -236 255l164 130q75 -126 192 -265z" />
    <glyph glyph-name="Eacute" unicode="&#xc9;" horiz-adv-x="798" 
d="M683 1490v-282l-395 16v-328l355 10l9 -271h-317v-254h415v-284l-692 10q11 281 11 566q0 395 -21 797q226 9 635 20zM280 1680q117 139 192 265l164 -130q-106 -104 -236 -255z" />
    <glyph glyph-name="Ecircumflex" unicode="&#xca;" horiz-adv-x="798" 
d="M683 1490v-282l-395 16v-328l355 10l9 -271h-317v-254h415v-284l-692 10q11 281 11 566q0 395 -21 797q226 9 635 20zM99 1629l180 300h240l180 -300h-200l-100 150l-100 -150h-200z" />
    <glyph glyph-name="Edieresis" unicode="&#xcb;" horiz-adv-x="798" 
d="M684 1490v-282l-395 16v-328l355 10l9 -271h-317v-254h415v-284l-692 10q11 281 11 566q0 395 -21 797q226 9 635 20zM194 1604q-60 0 -103 43t-43 103q0 61 43 104t103 43q61 0 104 -43t43 -104q0 -60 -43 -103t-104 -43zM604 1604q-60 0 -103 43t-43 103q0 61 43 104
t103 43q61 0 104 -43t43 -104q0 -60 -43 -103t-104 -43z" />
    <glyph glyph-name="Igrave" unicode="&#xcc;" horiz-adv-x="381" 
d="M321 127l-249 -23q0 734 -24 1378l285 24q-11 -679 -12 -1379zM190 1590q-130 151 -236 255l164 130q75 -126 192 -265z" />
    <glyph glyph-name="Iacute" unicode="&#xcd;" horiz-adv-x="381" 
d="M321 127l-249 -23q0 734 -24 1378l285 24q-11 -679 -12 -1379zM72 1710q117 139 192 265l164 -130q-106 -104 -236 -255z" />
    <glyph glyph-name="Icircumflex" unicode="&#xce;" horiz-adv-x="381" 
d="M322 127l-249 -23q0 734 -24 1378l285 24q-11 -679 -12 -1379zM-108 1659l180 300h240l180 -300h-200l-100 150l-100 -150h-200z" />
    <glyph glyph-name="Idieresis" unicode="&#xcf;" horiz-adv-x="381" 
d="M321 127l-249 -23q0 734 -24 1378l285 24q-11 -679 -12 -1379zM-14 1654q-60 0 -103 43t-43 103q0 61 43 104t103 43q61 0 104 -43t43 -104q0 -60 -43 -103t-104 -43zM396 1654q-60 0 -103 43t-43 103q0 61 43 104t103 43q61 0 104 -43t43 -104q0 -60 -43 -103t-104 -43z
" />
    <glyph glyph-name="Eth" unicode="&#xd0;" horiz-adv-x="875" 
d="M48 88q2 302 2 622h-140v170h140q-1 310 -2 637q115 14 212 14q270 0 398 -108q174 -148 182 -547v-72q0 -342 -66 -488q-73 -161 -267 -214q-112 -31 -246 -31q-100 0 -213 17zM282 880h128v-170h-131q-1 -58 -1 -116q0 -115 3 -227q35 -8 67 -8q88 0 148 61
q82 82 82 368v4q-1 288 -80 378q-61 68 -145 68q-27 0 -57 -7z" />
    <glyph glyph-name="Ntilde" unicode="&#xd1;" horiz-adv-x="947" 
d="M52 79q12 342 12 666q0 374 -16 725l294 14l270 -753q-4 388 -22 794l309 4q-46 -613 -46 -1238q0 -84 1 -168l-271 -3l-288 806q13 -446 24 -829zM149 1669q0 300 200 300q100 0 155 -75q46 -62 85 -62q8 0 15 2q45 15 45 135h150q0 -300 -200 -300q-100 0 -160 75
q-50 63 -86 63q-7 0 -14 -3q-40 -15 -40 -135h-150z" />
    <glyph glyph-name="Ograve" unicode="&#xd2;" horiz-adv-x="952" 
d="M507 1524q421 0 421 -720q0 -721 -451 -721t-451 747q0 694 481 694zM307 777q-1 -26 -1 -50q0 -377 176 -377q187 0 187 427t-174 427q-175 0 -188 -427zM476 1600q-130 151 -236 255l164 130q75 -126 192 -265z" />
    <glyph glyph-name="Oacute" unicode="&#xd3;" horiz-adv-x="952" 
d="M507 1524q421 0 421 -720q0 -721 -451 -721t-451 747q0 694 481 694zM307 777q-1 -26 -1 -50q0 -377 176 -377q187 0 187 427t-174 427q-175 0 -188 -427zM358 1720q117 139 192 265l164 -130q-106 -104 -236 -255z" />
    <glyph glyph-name="Ocircumflex" unicode="&#xd4;" horiz-adv-x="952" 
d="M507 1524q421 0 421 -720q0 -721 -451 -721t-451 747q0 694 481 694zM307 777q-1 -26 -1 -50q0 -377 176 -377q187 0 187 427t-174 427q-175 0 -188 -427zM177 1609l180 300h240l180 -300h-200l-100 150l-100 -150h-200z" />
    <glyph glyph-name="Otilde" unicode="&#xd5;" horiz-adv-x="952" 
d="M507 1524q421 0 421 -720q0 -721 -451 -721t-451 747q0 694 481 694zM307 777q-1 -26 -1 -50q0 -377 176 -377q187 0 187 427t-174 427q-175 0 -188 -427zM152 1619q0 300 200 300q100 0 155 -75q46 -62 85 -62q8 0 15 2q45 15 45 135h150q0 -300 -200 -300
q-100 0 -160 75q-50 63 -86 63q-7 0 -14 -3q-40 -15 -40 -135h-150z" />
    <glyph glyph-name="Odieresis" unicode="&#xd6;" horiz-adv-x="952" 
d="M507 1524q421 0 421 -720q0 -721 -451 -721t-451 747q0 694 481 694zM307 777q-1 -26 -1 -50q0 -377 176 -377q187 0 187 427t-174 427q-175 0 -188 -427zM272 1614q-60 0 -103 43t-43 103q0 61 43 104t103 43q61 0 104 -43t43 -104q0 -60 -43 -103t-104 -43zM682 1614
q-60 0 -103 43t-43 103q0 61 43 104t103 43q61 0 104 -43t43 -104q0 -60 -43 -103t-104 -43z" />
    <glyph glyph-name="multiply" unicode="&#xd7;" horiz-adv-x="993" 
d="M217 297l-177 177l276 276l-276 276l177 177l276 -276l282 283l177 -177l-283 -283l283 -283l-177 -177l-282 283z" />
    <glyph glyph-name="Oslash" unicode="&#xd8;" horiz-adv-x="952" 
d="M507 1524q64 0 119 -17l47 173l119 -36l-54 -198q190 -159 190 -642q0 -721 -451 -721q-59 0 -110 12l-45 -165l-112 36l48 177q-232 151 -232 687q0 694 481 694zM307 777q-1 -26 -1 -51q0 -173 37 -267l199 736q-22 9 -48 9q-174 0 -187 -427zM669 777q0 188 -34 294
l-196 -715q20 -6 43 -6q187 0 187 427z" />
    <glyph glyph-name="Ugrave" unicode="&#xd9;" horiz-adv-x="912" 
d="M864 1516v-989q0 -457 -418 -457h-22q-350 40 -362 383q0 685 -14 1080h266q-10 -226 -10 -531q0 -214 5 -468q2 -186 134 -186q0 -1 1 -1q131 0 131 238l-5 922zM455 1590q-130 151 -236 255l164 130q75 -126 192 -265z" />
    <glyph glyph-name="Uacute" unicode="&#xda;" horiz-adv-x="912" 
d="M864 1516v-989q0 -457 -418 -457h-22q-350 40 -362 383q0 685 -14 1080h266q-10 -226 -10 -531q0 -214 5 -468q2 -186 134 -186q0 -1 1 -1q131 0 131 238l-5 922zM337 1710q117 139 192 265l164 -130q-106 -104 -236 -255z" />
    <glyph glyph-name="Ucircumflex" unicode="&#xdb;" horiz-adv-x="912" 
d="M864 1516v-989q0 -457 -418 -457h-22q-350 40 -362 383q0 685 -14 1080h266q-10 -226 -10 -531q0 -214 5 -468q2 -186 134 -186q0 -1 1 -1q131 0 131 238l-5 922zM156 1659l180 300h240l180 -300h-200l-100 150l-100 -150h-200z" />
    <glyph glyph-name="Udieresis" unicode="&#xdc;" horiz-adv-x="912" 
d="M864 1516v-989q0 -457 -418 -457h-22q-350 40 -362 383q0 685 -14 1080h266q-10 -226 -10 -531q0 -214 5 -468q2 -186 134 -186q0 -1 1 -1q131 0 131 238l-5 922zM251 1634q-60 0 -103 43t-43 103q0 61 43 104t103 43q61 0 104 -43t43 -104q0 -60 -43 -103t-104 -43z
M661 1634q-60 0 -103 43t-43 103q0 61 43 104t103 43q61 0 104 -43t43 -104q0 -60 -43 -103t-104 -43z" />
    <glyph glyph-name="Yacute" unicode="&#xdd;" 
d="M304 75l11 620q-228 482 -352 784l282 29l191 -558q129 402 207 599h273q-245 -603 -352 -873v-589zM321 1710q117 139 192 265l164 -130q-106 -104 -236 -255z" />
    <glyph glyph-name="Thorn" unicode="&#xde;" horiz-adv-x="879" 
d="M56 80q1 185 1 376q0 497 -9 1036l252 18v-230q68 19 133 19q117 0 227 -63q161 -93 161 -381v-33q-10 -316 -143 -404.5t-348 -94.5l6 -237zM312 1040l7 -489q186 10 218 133q15 56 15 115q0 69 -20 142q-30 107 -150 107q-32 0 -70 -8z" />
    <glyph glyph-name="germandbls" unicode="&#xdf;" horiz-adv-x="891" 
d="M286 89l-246 -4l1 1051q11 373 258 404q66 8 122 8q156 0 240 -62q115 -84 133 -244q4 -41 4 -79q0 -109 -37 -189q-51 -109 -181 -156q145 -22 208 -105q53 -70 53 -200q0 -25 -2 -52q-12 -170 -107.5 -254t-265.5 -115q-50 -9 -100 -14l-3 260q164 3 212 102
q27 57 27 103q0 45 -26 79q-42 55 -191 55h-26l-2 230q122 4 168 110q23 54 23 106q0 49 -21 95q-40 88 -133 88h-13q-95 -6 -95 -157q0 -14 1 -30z" />
    <glyph glyph-name="agrave" unicode="&#xe0;" horiz-adv-x="796" 
d="M427 1106q329 -18 329 -331v-710l-233 -4l-8 95q-72 -82 -191 -82q-51 0 -110 16q-177 44 -177 274q0 28 3 60q20 237 337 237q61 0 134 -9v116q0 141 -89 141h-4q-7 1 -13 1q-97 0 -97 -158v-15l-238 20q0 349 336 349h21zM511 316v176q-43 9 -78 9q-91 0 -124 -61
q-20 -37 -20 -69q0 -40 32 -71q25 -24 65 -24q51 0 125 40zM395 1162q-130 151 -236 255l164 130q75 -126 192 -265z" />
    <glyph glyph-name="aacute" unicode="&#xe1;" horiz-adv-x="796" 
d="M427 1106q329 -18 329 -331v-710l-233 -4l-8 95q-72 -82 -191 -82q-51 0 -110 16q-177 44 -177 274q0 28 3 60q20 237 337 237q61 0 134 -9v116q0 141 -89 141h-4q-7 1 -13 1q-97 0 -97 -158v-15l-238 20q0 349 336 349h21zM511 316v176q-43 9 -78 9q-91 0 -124 -61
q-20 -37 -20 -69q0 -40 32 -71q25 -24 65 -24q51 0 125 40zM278 1282q117 139 192 265l164 -130q-106 -104 -236 -255z" />
    <glyph glyph-name="acircumflex" unicode="&#xe2;" horiz-adv-x="796" 
d="M427 1106q329 -18 329 -331v-710l-233 -4l-8 95q-72 -82 -191 -82q-51 0 -110 16q-177 44 -177 274q0 28 3 60q20 237 337 237q61 0 134 -9v116q0 141 -89 141h-4q-7 1 -13 1q-97 0 -97 -158v-15l-238 20q0 349 336 349h21zM511 316v176q-43 9 -78 9q-91 0 -124 -61
q-20 -37 -20 -69q0 -40 32 -71q25 -24 65 -24q51 0 125 40zM96 1201l180 300h240l180 -300h-200l-100 150l-100 -150h-200z" />
    <glyph glyph-name="atilde" unicode="&#xe3;" horiz-adv-x="796" 
d="M427 1106q329 -18 329 -331v-710l-233 -4l-8 95q-72 -82 -191 -82q-51 0 -110 16q-177 44 -177 274q0 28 3 60q20 237 337 237q61 0 134 -9v116q0 141 -89 141h-4q-7 1 -13 1q-97 0 -97 -158v-15l-238 20q0 349 336 349h21zM511 316v176q-43 9 -78 9q-91 0 -124 -61
q-20 -37 -20 -69q0 -40 32 -71q25 -24 65 -24q51 0 125 40zM71 1211q0 300 200 300q100 0 155 -75q46 -62 85 -62q8 0 15 2q45 15 45 135h150q0 -300 -200 -300q-100 0 -160 75q-50 63 -86 63q-7 0 -14 -3q-40 -15 -40 -135h-150z" />
    <glyph glyph-name="adieresis" unicode="&#xe4;" horiz-adv-x="796" 
d="M427 1106q329 -18 329 -331v-710l-233 -4l-8 95q-72 -82 -191 -82q-51 0 -110 16q-177 44 -177 274q0 28 3 60q20 237 337 237q61 0 134 -9v116q0 141 -89 141h-4q-7 1 -13 1q-97 0 -97 -158v-15l-238 20q0 349 336 349h21zM511 316v176q-43 9 -78 9q-91 0 -124 -61
q-20 -37 -20 -69q0 -40 32 -71q25 -24 65 -24q51 0 125 40zM191 1196q-60 0 -103 43t-43 103q0 61 43 104t103 43q61 0 104 -43t43 -104q0 -60 -43 -103t-104 -43zM601 1196q-60 0 -103 43t-43 103q0 61 43 104t103 43q61 0 104 -43t43 -104q0 -60 -43 -103t-104 -43z" />
    <glyph glyph-name="aring" unicode="&#xe5;" horiz-adv-x="796" 
d="M427 1106q329 -18 329 -331v-710l-233 -4l-8 95q-72 -82 -191 -82q-51 0 -110 16q-177 44 -177 274q0 28 3 60q20 237 337 237q61 0 134 -9v116q0 141 -89 141h-4q-7 1 -13 1q-97 0 -97 -158v-15l-238 20q0 349 336 349h21zM511 316v176q-43 9 -78 9q-91 0 -124 -61
q-20 -37 -20 -69q0 -40 32 -71q25 -24 65 -24q51 0 125 40zM596 1450q0 -83 -58.5 -141.5t-141.5 -58.5t-141.5 58.5t-58.5 141.5t58.5 141.5t141.5 58.5t141.5 -58.5t58.5 -141.5zM396 1533q-34 0 -58 -24.5t-24 -58.5t24 -58t58 -24t58.5 24t24.5 58t-24.5 58.5
t-58.5 24.5z" />
    <glyph glyph-name="ae" unicode="&#xe6;" horiz-adv-x="1220" 
d="M417 1106q159 -10 233 -103q78 74 202 74q347 0 347 -461q0 -56 -5 -120h-447q0 -257 99 -257h7q87 7 87 133q0 27 -4 60l238 5q0 -381 -334 -387h-6q-146 0 -225 101q-141 -73 -273 -73q-52 0 -103 11q-206 46 -206 282q0 25 3 53q20 237 337 237q61 0 134 -9v116
q0 141 -89 141h-4q-7 1 -13 1q-97 0 -97 -158v-15l-238 20q0 349 336 349h21zM501 492q-43 9 -78 9q-91 0 -124 -61q-20 -37 -20 -69q0 -40 32 -71q25 -24 65 -24q51 0 125 40v176zM949 680v24q0 182 -103 182q-111 0 -123 -206h226z" />
    <glyph glyph-name="ccedilla" unicode="&#xe7;" horiz-adv-x="730" 
d="M687 447q0 -331 -281 -363h8l-9 -89q26 21 59 21q18 0 38 -6q56 -17 84 -79q17 -40 17 -82q0 -25 -6 -51q-16 -70 -86 -106q-45 -23 -123 -23q-45 0 -102 8l-10 119q56 -6 95 -6q63 0 83 15q21 16 21 37q0 10 -4 20q-12 27 -42 27q-7 0 -14 -1q-41 -7 -52 -45l-89 9
q10 156 18 232q-262 40 -262 477v30q10 516 338 521h8q302 0 302 -346q0 -20 -1 -40l-215 -16v24q0 182 -103 182q-105 0 -105 -295v-33q6 -319 106 -319h6q87 7 87 133q0 27 -4 60z" />
    <glyph glyph-name="egrave" unicode="&#xe8;" horiz-adv-x="747" 
d="M365 1077q347 0 347 -461q0 -56 -5 -120h-447q0 -257 99 -257h7q87 7 87 133q0 27 -4 60l238 5q0 -381 -333 -386q-4 -1 -7 -1q-317 0 -317 481v30q10 516 335 516zM236 680h226v24q0 182 -103 182q-111 0 -123 -206zM370 1152q-130 151 -236 255l164 130
q75 -126 192 -265z" />
    <glyph glyph-name="eacute" unicode="&#xe9;" horiz-adv-x="747" 
d="M365 1077q347 0 347 -461q0 -56 -5 -120h-447q0 -257 99 -257h7q87 7 87 133q0 27 -4 60l238 5q0 -381 -333 -386q-4 -1 -7 -1q-317 0 -317 481v30q10 516 335 516zM236 680h226v24q0 182 -103 182q-111 0 -123 -206zM252 1272q117 139 192 265l164 -130
q-106 -104 -236 -255z" />
    <glyph glyph-name="ecircumflex" unicode="&#xea;" horiz-adv-x="747" 
d="M365 1077q347 0 347 -461q0 -56 -5 -120h-447q0 -257 99 -257h7q87 7 87 133q0 27 -4 60l238 5q0 -381 -333 -386q-4 -1 -7 -1q-317 0 -317 481v30q10 516 335 516zM236 680h226v24q0 182 -103 182q-111 0 -123 -206zM71 1201l180 300h240l180 -300h-200l-100 150
l-100 -150h-200z" />
    <glyph glyph-name="edieresis" unicode="&#xeb;" horiz-adv-x="747" 
d="M365 1077q347 0 347 -461q0 -56 -5 -120h-447q0 -257 99 -257h7q87 7 87 133q0 27 -4 60l238 5q0 -381 -333 -386q-4 -1 -7 -1q-317 0 -317 481v30q10 516 335 516zM236 680h226v24q0 182 -103 182q-111 0 -123 -206zM166 1196q-60 0 -103 43t-43 103q0 61 43 104t103 43
q61 0 104 -43t43 -104q0 -60 -43 -103t-104 -43zM576 1196q-60 0 -103 43t-43 103q0 61 43 104t103 43q61 0 104 -43t43 -104q0 -60 -43 -103t-104 -43z" />
    <glyph glyph-name="igrave" unicode="&#xec;" horiz-adv-x="335" 
d="M52 45q-7 585 -7 1011l252 15q-12 -408 -12 -811q0 -108 1 -215h-234zM171 1152q-130 151 -236 255l164 130q75 -126 192 -265z" />
    <glyph glyph-name="iacute" unicode="&#xed;" horiz-adv-x="335" 
d="M52 45q-7 585 -7 1011l252 15q-12 -408 -12 -811q0 -108 1 -215h-234zM52 1272q117 139 192 265l164 -130q-106 -104 -236 -255z" />
    <glyph glyph-name="icircumflex" unicode="&#xee;" horiz-adv-x="335" 
d="M52 45q-7 585 -7 1011l252 15q-12 -408 -12 -811q0 -108 1 -215h-234zM-128 1201l180 300h240l180 -300h-200l-100 150l-100 -150h-200z" />
    <glyph glyph-name="idieresis" unicode="&#xef;" horiz-adv-x="335" 
d="M53 45q-7 585 -7 1011l252 15q-12 -408 -12 -811q0 -108 1 -215h-234zM-33 1196q-60 0 -103 43t-43 103q0 61 43 104t103 43q61 0 104 -43t43 -104q0 -60 -43 -103t-104 -43zM377 1196q-60 0 -103 43t-43 103q0 61 43 104t103 43q61 0 104 -43t43 -104q0 -60 -43 -103
t-104 -43z" />
    <glyph glyph-name="eth" unicode="&#xf0;" 
d="M796 1465q-2 -77 -3 -155h117v-170h-119q-1 -170 -1 -347q0 -355 5 -741l-237 -1l-8 153q-74 -111 -197 -111q-307 0 -307 470q0 10 1 20q6 471 304 471q12 0 25 -1q102 -6 165 -111q0 92 -2 198h-129v170h125q-2 74 -5 155h266zM541 755q-58 79 -119 79q-25 0 -50 -13
q-79 -41 -79 -230q0 -22 1 -45q10 -229 102 -242q9 -1 18 -1q80 0 132 106z" />
    <glyph glyph-name="ntilde" unicode="&#xf1;" horiz-adv-x="786" 
d="M224 1103l10 -163q42 130 221 132h4q176 0 240 -138q44 -94 44 -440q0 -170 -11 -402h-242q13 309 13 479q0 85 -3 136q-10 150 -96 150t-108 -80l10 -725l-235 -2q0 460 -31 1033zM66 1211q0 300 200 300q100 0 155 -75q46 -62 85 -62q8 0 15 2q45 15 45 135h150
q0 -300 -200 -300q-100 0 -160 75q-50 63 -86 63q-7 0 -14 -3q-40 -15 -40 -135h-150z" />
    <glyph glyph-name="ograve" unicode="&#xf2;" horiz-adv-x="747" 
d="M392 1077q340 0 340 -472q0 -19 -1 -38q-14 -511 -362 -516q-4 -1 -8 -1q-331 0 -331 483v28q10 516 362 516zM359 849q-63 -22 -86 -163q-14 -84 -14 -169q0 -57 6 -115q16 -144 103 -149h7q81 0 111 107q25 89 25 211q0 30 -1 61q-8 161 -48 201q-25 24 -60 24
q-20 0 -43 -8zM379 1152q-130 151 -236 255l164 130q75 -126 192 -265z" />
    <glyph glyph-name="oacute" unicode="&#xf3;" horiz-adv-x="747" 
d="M392 1077q340 0 340 -472q0 -19 -1 -38q-14 -511 -362 -516q-4 -1 -8 -1q-331 0 -331 483v28q10 516 362 516zM359 849q-63 -22 -86 -163q-14 -84 -14 -169q0 -57 6 -115q16 -144 103 -149h7q81 0 111 107q25 89 25 211q0 30 -1 61q-8 161 -48 201q-25 24 -60 24
q-20 0 -43 -8zM262 1272q117 139 192 265l164 -130q-106 -104 -236 -255z" />
    <glyph glyph-name="ocircumflex" unicode="&#xf4;" horiz-adv-x="747" 
d="M392 1077q340 0 340 -472q0 -19 -1 -38q-14 -511 -362 -516q-4 -1 -8 -1q-331 0 -331 483v28q10 516 362 516zM359 849q-63 -22 -86 -163q-14 -84 -14 -169q0 -57 6 -115q16 -144 103 -149h7q81 0 111 107q25 89 25 211q0 30 -1 61q-8 161 -48 201q-25 24 -60 24
q-20 0 -43 -8zM81 1201l180 300h240l180 -300h-200l-100 150l-100 -150h-200z" />
    <glyph glyph-name="otilde" unicode="&#xf5;" horiz-adv-x="747" 
d="M392 1077q340 0 340 -472q0 -19 -1 -38q-14 -511 -362 -516q-4 -1 -8 -1q-331 0 -331 483v28q10 516 362 516zM359 849q-63 -22 -86 -163q-14 -84 -14 -169q0 -57 6 -115q16 -144 103 -149h7q81 0 111 107q25 89 25 211q0 30 -1 61q-8 161 -48 201q-25 24 -60 24
q-20 0 -43 -8zM56 1211q0 300 200 300q100 0 155 -75q46 -62 85 -62q8 0 15 2q45 15 45 135h150q0 -300 -200 -300q-100 0 -160 75q-50 63 -86 63q-7 0 -14 -3q-40 -15 -40 -135h-150z" />
    <glyph glyph-name="odieresis" unicode="&#xf6;" horiz-adv-x="747" 
d="M392 1077q340 0 340 -472q0 -19 -1 -38q-14 -511 -362 -516q-4 -1 -8 -1q-331 0 -331 483v28q10 516 362 516zM359 849q-63 -22 -86 -163q-14 -84 -14 -169q0 -57 6 -115q16 -144 103 -149h7q81 0 111 107q25 89 25 211q0 30 -1 61q-8 161 -48 201q-25 24 -60 24
q-20 0 -43 -8zM176 1196q-60 0 -103 43t-43 103q0 61 43 104t103 43q61 0 104 -43t43 -104q0 -60 -43 -103t-104 -43zM586 1196q-60 0 -103 43t-43 103q0 61 43 104t103 43q61 0 104 -43t43 -104q0 -60 -43 -103t-104 -43z" />
    <glyph glyph-name="divide" unicode="&#xf7;" horiz-adv-x="980" 
d="M940 870v-250h-900v250h900zM490 215q-60 0 -103 43t-43 103q0 61 43 104t103 43q61 0 104 -43t43 -104q0 -60 -43 -103t-104 -43zM490 976q-60 0 -103 43t-43 103q0 61 43 104t103 43q61 0 104 -43t43 -104q0 -60 -43 -103t-104 -43z" />
    <glyph glyph-name="oslash" unicode="&#xf8;" horiz-adv-x="747" 
d="M392 1077q21 0 41 -2l30 135l119 -36l-30 -133q180 -94 180 -438q0 -18 -1 -37q-14 -510 -363 -516q-21 0 -42 1l-34 -151l-112 36l32 146q-182 92 -182 449v30q10 516 362 516zM509 632q-4 90 -18 142l-119 -521h3q82 0 111 106q25 89 25 209q0 31 -2 64zM359 849
q-63 -22 -86 -163q-14 -84 -14 -169q0 -58 6 -116q3 -26 8 -47l111 501q-12 -1 -25 -6z" />
    <glyph glyph-name="ugrave" unicode="&#xf9;" horiz-adv-x="786" 
d="M559 50l-10 163q-42 -130 -226 -131q-2 -1 -3 -1q-182 0 -241 164q-40 109 -40 451q0 176 11 415h243q-20 -336 -20 -517q0 -91 5 -142q15 -156 101 -156t108 81l-10 694l235 2q0 -430 31 -1002zM390 1181q-130 151 -236 255l164 130q75 -126 192 -265z" />
    <glyph glyph-name="uacute" unicode="&#xfa;" horiz-adv-x="786" 
d="M559 50l-10 163q-42 -130 -226 -131q-2 -1 -3 -1q-182 0 -241 164q-40 109 -40 451q0 176 11 415h243q-20 -336 -20 -517q0 -91 5 -142q15 -156 101 -156t108 81l-10 694l235 2q0 -430 31 -1002zM273 1301q117 139 192 265l164 -130q-106 -104 -236 -255z" />
    <glyph glyph-name="ucircumflex" unicode="&#xfb;" horiz-adv-x="786" 
d="M559 50l-10 163q-42 -130 -226 -131q-2 -1 -3 -1q-182 0 -241 164q-40 109 -40 451q0 176 11 415h243q-20 -336 -20 -517q0 -91 5 -142q15 -156 101 -156t108 81l-10 694l235 2q0 -430 31 -1002zM91 1250l180 300h240l180 -300h-200l-100 150l-100 -150h-200z" />
    <glyph glyph-name="udieresis" unicode="&#xfc;" horiz-adv-x="786" 
d="M559 50l-10 163q-42 -130 -226 -131q-2 -1 -3 -1q-182 0 -241 164q-40 109 -40 451q0 176 11 415h243q-20 -336 -20 -517q0 -91 5 -142q15 -156 101 -156t108 81l-10 694l235 2q0 -430 31 -1002zM186 1216q-60 0 -103 43t-43 103q0 61 43 104t103 43q61 0 104 -43
t43 -104q0 -60 -43 -103t-104 -43zM596 1216q-60 0 -103 43t-43 103q0 61 43 104t103 43q61 0 104 -43t43 -104q0 -60 -43 -103t-104 -43z" />
    <glyph glyph-name="yacute" unicode="&#xfd;" horiz-adv-x="803" 
d="M38 1081l262 21q-9 -300 -9 -494q0 -73 2 -131q4 -214 96 -220q6 -1 11 -1q82 0 104 94q12 55 12 261q0 165 -8 426l246 18q4 -305 4 -524q0 -273 -6 -412q-10 -250 -143 -380q-120 -118 -337 -118q-25 0 -51 2l-28 244q19 -1 37 -1q168 0 230 59q64 61 64 196v16
q-57 -90 -175 -90h-14q-129 6 -200 101.5t-77.5 268t-19.5 664.5zM279 1301q117 139 192 265l164 -130q-106 -104 -236 -255z" />
    <glyph glyph-name="thorn" unicode="&#xfe;" 
d="M46 -349q6 337 6 832q0 451 -5 1031l243 1l2 -574q74 112 197 112q307 0 307 -485v-20q-7 -486 -306 -486q-12 0 -24 1q-102 5 -165 111q0 -222 11 -523h-266zM296 736l5 -376q58 -79 117 -79q24 0 48 14q73 40 73 239q0 24 -1 50q-10 244 -97 257q-9 1 -17 1
q-76 0 -128 -106z" />
    <glyph glyph-name="ydieresis" unicode="&#xff;" horiz-adv-x="803" 
d="M38 1081l262 21q-9 -300 -9 -494q0 -73 2 -131q4 -214 96 -220q6 -1 11 -1q82 0 104 94q12 55 12 261q0 165 -8 426l246 18q4 -305 4 -524q0 -273 -6 -412q-10 -250 -143 -380q-120 -118 -337 -118q-25 0 -51 2l-28 244q19 -1 37 -1q168 0 230 59q64 61 64 196v16
q-57 -90 -175 -90h-14q-129 6 -200 101.5t-77.5 268t-19.5 664.5zM192 1216q-60 0 -103 43t-43 103q0 61 43 104t103 43q61 0 104 -43t43 -104q0 -60 -43 -103t-104 -43zM602 1216q-60 0 -103 43t-43 103q0 61 43 104t103 43q61 0 104 -43t43 -104q0 -60 -43 -103t-104 -43z
" />
    <glyph glyph-name="Ccaron" unicode="&#x10c;" horiz-adv-x="885" 
d="M816 978l-222 -1v27q0 235 -132 235q-141 0 -141 -434q0 -489 148 -489h1q148 1 148 240v99h248v-75q0 -498 -409 -521q-12 -1 -24 -1q-385 0 -385 740q0 724 396 724q373 0 373 -484q0 -29 -1 -60zM718 1959l-180 -300h-240l-180 300h200l100 -150l100 150h200z" />
    <glyph glyph-name="ccaron" unicode="&#x10d;" horiz-adv-x="730" 
d="M449 462l238 -15q0 -361 -333 -366q-4 -1 -7 -1q-317 0 -317 481v30q10 516 338 521h8q302 0 302 -346q0 -20 -1 -40l-215 -16v24q0 182 -103 182q-105 0 -105 -295v-33q6 -319 106 -319h6q87 7 87 133q0 27 -4 60zM659 1550l-180 -300h-240l-180 300h200l100 -150
l100 150h200z" />
    <glyph glyph-name="Ecaron" unicode="&#x11a;" horiz-adv-x="798" 
d="M683 1490v-282l-395 16v-328l355 10l9 -271h-317v-254h415v-284l-692 10q11 281 11 566q0 395 -21 797q226 9 635 20zM718 1959l-180 -300h-240l-180 300h200l100 -150l100 150h200z" />
    <glyph glyph-name="ecaron" unicode="&#x11b;" horiz-adv-x="747" 
d="M365 1077q347 0 347 -461q0 -56 -5 -120h-447q0 -257 99 -257h7q87 7 87 133q0 27 -4 60l238 5q0 -381 -333 -386q-4 -1 -7 -1q-317 0 -317 481v30q10 516 335 516zM236 680h226v24q0 182 -103 182q-111 0 -123 -206zM671 1550l-180 -300h-240l-180 300h200l100 -150
l100 150h200z" />
    <glyph glyph-name="dotlessi" unicode="&#x131;" horiz-adv-x="335" 
d="M52 45q-7 585 -7 1011l252 15q-12 -408 -12 -811q0 -108 1 -215h-234z" />
    <glyph glyph-name="Ncaron" unicode="&#x147;" horiz-adv-x="947" 
d="M52 79q12 342 12 666q0 374 -16 725l294 14l270 -753q-4 388 -22 794l309 4q-46 -613 -46 -1238q0 -84 1 -168l-271 -3l-288 806q13 -446 24 -829zM718 1959l-180 -300h-240l-180 300h200l100 -150l100 150h200z" />
    <glyph glyph-name="ncaron" unicode="&#x148;" horiz-adv-x="786" 
d="M224 1103l10 -163q42 130 221 132h4q176 0 240 -138q44 -94 44 -440q0 -170 -11 -402h-242q13 309 13 479q0 85 -3 136q-10 150 -96 150t-108 -80l10 -725l-235 -2q0 460 -31 1033zM692 1550l-180 -300h-240l-180 300h200l100 -150l100 150h200z" />
    <glyph glyph-name="OE" unicode="&#x152;" horiz-adv-x="1451" 
d="M447 1524q192 0 269 -259q-4 102 -9 205q226 9 635 20v-282l-395 16v-328l355 10l9 -271h-317v-254h415v-284l-692 10q5 139 8 280q-80 -304 -308 -304q-381 0 -381 747q0 694 411 694zM317 777q-1 -26 -1 -50q0 -377 176 -377q187 0 187 427t-174 427q-175 0 -188 -427z
" />
    <glyph glyph-name="oe" unicode="&#x153;" horiz-adv-x="1238" 
d="M347 1077q169 0 241 -155q84 155 262 155q347 0 347 -461q0 -56 -5 -120h-447q0 -257 99 -257h7q87 7 87 133q0 27 -4 60l238 5q0 -381 -334 -387h-7q-183 0 -260 161q-79 -158 -248 -161h-6q-287 0 -287 479v32q10 516 317 516zM359 849q-63 -22 -86 -163
q-14 -84 -14 -169q0 -57 6 -115q16 -144 103 -149h7q81 0 111 107q25 89 25 211q0 30 -1 61q-8 161 -48 201q-25 24 -60 24q-20 0 -43 -8zM947 680v24q0 182 -103 182q-111 0 -123 -206h226z" />
    <glyph glyph-name="Rcaron" unicode="&#x158;" horiz-adv-x="895" 
d="M56 64q6 286 6 576q0 444 -14 897q155 16 278 16q342 0 436 -125q88 -117 88 -258q0 -64 -17 -132q-58 -220 -244 -279q130 -18 197 -140q64 -118 64 -594v-43l-302 -4q5 126 5 226q0 303 -49 371q-56 76 -133 76q-15 0 -31 -3q6 -305 26 -578zM312 1304l7 -428
q186 9 236 126q27 62 27 121q0 51 -20 100q-36 85 -179 85q-33 0 -71 -4zM718 1959l-180 -300h-240l-180 300h200l100 -150l100 150h200z" />
    <glyph glyph-name="rcaron" unicode="&#x159;" horiz-adv-x="759" 
d="M306 767l10 -725l-245 -2q0 460 -31 1033l184 20l10 -163q42 120 196 137q23 2 44 2q121 0 184 -79q73 -94 74 -299l-222 -22q1 17 1 33q0 160 -83 160h-4q-96 -5 -118 -95zM686 1550l-180 -300h-240l-180 300h200l100 -150l100 150h200z" />
    <glyph glyph-name="Scaron" unicode="&#x160;" horiz-adv-x="909" 
d="M52 609l297 20q-6 -62 -6 -112q0 -227 113 -227h4q137 4 137 146v9q-5 151 -259 296q-247 140 -247 462q0 10 1 20q7 337 378 343h8q335 0 335 -427q0 -34 -2 -72l-261 -15q4 45 4 83q0 179 -87 179q-105 0 -115 -107q-1 -15 -1 -30q0 -89 53 -166q61 -89 209.5 -163
t207.5 -203q42 -93 42 -198q0 -40 -6 -82q-23 -151 -128 -250.5t-282 -108.5q-12 -1 -24 -1q-161 0 -269 118q-104 113 -104 411q0 36 2 75zM757 1959l-180 -300h-240l-180 300h200l100 -150l100 150h200z" />
    <glyph glyph-name="scaron" unicode="&#x161;" horiz-adv-x="710" 
d="M28 405l229 11v-13q0 -154 95 -156h4q92 0 92 89v7q-4 98 -181.5 158t-213.5 202q-13 50 -13 96q0 84 43 156q66 110 200 126q36 4 70 4q89 0 157 -31q93 -43 129 -123q24 -55 24 -122q0 -32 -5 -66l-214 -5q3 25 3 46q0 100 -64 107q-7 1 -14 1q-66 0 -89 -67
q-8 -23 -8 -42q0 -47 44 -81q62 -48 183.5 -97.5t163.5 -168.5q15 -45 15 -90q0 -76 -44 -153q-70 -123 -217 -143q-32 -5 -63 -5q-110 0 -204 57q-120 73 -122 303zM653 1501l-180 -300h-240l-180 300h200l100 -150l100 150h200z" />
    <glyph glyph-name="Tcaron" unicode="&#x164;" 
d="M48 1232v263q147 -4 291 -4q224 0 439 9l9 -280h-252q0 -711 15 -1128l-282 -14q22 710 32 1158zM718 1959l-180 -300h-240l-180 300h200l100 -150l100 150h200z" />
    <glyph glyph-name="tcaron" unicode="&#x165;" horiz-adv-x="1042" 
d="M207 1396l227 15v-331l191 5l3 -189l-194 -9v-455q0 -159 135 -159q28 0 61 7l-9 -220q-48 -6 -91 -6q-316 0 -322 326v489l-164 -10l-4 223l168 -2zM700 1221q111 32 129 123q-77 26 -101 62t-24 81t19 79.5t54.5 52.5t70.5 19h2q33 0 64 -12q31 -13 50.5 -39
t27.5 -55.5t9 -70.5v-4q0 -40 -11 -88q-11 -51 -38 -97t-78.5 -87.5t-153.5 -49.5z" />
    <glyph glyph-name="Uring" unicode="&#x16e;" horiz-adv-x="912" 
d="M864 1516v-989q0 -457 -418 -457h-22q-350 40 -362 383q0 685 -14 1080h266q-10 -226 -10 -531q0 -214 5 -468q2 -186 134 -186q0 -1 1 -1q131 0 131 238l-5 922zM630 1809q0 -83 -58.5 -141.5t-141.5 -58.5t-141.5 58.5t-58.5 141.5t58.5 141.5t141.5 58.5t141.5 -58.5
t58.5 -141.5zM430 1892q-34 0 -58 -24.5t-24 -58.5t24 -58t58 -24t58.5 24t24.5 58t-24.5 58.5t-58.5 24.5z" />
    <glyph glyph-name="uring" unicode="&#x16f;" horiz-adv-x="786" 
d="M559 50l-10 163q-42 -130 -226 -131q-2 -1 -3 -1q-182 0 -241 164q-40 109 -40 451q0 176 11 415h243q-20 -336 -20 -517q0 -91 5 -142q15 -156 101 -156t108 81l-10 694l235 2q0 -430 31 -1002zM591 1400q0 -83 -58.5 -141.5t-141.5 -58.5t-141.5 58.5t-58.5 141.5
t58.5 141.5t141.5 58.5t141.5 -58.5t58.5 -141.5zM391 1483q-34 0 -58 -24.5t-24 -58.5t24 -58t58 -24t58.5 24t24.5 58t-24.5 58.5t-58.5 24.5z" />
    <glyph glyph-name="Ydieresis" unicode="&#x178;" 
d="M304 75l11 620q-228 482 -352 784l282 29l191 -558q129 402 207 599h273q-245 -603 -352 -873v-589zM234 1654q-60 0 -103 43t-43 103q0 61 43 104t103 43q61 0 104 -43t43 -104q0 -60 -43 -103t-104 -43zM644 1654q-60 0 -103 43t-43 103q0 61 43 104t103 43
q61 0 104 -43t43 -104q0 -60 -43 -103t-104 -43z" />
    <glyph glyph-name="Zcaron" unicode="&#x17d;" horiz-adv-x="826" 
d="M61 1252l14 260q473 6 685 6v-263q-264 -513 -432 -858q116 -3 220 -3q121 0 226 4l10 -279q-265 11 -712 11l-21 292q290 502 434 832zM718 1959l-180 -300h-240l-180 300h200l100 -150l100 150h200z" />
    <glyph glyph-name="zcaron" unicode="&#x17e;" horiz-adv-x="685" 
d="M45 1082q88 -2 197 -2q175 0 405 5l5 -204l-356 -600h356l-3 -219q-251 0 -611 -10l-8 194l373 635q-179 0 -353 -13zM642 1501l-180 -300h-240l-180 300h200l100 -150l100 150h200z" />
    <glyph glyph-name="florin" unicode="&#x192;" horiz-adv-x="699" 
d="M431 842q3 -302 3 -491q0 -188 -3 -262q-10 -280 -118 -380q-95 -88 -277 -88q-27 0 -56 2l-28 254q42 -7 76 -7q95 0 131 55q47 73 47 305v10q-12 343 -12 522v65l-162 -8l-4 215l158 7q-2 27 -2 55q0 94 19 193q23 129 140 206q87 58 220 58q44 0 94 -7l-2 -219
q-30 4 -56 4q-83 0 -122 -41q-43 -43 -43 -168q0 -30 3 -66l214 3v-203z" />
    <glyph glyph-name="circumflex" unicode="&#x2c6;" horiz-adv-x="690" 
d="M50 1250l180 300h240l180 -300h-200l-100 150l-100 -150h-200z" />
    <glyph glyph-name="caron" unicode="&#x2c7;" horiz-adv-x="690" 
d="M650 1550l-180 -300h-240l-180 300h200l100 -150l100 150h200z" />
    <glyph glyph-name="breve" unicode="&#x2d8;" horiz-adv-x="690" 
d="M50 1550h180q0 -120 120 -120t120 120h180q0 -300 -300 -300t-300 300z" />
    <glyph glyph-name="dotaccent" unicode="&#x2d9;" horiz-adv-x="368" 
d="M186 1245q-60 0 -103 43t-43 103q0 61 43 104t103 43q61 0 104 -43t43 -104q0 -60 -43 -103t-104 -43z" />
    <glyph glyph-name="ring" unicode="&#x2da;" horiz-adv-x="490" 
d="M450 1400q0 -83 -58.5 -141.5t-141.5 -58.5t-141.5 58.5t-58.5 141.5t58.5 141.5t141.5 58.5t141.5 -58.5t58.5 -141.5zM250 1483q-34 0 -58 -24.5t-24 -58.5t24 -58t58 -24t58.5 24t24.5 58t-24.5 58.5t-58.5 24.5z" />
    <glyph glyph-name="ogonek" unicode="&#x2db;" horiz-adv-x="460" 
d="M250 0q-70 -100 -70 -180q0 -90 70 -90t130 40l40 -110q-70 -60 -170 -60q-200 0 -200 190q0 110 100 210h100z" />
    <glyph glyph-name="tilde" unicode="&#x2dc;" horiz-adv-x="740" 
d="M50 1260q0 300 200 300q100 0 155 -75q46 -62 85 -62q8 0 15 2q45 15 45 135h150q0 -300 -200 -300q-100 0 -160 75q-50 63 -86 63q-7 0 -14 -3q-40 -15 -40 -135h-150z" />
    <glyph glyph-name="hungarumlaut" unicode="&#x2dd;" horiz-adv-x="728" 
d="M18 1301q117 139 192 265l164 -130q-106 -104 -236 -255zM338 1301q117 139 192 265l164 -130q-106 -104 -236 -255z" />
    <glyph glyph-name="tonos" unicode="&#x384;" horiz-adv-x="395" 
d="M18 1301q117 139 192 265l164 -130q-106 -104 -236 -255z" />
    <glyph glyph-name="dieresistonos" unicode="&#x385;" horiz-adv-x="707" 
d="M99 1242q-51 0 -87.5 36.5t-36.5 87.5q0 52 36.5 88.5t87.5 36.5q52 0 88.5 -36.5t36.5 -88.5q0 -51 -36.5 -87.5t-88.5 -36.5zM608 1226q-51 0 -87.5 36.5t-36.5 87.5q0 52 36.5 88.5t87.5 36.5q52 0 88.5 -36.5t36.5 -88.5q0 -51 -36.5 -87.5t-88.5 -36.5zM389 1526
l-159 -304l104 -54l143 299z" />
    <glyph glyph-name="Alphatonos" unicode="&#x386;" horiz-adv-x="960" 
d="M18 1301q117 139 192 265l164 -130q-106 -104 -236 -255zM-18 90q188 854 304 1448l375 6q138 -618 316 -1408l-256 -52l-81 379h-311l-84 -409zM632 744q-52 216 -170 517q-91 -253 -154 -524z" />
    <glyph glyph-name="anoteleia" unicode="&#x387;" horiz-adv-x="381" 
d="M163 1099q-51 0 -87.5 36.5t-36.5 87.5q0 52 36.5 88.5t87.5 36.5q52 0 88.5 -36.5t36.5 -88.5q0 -51 -36.5 -87.5t-88.5 -36.5z" />
    <glyph glyph-name="Epsilontonos" unicode="&#x388;" horiz-adv-x="1302" 
d="M18 1301q117 139 192 265l164 -130q-106 -104 -236 -255zM1187 1490v-282l-395 16v-328l355 10l9 -271h-317v-254h415v-284l-692 10q11 281 11 566q0 395 -21 797q226 9 635 20z" />
    <glyph glyph-name="Etatonos" unicode="&#x389;" horiz-adv-x="856" 
d="M18 1722q117 139 192 265l164 -130q-106 -104 -236 -255zM808 1484q-12 -673 -23 -1450h-227v583h-285v-536l-273 1q12 367 12 718q0 350 -12 684h261l-11 -583l285 -12v619z" />
    <glyph glyph-name="Iotatonos" unicode="&#x38a;" horiz-adv-x="885" 
d="M18 1301q117 139 192 265l164 -130q-106 -104 -236 -255zM825 127l-249 -23q0 734 -24 1378l285 24q-11 -679 -12 -1379z" />
    <glyph glyph-name="Omicrontonos" unicode="&#x38c;" horiz-adv-x="1122" 
d="M18 1301q117 139 192 265l164 -130q-106 -104 -236 -255zM677 1524q421 0 421 -720q0 -721 -451 -721t-451 747q0 694 481 694zM477 777q-1 -26 -1 -50q0 -377 176 -377q187 0 187 427t-174 427q-175 0 -188 -427z" />
    <glyph glyph-name="Upsilontonos" unicode="&#x38e;" horiz-adv-x="1424" 
d="M18 1301q117 139 192 265l164 -130q-106 -104 -236 -255zM893 75l11 620q-228 482 -352 784l282 29l191 -558q129 402 207 599h273q-245 -603 -352 -873v-589z" />
    <glyph glyph-name="Omegatonos" unicode="&#x38f;" horiz-adv-x="1132" 
d="M18 1301q117 139 192 265l164 -130q-106 -104 -236 -255zM546 508h90v-508h-440v255h227v44q-217 137 -217 608q0 617 458 617q402 0 402 -640q0 -315 -104 -475v-154h227v-255h-440v508h14l-6 37q62 92 62 315q0 380 -166 380q-167 0 -179 -380q-1 -23 -1 -44
q0 -225 75 -299z" />
    <glyph glyph-name="iotadieresistonos" unicode="&#x390;" horiz-adv-x="335" 
d="M52 45q-7 585 -7 1011l252 15q-12 -408 -12 -811q0 -108 1 -215h-234zM-80 1242q-51 0 -87.5 36.5t-36.5 87.5q0 52 36.5 88.5t87.5 36.5q52 0 88.5 -36.5t36.5 -88.5q0 -51 -36.5 -87.5t-88.5 -36.5zM429 1226q-51 0 -87.5 36.5t-36.5 87.5q0 52 36.5 88.5t87.5 36.5
q52 0 88.5 -36.5t36.5 -88.5q0 -51 -36.5 -87.5t-88.5 -36.5zM210 1526l-159 -304l104 -54l143 299z" />
    <glyph glyph-name="Alpha" unicode="&#x391;" horiz-adv-x="960" 
d="M-18 90q188 854 304 1448l375 6q138 -618 316 -1408l-256 -52l-81 379h-311l-84 -409zM632 744q-52 216 -170 517q-91 -253 -154 -524z" />
    <glyph glyph-name="Beta" unicode="&#x392;" horiz-adv-x="917" 
d="M312 1309l7 -429q186 10 236 127q27 62 27 122q0 50 -20 99q-35 85 -179 85q-32 0 -71 -4zM331 674v-335q23 -1 44 -1q186 0 235 102q27 57 27 103q0 45 -26 79q-43 55 -200 55q-37 0 -80 -3zM55 85q4 279 4 549q0 466 -12 905q170 18 298 18q235 0 326 -61
q140 -94 158 -254q4 -41 4 -79q0 -109 -37 -189q-51 -109 -181 -156q145 -22 208 -105q53 -70 53 -200q0 -25 -2 -52q-12 -170 -107.5 -254t-265.5 -115q-96 -17 -225 -17q-101 0 -221 10z" />
    <glyph glyph-name="Gamma" unicode="&#x393;" horiz-adv-x="731" 
d="M683 1511v-282l-395 15l47 -1130l-277 13q11 281 11 566q0 395 -21 797q226 10 635 21z" />
    <glyph glyph-name="uni0394" unicode="&#x394;" horiz-adv-x="913" 
d="M271 119l-4 -25l-292 30q167 735 289 1409l352 -11q97 -407 289 -1236h17v-73q3 -15 7 -30l-7 -1v-63h-651zM627 286q-77 412 -189 904l-141 -904h330z" />
    <glyph glyph-name="Epsilon" unicode="&#x395;" horiz-adv-x="798" 
d="M683 1490v-282l-395 16v-328l355 10l9 -271h-317v-254h415v-284l-692 10q11 281 11 566q0 395 -21 797q226 9 635 20z" />
    <glyph glyph-name="Zeta" unicode="&#x396;" horiz-adv-x="826" 
d="M61 1252l14 260q473 6 685 6v-263q-264 -513 -432 -858q116 -3 220 -3q121 0 226 4l10 -279q-265 11 -712 11l-21 292q290 502 434 832z" />
    <glyph glyph-name="Eta" unicode="&#x397;" horiz-adv-x="904" 
d="M856 1484q-12 -673 -23 -1450h-227v583h-285v-536l-273 1q12 367 12 718q0 350 -12 684h261l-11 -583l285 -12v619z" />
    <glyph glyph-name="Theta" unicode="&#x398;" horiz-adv-x="952" 
d="M507 1524q421 0 421 -720q0 -721 -451 -721t-451 747q0 694 481 694zM307 777q-1 -26 -1 -50q0 -377 176 -377q187 0 187 427t-174 427q-175 0 -188 -427zM612 866v-191h-231v191h231z" />
    <glyph glyph-name="Iota" unicode="&#x399;" horiz-adv-x="381" 
d="M321 127l-249 -23q0 734 -24 1378l285 24q-11 -679 -12 -1379z" />
    <glyph glyph-name="Kappa" unicode="&#x39a;" horiz-adv-x="904" 
d="M305 1473l-4 -625q167 322 309 589l280 -16q-141 -262 -386 -647q124 -255 373 -703l-318 -4q-92 233 -272 586v-534l-239 -4q7 532 7 1338z" />
    <glyph glyph-name="Lambda" unicode="&#x39b;" horiz-adv-x="913" 
d="M616 1522q103 -432 313 -1339l-277 -34q-83 466 -214 1041l-171 -1096l-292 30q167 735 289 1409z" />
    <glyph glyph-name="Mu" unicode="&#x39c;" horiz-adv-x="1307" 
d="M396 1533l233 -1036l171 960l456 -5q-12 -325 -12 -656q0 -369 15 -747l-291 -20q0 398 -9 973l-163 -879l-310 -21l-200 948l-4 -960l-244 -17q7 329 7 653q0 404 -11 798z" />
    <glyph glyph-name="Nu" unicode="&#x39d;" horiz-adv-x="947" 
d="M52 79q12 342 12 666q0 374 -16 725l294 14l270 -753q-4 388 -22 794l309 4q-46 -613 -46 -1238q0 -84 1 -168l-271 -3l-288 806q13 -446 24 -829z" />
    <glyph glyph-name="Xi" unicode="&#x39e;" horiz-adv-x="798" 
d="M372 1476q155 6 311 14v-282l-182 14q-6 -163 -8 -325l150 9l9 -271h-134v-254h232v-284l-378 7l-379 -7v284h232v254h-134l9 271l150 -9q-2 162 -8 325l-182 -14v282q156 -8 312 -14z" />
    <glyph glyph-name="Omicron" unicode="&#x39f;" horiz-adv-x="952" 
d="M507 1524q421 0 421 -720q0 -721 -451 -721t-451 747q0 694 481 694zM307 777q-1 -26 -1 -50q0 -377 176 -377q187 0 187 427t-174 427q-175 0 -188 -427z" />
    <glyph glyph-name="Pi" unicode="&#x3a0;" horiz-adv-x="904" 
d="M856 1484q-12 -673 -23 -1450h-227v1179h-285v-1132l-273 1q12 367 12 718q0 350 -12 684h261l-11 13l285 -12v23z" />
    <glyph glyph-name="Rho" unicode="&#x3a1;" horiz-adv-x="879" 
d="M56 80q6 263 6 538q0 422 -14 874q171 24 302 24q206 0 310 -60q161 -93 161 -381v-33q-10 -316 -143 -404.5t-328 -94.5q-1 -31 -1 -64q0 -166 17 -393zM312 1260l7 -489q186 10 218 133q15 56 15 115q0 69 -20 142q-30 107 -150 107q-32 0 -70 -8z" />
    <glyph glyph-name="Sigma" unicode="&#x3a3;" horiz-adv-x="826" 
d="M541 834h4q-123 -245 -217 -437q116 -3 220 -3q121 0 226 4l10 -279q-265 11 -712 11l-21 292q129 223 229 412h-4q-98 194 -215 421v263q212 0 685 -6l14 -260l-424 2q80 -183 205 -420z" />
    <glyph glyph-name="Tau" unicode="&#x3a4;" 
d="M48 1232v263q147 -4 291 -4q224 0 439 9l9 -280h-252q0 -711 15 -1128l-282 -14q22 710 32 1158z" />
    <glyph glyph-name="Upsilon" unicode="&#x3a5;" 
d="M304 75l11 620q-228 482 -352 784l282 29l191 -558q129 402 207 599h273q-245 -603 -352 -873v-589z" />
    <glyph glyph-name="Phi" unicode="&#x3a6;" horiz-adv-x="1364" 
d="M797 1040l7 -489q186 10 218 133q15 56 15 115q0 69 -20 142q-30 107 -150 107q-32 0 -70 -8zM533 550l-7 489q-186 -10 -218 -133q-15 -56 -15 -115q0 -69 20 -142q30 -107 150 -107q32 0 70 8zM541 80q1 113 1 229q-67 -18 -130 -18q-117 0 -227 63q-161 93 -161 381
v33q10 316 143 404.5t348 94.5l-6 237l274 6h6q-1 -113 -1 -229q67 18 130 18q117 0 227 -63q161 -93 161 -381v-33q-10 -316 -143 -404.5t-348 -94.5l6 -237l-274 -6h-6z" />
    <glyph glyph-name="Chi" unicode="&#x3a7;" horiz-adv-x="913" 
d="M293 1513l181 -530l166 529l267 -13q-75 -216 -236 -683q90 -290 245 -729l-281 -28l-168 560l-169 -536l-284 40q106 284 257 693l-265 654z" />
    <glyph glyph-name="Psi" unicode="&#x3a8;" horiz-adv-x="1391" 
d="M715 24l-157 -8l20 279q2 76 4 149q-36 -56 -194 -57q-3 -1 -4 -1q-208 0 -275 182q-46 121 -46 502q0 196 13 462h277q-23 -374 -23 -575q0 -102 6 -159q17 -173 116 -173q98 0 123 90l-11 772l34 1v2l117 -1l117 1v-2l34 -1l-11 -772q25 -90 123 -90q99 0 116 173
q6 57 6 159q0 201 -23 575h277q13 -266 13 -462q0 -381 -46 -502q-67 -182 -275 -182q-1 0 -4 1q-158 1 -194 57q2 -73 4 -149l20 -279z" />
    <glyph glyph-name="uni03A9" unicode="&#x3a9;" horiz-adv-x="952" 
d="M366 508h90v-508h-440v255h227v44q-217 137 -217 608q0 617 458 617q402 0 402 -640q0 -315 -104 -475v-154h227v-255h-440v508h14l-6 37q62 92 62 315q0 380 -166 380q-167 0 -179 -380q-1 -23 -1 -44q0 -225 75 -299z" />
    <glyph glyph-name="Iotadieresis" unicode="&#x3aa;" horiz-adv-x="381" 
d="M321 127l-249 -23q0 734 -24 1378l285 24q-11 -679 -12 -1379zM-15 1654q-60 0 -103 43t-43 103q0 61 43 104t103 43q61 0 104 -43t43 -104q0 -60 -43 -103t-104 -43zM395 1654q-60 0 -103 43t-43 103q0 61 43 104t103 43q61 0 104 -43t43 -104q0 -60 -43 -103t-104 -43z
" />
    <glyph glyph-name="Upsilondieresis" unicode="&#x3ab;" 
d="M304 75l11 620q-228 482 -352 784l282 29l191 -558q129 402 207 599h273q-245 -603 -352 -873v-589zM234 1654q-60 0 -103 43t-43 103q0 61 43 104t103 43q61 0 104 -43t43 -104q0 -60 -43 -103t-104 -43zM644 1654q-60 0 -103 43t-43 103q0 61 43 104t103 43
q61 0 104 -43t43 -104q0 -60 -43 -103t-104 -43z" />
    <glyph glyph-name="alphatonos" unicode="&#x3ac;" 
d="M791 1047q-1 -143 -1 -291q0 -338 5 -704l-237 -1l-8 153q-74 -111 -197 -111q-307 0 -307 470q0 10 1 20q6 471 304 471q12 0 25 -1q102 -6 165 -111q0 50 -1 105h251zM546 409l-5 346q-58 79 -119 79q-25 0 -50 -13q-79 -41 -79 -230q0 -22 1 -45q10 -229 102 -242
q9 -1 18 -1q80 0 132 106zM302 1301q117 139 192 265l164 -130q-106 -104 -236 -255z" />
    <glyph glyph-name="epsilontonos" unicode="&#x3ad;" horiz-adv-x="707" 
d="M444 749q1 19 1 35q0 140 -88 145h-11q-89 0 -96 -88q-2 -15 -2 -30q0 -74 37 -120q39 -49 144 -49h27l-10 -131q-120 0 -172 -54q-38 -40 -38 -94q0 -20 5 -41q18 -76 105 -76q6 0 13 1q92 5 92 150q0 11 -1 22l217 -10v-4q0 -205 -88 -267q-85 -61 -226 -61h-14
q-150 3 -222.5 65.5t-85.5 149.5q-6 39 -6 73q0 41 9 76q15 62 54 99t117 46q-94 26 -135 76q-37 45 -37 143v21q4 113 59.5 178t148.5 83q48 10 101 10q52 0 109 -9q116 -18 167 -94q41 -59 41 -169q0 -32 -4 -68zM227 1301q117 139 192 265l164 -130q-106 -104 -236 -255z
" />
    <glyph glyph-name="etatonos" unicode="&#x3ae;" horiz-adv-x="786" 
d="M224 1103l10 -163q42 130 221 132h4q176 0 240 -138q44 -94 44 -440q0 -170 -27 -719h-242q29 626 29 796q0 85 -3 136q-10 150 -96 150t-108 -80l10 -725l-235 -2q0 460 -31 1033zM273 1301q117 139 192 265l164 -130q-106 -104 -236 -255z" />
    <glyph glyph-name="iotatonos" unicode="&#x3af;" horiz-adv-x="335" 
d="M52 45q-7 585 -7 1011l252 15q-12 -408 -12 -811q0 -108 1 -215h-234zM52 1301q117 139 192 265l164 -130q-106 -104 -236 -255z" />
    <glyph glyph-name="upsilondieresistonos" unicode="&#x3b0;" horiz-adv-x="842" 
d="M780 1092v-699q0 -323 -374 -323h-20q-314 28 -324 271q0 484 -13 763h238q-9 -160 -9 -375q0 -152 5 -331q2 -132 120 -132h1q117 0 117 168l-4 652zM163 1242q-51 0 -87.5 36.5t-36.5 87.5q0 52 36.5 88.5t87.5 36.5q52 0 88.5 -36.5t36.5 -88.5q0 -51 -36.5 -87.5
t-88.5 -36.5zM672 1226q-51 0 -87.5 36.5t-36.5 87.5q0 52 36.5 88.5t87.5 36.5q52 0 88.5 -36.5t36.5 -88.5q0 -51 -36.5 -87.5t-88.5 -36.5zM453 1526l-159 -304l104 -54l143 299z" />
    <glyph glyph-name="alpha" unicode="&#x3b1;" 
d="M791 1047q-1 -143 -1 -291q0 -338 5 -704l-237 -1l-8 153q-74 -111 -197 -111q-307 0 -307 470q0 10 1 20q6 471 304 471q12 0 25 -1q102 -6 165 -111q0 50 -1 105h251zM546 409l-5 346q-58 79 -119 79q-25 0 -50 -13q-79 -41 -79 -230q0 -22 1 -45q10 -229 102 -242
q9 -1 18 -1q80 0 132 106z" />
    <glyph glyph-name="beta" unicode="&#x3b2;" horiz-adv-x="891" 
d="M286 -387l-246 -4l1 1527q11 373 258 404q66 8 122 8q156 0 240 -62q115 -84 133 -244q4 -41 4 -79q0 -109 -37 -189q-51 -109 -181 -156q145 -22 208 -105q53 -70 53 -200q0 -25 -2 -52q-12 -170 -107.5 -254t-265.5 -115q-50 -9 -100 -14l-3 260q164 3 212 102
q27 57 27 103q0 45 -26 79q-42 55 -191 55h-26l-2 230q122 4 168 110q23 54 23 106q0 49 -21 95q-40 88 -133 88h-13q-95 -6 -95 -157q0 -14 1 -30z" />
    <glyph glyph-name="gamma" unicode="&#x3b3;" horiz-adv-x="755" 
d="M238 76h-12q-126 579 -226 994l243 13l123 -727q96 408 153 744l239 -30q-113 -419 -263 -990h-26v-278h-231v274z" />
    <glyph glyph-name="delta" unicode="&#x3b4;" horiz-adv-x="747" 
d="M359 849q-63 -22 -86 -163q-14 -84 -14 -169q0 -57 6 -115q16 -144 103 -149h7q81 0 111 107q25 89 25 211q0 30 -1 61q-8 161 -48 201q-25 24 -60 24q-20 0 -43 -8zM399 1077q333 -5 333 -472q0 -19 -1 -38q-14 -511 -362 -516q-4 -1 -8 -1q-331 0 -331 483v28
q7 352 173 464l-108 191l63 206l271 8l119 104l119 -120l-127 -166l-239 8z" />
    <glyph glyph-name="epsilon" unicode="&#x3b5;" horiz-adv-x="707" 
d="M444 749q1 19 1 35q0 140 -88 145h-11q-89 0 -96 -88q-2 -15 -2 -30q0 -74 37 -120q39 -49 144 -49h27l-10 -131q-120 0 -172 -54q-38 -40 -38 -94q0 -20 5 -41q18 -76 105 -76q6 0 13 1q92 5 92 150q0 11 -1 22l217 -10v-4q0 -205 -88 -267q-85 -61 -226 -61h-14
q-150 3 -222.5 65.5t-85.5 149.5q-6 39 -6 73q0 41 9 76q15 62 54 99t117 46q-94 26 -135 76q-37 45 -37 143v21q4 113 59.5 178t148.5 83q48 10 101 10q52 0 109 -9q116 -18 167 -94q41 -59 41 -169q0 -32 -4 -68z" />
    <glyph glyph-name="zeta" unicode="&#x3b6;" horiz-adv-x="707" 
d="M366 1117l2 -11q-5 2 -11 2h-11q-89 0 -96 -104q-2 -18 -2 -35q0 -87 -6 -275.5t-6 -252.5q0 -23 5 -48q18 -89 105 -89q6 0 13 1q10 1 18 3v12q119 -7 194 -70q88 -74 88 -314v-5l-217 -12q1 13 1 26q0 135 -58 167v-6q-16 -1 -32 -1h-14q-150 3 -222.5 77t-85.5 176
q-6 46 -6 86q0 48 4 225t4 292v25q4 133 59.5 209.5t148.5 98.5q27 7 55 9l1 5q34 7 53 42h-286v176h516v-16l4 -1q4 -42 4 -80q0 -129 -41 -199q-51 -90 -167 -111z" />
    <glyph glyph-name="eta" unicode="&#x3b7;" horiz-adv-x="786" 
d="M224 1103l10 -163q42 130 221 132h4q176 0 240 -138q44 -94 44 -440q0 -170 -27 -719h-242q29 626 29 796q0 85 -3 136q-10 150 -96 150t-108 -80l10 -725l-235 -2q0 460 -31 1033z" />
    <glyph glyph-name="theta" unicode="&#x3b8;" horiz-adv-x="803" 
d="M570 906q-20 298 -144 298t-153 -298h297zM266 675q10 -325 149 -325t156 325h-305zM436 1524q359 0 359 -720q0 -721 -384 -721q-385 0 -385 747q0 694 410 694z" />
    <glyph glyph-name="iota" unicode="&#x3b9;" horiz-adv-x="335" 
d="M52 45q-7 585 -7 1011l252 15q-12 -408 -12 -811q0 -108 1 -215h-234z" />
    <glyph glyph-name="kappa" unicode="&#x3ba;" horiz-adv-x="808" 
d="M285 1092l-4 -394q137 212 259 409l230 -26q-181 -252 -316 -477q114 -205 313 -533l-248 -24q-112 243 -252 456v-384l-219 -4q7 532 7 957z" />
    <glyph glyph-name="lambda" unicode="&#x3bb;" horiz-adv-x="803" 
d="M57.5 663.5q6.5 172.5 77.5 268t200 101.5h14q118 0 175 -90v16q0 135 -64 196q-62 59 -230 59q-18 0 -37 -1l28 244q26 2 51 2q217 0 337 -118q133 -130 143 -380q6 -139 6 -412q0 -219 -4 -524l-246 18q8 261 8 426q0 206 -12 261q-22 94 -104 94q-5 0 -11 -1
q-92 -6 -96 -220q-2 -58 -2 -131q0 -194 9 -494l-262 21q13 492 19.5 664.5z" />
    <glyph glyph-name="uni03BC" unicode="&#x3bc;" horiz-adv-x="786" 
d="M559 50l-10 133q-52 -100 -129 -110q-10 -2 -20 -2q-64 0 -111 59l1 -460l-250 -10q13 509 13 995q0 231 -3 456h233q-5 -252 -5 -416q0 -163 5 -238q10 -151 96 -151t108 81l-10 684l235 2q0 -430 31 -1002z" />
    <glyph glyph-name="nu" unicode="&#x3bd;" horiz-adv-x="755" 
d="M226 76q-126 579 -226 994l243 13l123 -727q96 408 153 744l239 -30q-113 -419 -263 -990z" />
    <glyph glyph-name="xi" unicode="&#x3be;" horiz-adv-x="707" 
d="M377 341v13q119 -8 194 -76q88 -80 88 -341v-5l-217 -13q1 14 1 28q0 147 -58 181v-6q-16 -1 -32 -1h-14q-150 3 -222.5 83t-85.5 191q-6 50 -6 93q0 52 9 97q15 79 54 126.5t117 58.5q-94 33 -135 97q-37 57 -37 182v27q4 144 59.5 227t148.5 106q48 13 101 13
q52 0 109 -11q116 -23 167 -120q41 -76 41 -216q0 -41 -4 -87l-211 -10q1 24 1 45q0 178 -88 185h-11q-89 0 -96 -113q-2 -19 -2 -38q0 -94 37 -153q39 -63 144 -63h27l-10 -167q-120 0 -172 -69q-38 -51 -38 -120q0 -25 5 -52q18 -97 105 -97q6 0 13 1q10 1 18 4z" />
    <glyph glyph-name="omicron" unicode="&#x3bf;" horiz-adv-x="747" 
d="M392 1077q340 0 340 -472q0 -19 -1 -38q-14 -511 -362 -516q-4 -1 -8 -1q-331 0 -331 483v28q10 516 362 516zM359 849q-63 -22 -86 -163q-14 -84 -14 -169q0 -57 6 -115q16 -144 103 -149h7q81 0 111 107q25 89 25 211q0 30 -1 61q-8 161 -48 201q-25 24 -60 24
q-20 0 -43 -8z" />
    <glyph glyph-name="pi" unicode="&#x3c0;" horiz-adv-x="826" 
d="M803 1080q-11 -486 -21 -1046h-213v850h-266v-816l-255 1q11 264 11 517t-11 494h244l-10 9l266 -9v17z" />
    <glyph glyph-name="rho" unicode="&#x3c1;" 
d="M46 -349q6 337 -2 1003q-16 306 445 399q307 0 307 -485v-20q-7 -486 -306 -486q-12 0 -24 1q-102 5 -165 111q0 -222 11 -523h-266zM296 736l5 -376q58 -79 117 -79q24 0 48 14q73 40 73 239q0 24 -1 50q-10 244 -97 257q-9 1 -17 1q-76 0 -128 -106z" />
    <glyph glyph-name="sigma1" unicode="&#x3c2;" horiz-adv-x="710" 
d="M28 405l229 11v-13q0 -154 95 -156h4q92 0 92 89v7q-4 98 -181.5 158t-213.5 202q-13 50 -13 96q0 84 43 156q66 110 200 126q36 4 70 4q89 0 157 -31q93 -43 129 -123q24 -55 24 -122q0 -32 -5 -66l-214 -5q3 25 3 46q0 100 -64 107q-7 1 -14 1q-66 0 -89 -67
q-8 -23 -8 -42q0 -47 44 -81q62 -48 183.5 -97.5t163.5 -168.5q15 -45 15 -90q0 -76 -44 -153q-70 -123 -217 -143q-32 -5 -63 -5q-110 0 -204 57q-120 73 -122 303z" />
    <glyph glyph-name="sigma" unicode="&#x3c3;" horiz-adv-x="946" 
d="M359 849q-63 -22 -86 -163q-14 -84 -14 -169q0 -57 6 -115q16 -144 103 -149h7q81 0 111 107q25 89 25 211q0 30 -1 61q-8 161 -48 201q-25 24 -60 24q-20 0 -43 -8zM700 850q32 -100 32 -245q0 -19 -1 -38q-14 -511 -362 -516q-4 -1 -8 -1q-331 0 -331 483v28
q10 514 359 516v4h509v-231h-198z" />
    <glyph glyph-name="tau" unicode="&#x3c4;" horiz-adv-x="699" 
d="M48 898v187q120 -2 238 -2q183 0 359 6l7 -199h-206q0 -506 12 -802l-230 -10q18 505 26 823z" />
    <glyph glyph-name="upsilon" unicode="&#x3c5;" horiz-adv-x="842" 
d="M779 1092v-699q0 -323 -374 -323h-20q-314 28 -324 271q0 484 -13 763h238q-9 -160 -9 -375q0 -152 5 -331q2 -132 120 -132h1q117 0 117 168l-4 652z" />
    <glyph glyph-name="phi" unicode="&#x3c6;" horiz-adv-x="1304" 
d="M784 972q69 81 174 81q307 0 307 -485v-20q-7 -486 -306 -486q-12 0 -24 1q-91 4 -151 90q1 -284 5 -502h-274q4 218 5 502q-60 -86 -151 -90q-12 -1 -24 -1q-299 0 -306 486v20q0 485 307 485q105 0 174 -81q-2 255 -4 542h29v1h214v-1h29q-2 -287 -4 -542zM521 343v426
q-47 73 -110 73q-8 0 -17 -1q-87 -13 -97 -257q-1 -26 -1 -50q0 -199 73 -239q24 -14 48 -14q52 0 104 62zM783 769v-426q52 -62 104 -62q24 0 48 14q73 40 73 239q0 24 -1 50q-10 244 -97 257q-9 1 -17 1q-63 0 -110 -73z" />
    <glyph glyph-name="chi" unicode="&#x3c7;" horiz-adv-x="812" 
d="M291 1095l105 -538l104 542l264 -42q-92 -267 -196 -651q92 -331 203 -678l-258 -38l-126 527l-120 -523l-245 44q107 333 202 654l-196 648z" />
    <glyph glyph-name="psi" unicode="&#x3c8;" horiz-adv-x="1216" 
d="M610 -244l-138 -7l18 250q2 69 3 134q-32 -50 -170 -51q-2 -1 -3 -1q-182 0 -241 164q-40 109 -40 451q0 176 11 415h243q-20 -336 -20 -517q0 -91 5 -142q15 -156 101 -156t108 81l-10 694h30v2l102 -1l103 1v-2h30l-10 -694q22 -81 108 -81t101 156q5 51 5 142
q0 181 -20 517h243q11 -239 11 -415q0 -342 -40 -451q-59 -164 -241 -164q-1 0 -3 1q-138 1 -170 51q1 -65 3 -134l18 -250z" />
    <glyph glyph-name="omega" unicode="&#x3c9;" horiz-adv-x="1240" 
d="M730 648h1q1 -21 1 -43q0 -19 -1 -38q-1 -23 -2 -45q4 -91 24 -162q30 -107 111 -107h7q87 5 103 149q6 58 6 115q0 85 -14 169q-23 141 -86 163q-23 8 -43 8q-8 0 -15 -1l-3 220q14 1 28 1q352 0 362 -516v-28q0 -483 -331 -483q-4 0 -8 1q-161 2 -250 113
q-90 -111 -251 -113q-4 -1 -8 -1q-331 0 -331 483v28q10 516 362 516q14 0 28 -1l-3 -220q-7 1 -15 1q-20 0 -43 -8q-63 -22 -86 -163q-14 -84 -14 -169q0 -57 6 -115q16 -144 103 -149h7q81 0 111 107q20 71 24 162q-1 22 -2 45q-1 19 -1 38q0 22 1 43h1v3l111 -1l110 1v-3
z" />
    <glyph glyph-name="iotadieresis" unicode="&#x3ca;" horiz-adv-x="335" 
d="M53 45q-7 585 -7 1011l252 15q-12 -408 -12 -811q0 -108 1 -215h-234zM-34 1245q-60 0 -103 43t-43 103q0 61 43 104t103 43q61 0 104 -43t43 -104q0 -60 -43 -103t-104 -43zM376 1245q-60 0 -103 43t-43 103q0 61 43 104t103 43q61 0 104 -43t43 -104q0 -60 -43 -103
t-104 -43z" />
    <glyph glyph-name="upsilondieresis" unicode="&#x3cb;" horiz-adv-x="842" 
d="M779 1092v-699q0 -323 -374 -323h-20q-314 28 -324 271q0 484 -13 763h238q-9 -160 -9 -375q0 -152 5 -331q2 -132 120 -132h1q117 0 117 168l-4 652zM208 1245q-60 0 -103 43t-43 103q0 61 43 104t103 43q61 0 104 -43t43 -104q0 -60 -43 -103t-104 -43zM618 1245
q-60 0 -103 43t-43 103q0 61 43 104t103 43q61 0 104 -43t43 -104q0 -60 -43 -103t-104 -43z" />
    <glyph glyph-name="omicrontonos" unicode="&#x3cc;" horiz-adv-x="747" 
d="M392 1077q340 0 340 -472q0 -19 -1 -38q-14 -511 -362 -516q-4 -1 -8 -1q-331 0 -331 483v28q10 516 362 516zM359 849q-63 -22 -86 -163q-14 -84 -14 -169q0 -57 6 -115q16 -144 103 -149h7q81 0 111 107q25 89 25 211q0 30 -1 61q-8 161 -48 201q-25 24 -60 24
q-20 0 -43 -8zM262 1301q117 139 192 265l164 -130q-106 -104 -236 -255z" />
    <glyph glyph-name="upsilontonos" unicode="&#x3cd;" horiz-adv-x="842" 
d="M779 1092v-699q0 -323 -374 -323h-20q-314 28 -324 271q0 484 -13 763h238q-9 -160 -9 -375q0 -152 5 -331q2 -132 120 -132h1q117 0 117 168l-4 652zM295 1301q117 139 192 265l164 -130q-106 -104 -236 -255z" />
    <glyph glyph-name="omegatonos" unicode="&#x3ce;" horiz-adv-x="1240" 
d="M730 648h1q1 -21 1 -43q0 -19 -1 -38q-1 -23 -2 -45q4 -91 24 -162q30 -107 111 -107h7q87 5 103 149q6 58 6 115q0 85 -14 169q-23 141 -86 163q-23 8 -43 8q-8 0 -15 -1l-3 220q14 1 28 1q352 0 362 -516v-28q0 -483 -331 -483q-4 0 -8 1q-161 2 -250 113
q-90 -111 -251 -113q-4 -1 -8 -1q-331 0 -331 483v28q10 516 362 516q14 0 28 -1l-3 -220q-7 1 -15 1q-20 0 -43 -8q-63 -22 -86 -163q-14 -84 -14 -169q0 -57 6 -115q16 -144 103 -149h7q81 0 111 107q20 71 24 162q-1 22 -2 45q-1 19 -1 38q0 22 1 43h1v3l111 -1l110 1v-3
zM501 1301q117 139 192 265l164 -130q-106 -104 -236 -255z" />
    <glyph glyph-name="afii10023" unicode="&#x401;" horiz-adv-x="798" 
d="M684 1490v-282l-395 16v-328l355 10l9 -271h-317v-254h415v-284l-692 10q11 281 11 566q0 395 -21 797q226 9 635 20zM194 1654q-60 0 -103 43t-43 103q0 61 43 104t103 43q61 0 104 -43t43 -104q0 -60 -43 -103t-104 -43zM604 1654q-60 0 -103 43t-43 103q0 61 43 104
t103 43q61 0 104 -43t43 -104q0 -60 -43 -103t-104 -43z" />
    <glyph glyph-name="afii10051" unicode="&#x402;" horiz-adv-x="1097" 
d="M537 690q4 -351 13 -598l-282 -14q22 710 32 1158l-252 -4v263q147 -4 291 -4q224 0 439 9l9 -280h-252v-179q65 20 149 20q396 0 396 -599q0 -613 -385 -613q-12 0 -24 1q-55 2 -102 12l27 212q27 -11 62 -11h1q148 0 148 404q0 360 -141 360q-111 0 -129 -137z" />
    <glyph glyph-name="afii10052" unicode="&#x403;" horiz-adv-x="731" 
d="M683 1511v-282l-395 15l47 -1130l-277 13q11 281 11 566q0 395 -21 797q226 10 635 21zM239 1669q117 139 192 265l164 -130q-106 -104 -236 -255z" />
    <glyph glyph-name="afii10053" unicode="&#x404;" horiz-adv-x="885" 
d="M322 715q13 -399 147 -399h1q148 1 148 240v99h248v-75q0 -498 -409 -521q-12 -1 -24 -1q-385 0 -385 740q0 724 396 724q373 0 373 -484q0 -29 -1 -60l-222 -1v27q0 235 -132 235q-122 0 -138 -325h336v-199h-338z" />
    <glyph glyph-name="afii10054" unicode="&#x405;" horiz-adv-x="909" 
d="M52 609l297 20q-6 -62 -6 -112q0 -227 113 -227h4q137 4 137 146v9q-5 151 -259 296q-247 140 -247 462q0 10 1 20q7 337 378 343h8q335 0 335 -427q0 -34 -2 -72l-261 -15q4 45 4 83q0 179 -87 179q-105 0 -115 -107q-1 -15 -1 -30q0 -89 53 -166q61 -89 209.5 -163
t207.5 -203q42 -93 42 -198q0 -40 -6 -82q-23 -151 -128 -250.5t-282 -108.5q-12 -1 -24 -1q-161 0 -269 118q-104 113 -104 411q0 36 2 75z" />
    <glyph glyph-name="afii10055" unicode="&#x406;" horiz-adv-x="381" 
d="M321 127l-249 -23q0 734 -24 1378l285 24q-11 -679 -12 -1379z" />
    <glyph glyph-name="afii10056" unicode="&#x407;" horiz-adv-x="381" 
d="M321 127l-249 -23q0 734 -24 1378l285 24q-11 -679 -12 -1379zM-15 1654q-60 0 -103 43t-43 103q0 61 43 104t103 43q61 0 104 -43t43 -104q0 -60 -43 -103t-104 -43zM395 1654q-60 0 -103 43t-43 103q0 61 43 104t103 43q61 0 104 -43t43 -104q0 -60 -43 -103t-104 -43z
" />
    <glyph glyph-name="afii10057" unicode="&#x408;" horiz-adv-x="912" 
d="M64 689l263 18q-1 -29 -1 -55q0 -223 54 -270q33 -31 71 -31q30 0 62 18q70 39 70 273v23q-4 255 -22 828l285 17q7 -281 7 -496q0 -535 -44 -667q-62 -187 -204 -232q-85 -27 -165 -27q-54 0 -106 13q-129 30 -189.5 129.5t-71.5 210.5q-9 93 -9 206v42z" />
    <glyph glyph-name="afii10058" unicode="&#x409;" horiz-adv-x="1494" 
d="M1002 824q4 -247 13 -494q18 -2 35 -2q120 0 150 107q20 73 20 142q0 59 -15 115q-31 118 -203 132zM730 823v136q0 137 -3 252l-231 -9q1 -110 1 -206q0 -524 -45 -655q-65 -182 -213 -226q-88 -27 -171 -27h-4v259q7 -1 15 -1q30 0 64 17q73 38 73 268v22
q-4 251 -22 813l63 5l-1 39l743 16v-15l35 -1q-17 -227 -17 -393q0 -33 1 -64q195 -6 328 -94.5t143 -404.5v-33q0 -288 -161 -381q-104 -60 -310 -60q-55 0 -117 4q-86 6 -185 20q11 370 14 719z" />
    <glyph glyph-name="afii10059" unicode="&#x40a;" horiz-adv-x="1375" 
d="M914 304q120 0 150 107q20 73 20 142q0 59 -15 115q-32 123 -218 133l-7 -489q38 -8 70 -8zM592 617h-271v-536l-273 1q12 367 12 718q0 350 -12 684h261l-11 -583l285 -12v619l232 -20l83 -2q-17 -227 -17 -393q0 -33 1 -64q195 -6 328 -94.5t143 -404.5v-33
q0 -288 -161 -381q-104 -60 -310 -60q-24 0 -49 1v-23h-227v42l-26 4q8 274 12 537z" />
    <glyph glyph-name="afii10060" unicode="&#x40b;" horiz-adv-x="1097" 
d="M783 48q24 287 24 419q0 360 -141 360q-111 0 -129 -137q4 -351 13 -598l-282 -14q22 710 32 1158l-252 -4v263q147 -4 291 -4q224 0 439 9l9 -280h-252v-179q65 20 149 20q396 0 396 -599q0 -120 -23 -414h-274z" />
    <glyph glyph-name="afii10061" unicode="&#x40c;" horiz-adv-x="904" 
d="M305 1473l-4 -625q167 322 309 589l280 -16q-141 -262 -386 -647q124 -255 373 -703l-318 -4q-92 233 -272 586v-534l-239 -4q7 532 7 1338zM345 1547q117 139 192 265l164 -130q-106 -104 -236 -255z" />
    <glyph glyph-name="afii10062" unicode="&#x40e;" 
d="M105 75l210 620q-228 482 -352 784l282 29l191 -558q129 402 207 599h273q-245 -603 -551 -1462zM114 1869h180q0 -120 120 -120t120 120h180q0 -300 -300 -300t-300 300z" />
    <glyph glyph-name="afii10145" unicode="&#x40f;" horiz-adv-x="904" 
d="M342 47l-44 -2l11 13h-261q12 334 12 684q0 351 -12 718l273 1v-1132h285v1179h227q11 -777 23 -1450l-244 -21v-228h-270v238z" />
    <glyph glyph-name="afii10017" unicode="&#x410;" horiz-adv-x="960" 
d="M-18 90q188 854 304 1448l375 6q138 -618 316 -1408l-256 -52l-81 379h-311l-84 -409zM632 744q-52 216 -170 517q-91 -253 -154 -524z" />
    <glyph glyph-name="afii10018" unicode="&#x411;" horiz-adv-x="917" 
d="M779 1311q-21 2 -46 2q-382 0 -421 -4l7 -326q433 35 504 -167q53 -70 53 -303q0 -25 -2 -52q-12 -170 -107.5 -254t-265.5 -115q-96 -17 -225 -17q-101 0 -221 10q4 279 4 549q0 466 -12 905q170 18 298 18q395 0 434 -2v-244zM331 777v-438q23 -1 44 -1q186 0 235 102
q27 57 27 103q0 148 -26 182q-43 55 -200 55q-37 0 -80 -3z" />
    <glyph glyph-name="afii10019" unicode="&#x412;" horiz-adv-x="917" 
d="M312 1309l7 -429q186 10 236 127q27 62 27 122q0 50 -20 99q-35 85 -179 85q-32 0 -71 -4zM331 674v-335q23 -1 44 -1q186 0 235 102q27 57 27 103q0 45 -26 79q-43 55 -200 55q-37 0 -80 -3zM55 85q4 279 4 549q0 466 -12 905q170 18 298 18q235 0 326 -61
q140 -94 158 -254q4 -41 4 -79q0 -109 -37 -189q-51 -109 -181 -156q145 -22 208 -105q53 -70 53 -200q0 -25 -2 -52q-12 -170 -107.5 -254t-265.5 -115q-96 -17 -225 -17q-101 0 -221 10z" />
    <glyph glyph-name="afii10020" unicode="&#x413;" horiz-adv-x="731" 
d="M683 1511v-282l-395 15l47 -1130l-277 13q11 281 11 566q0 395 -21 797q226 10 635 21z" />
    <glyph glyph-name="afii10021" unicode="&#x414;" horiz-adv-x="1112" 
d="M720 324q10 351 10 620q0 146 -3 267l-231 -9q1 -110 1 -206q0 -524 -45 -655zM136 360q4 1 7 3q73 38 73 268v22q-4 251 -22 813l63 5l-1 39l743 16q-1 -129 -1 -258q0 -482 18 -962l73 -4v-429l-207 -40l-28 252l-600 18v-278l-222 -8v549z" />
    <glyph glyph-name="afii10022" unicode="&#x415;" horiz-adv-x="798" 
d="M683 1490v-282l-395 16v-328l355 10l9 -271h-317v-254h415v-284l-692 10q11 281 11 566q0 395 -21 797q226 9 635 20z" />
    <glyph glyph-name="afii10024" unicode="&#x416;" horiz-adv-x="1476" 
d="M626 880q1 253 1 541l250 29l-4 -625q167 329 309 601l280 -5q-141 -267 -386 -662q124 -250 373 -689l-318 -16q-92 229 -271 574q-1 -253 -1 -540l-250 -30l4 625q-167 -328 -309 -601l-280 5q141 268 386 662q-124 251 -373 689l318 16q92 -229 271 -574z" />
    <glyph glyph-name="afii10025" unicode="&#x417;" horiz-adv-x="824" 
d="M38 995q-4 49 -4 92q0 148 45 228q57 103 186 127q64 12 121 12q59 0 112 -13q104 -25 166 -112.5t66 -240.5v-28q0 -132 -41 -193q-45 -68 -150 -102q87 -13 130.5 -63t59.5 -134q10 -47 10 -102q0 -46 -7 -99q-14 -117 -94.5 -201.5t-248.5 -88.5h-15q-157 0 -251 82
q-98 84 -98 361v5l241 14q-1 -16 -1 -31q0 -195 103 -202q7 -1 14 -1q97 0 116 103q6 29 6 55q0 73 -42 127q-58 73 -191 73l-11 177q16 -1 30 -1q116 0 160 67q41 63 41 162q0 20 -2 40q-8 120 -107 120h-12q-98 -7 -98 -196q0 -22 1 -48z" />
    <glyph glyph-name="afii10026" unicode="&#x418;" horiz-adv-x="947" 
d="M319 1511q-11 -383 -24 -829l288 806l271 -3q-1 -84 -1 -168q0 -625 46 -1238l-309 4q18 406 22 794l-270 -753l-294 14q16 351 16 725q0 324 -12 666z" />
    <glyph glyph-name="afii10027" unicode="&#x419;" horiz-adv-x="947" 
d="M319 1511q-11 -383 -24 -829l288 806l271 -3q-1 -84 -1 -168q0 -625 46 -1238l-309 4q18 406 22 794l-270 -753l-294 14q16 351 16 725q0 324 -12 666zM162 1828h180q0 -120 120 -120t120 120h180q0 -300 -300 -300t-300 300z" />
    <glyph glyph-name="afii10028" unicode="&#x41a;" horiz-adv-x="904" 
d="M305 1473l-4 -625q167 322 309 589l280 -16q-141 -262 -386 -647q124 -255 373 -703l-318 -4q-92 233 -272 586v-534l-239 -4q7 532 7 1338z" />
    <glyph glyph-name="afii10029" unicode="&#x41b;" horiz-adv-x="1033" 
d="M64 347q7 -1 15 -1q30 0 64 17q73 38 73 268v22q-4 251 -22 813l63 5l-1 39l743 16q-1 -129 -1 -258q0 -589 27 -1173l-313 -27q18 512 18 876q0 146 -3 267l-231 -9q1 -110 1 -206q0 -524 -45 -655q-65 -182 -213 -226q-88 -27 -171 -27h-4v259z" />
    <glyph glyph-name="afii10030" unicode="&#x41c;" horiz-adv-x="1307" 
d="M396 1533l233 -1036l171 960l456 -5q-12 -325 -12 -656q0 -369 15 -747l-291 -20q0 398 -9 973l-163 -879l-310 -21l-200 948l-4 -960l-244 -17q7 329 7 653q0 404 -11 798z" />
    <glyph glyph-name="afii10031" unicode="&#x41d;" horiz-adv-x="904" 
d="M856 1484q-12 -673 -23 -1450h-227v583h-285v-536l-273 1q12 367 12 718q0 350 -12 684h261l-11 -583l285 -12v619z" />
    <glyph glyph-name="afii10032" unicode="&#x41e;" horiz-adv-x="952" 
d="M507 1524q421 0 421 -720q0 -721 -451 -721t-451 747q0 694 481 694zM307 777q-1 -26 -1 -50q0 -377 176 -377q187 0 187 427t-174 427q-175 0 -188 -427z" />
    <glyph glyph-name="afii10033" unicode="&#x41f;" horiz-adv-x="904" 
d="M856 1484q-12 -673 -23 -1450h-227v1179h-285v-1132l-273 1q12 367 12 718q0 350 -12 684h261l-11 13l285 -12v23z" />
    <glyph glyph-name="afii10034" unicode="&#x420;" horiz-adv-x="879" 
d="M56 80q6 263 6 538q0 422 -14 874q171 24 302 24q206 0 310 -60q161 -93 161 -381v-33q-10 -316 -143 -404.5t-328 -94.5q-1 -31 -1 -64q0 -166 17 -393zM312 1260l7 -489q186 10 218 133q15 56 15 115q0 69 -20 142q-30 107 -150 107q-32 0 -70 -8z" />
    <glyph glyph-name="afii10035" unicode="&#x421;" horiz-adv-x="885" 
d="M816 978l-222 -1v27q0 235 -132 235q-141 0 -141 -434q0 -489 148 -489h1q148 1 148 240v99h248v-75q0 -498 -409 -521q-12 -1 -24 -1q-385 0 -385 740q0 724 396 724q373 0 373 -484q0 -29 -1 -60z" />
    <glyph glyph-name="afii10036" unicode="&#x422;" 
d="M48 1232v263q147 -4 291 -4q224 0 439 9l9 -280h-252q0 -711 15 -1128l-282 -14q22 710 32 1158z" />
    <glyph glyph-name="afii10037" unicode="&#x423;" 
d="M105 75l210 620q-228 482 -352 784l282 29l191 -558q129 402 207 599h273q-245 -603 -551 -1462z" />
    <glyph glyph-name="afii10038" unicode="&#x424;" horiz-adv-x="1364" 
d="M797 1040l7 -489q186 10 218 133q15 56 15 115q0 69 -20 142q-30 107 -150 107q-32 0 -70 -8zM533 550l-7 489q-186 -10 -218 -133q-15 -56 -15 -115q0 -69 20 -142q30 -107 150 -107q32 0 70 8zM541 80q1 113 1 229q-67 -18 -130 -18q-117 0 -227 63q-161 93 -161 381
v33q10 316 143 404.5t348 94.5l-6 237l274 6h6q-1 -113 -1 -229q67 18 130 18q117 0 227 -63q161 -93 161 -381v-33q-10 -316 -143 -404.5t-348 -94.5l6 -237l-274 -6h-6z" />
    <glyph glyph-name="afii10039" unicode="&#x425;" horiz-adv-x="913" 
d="M293 1513l181 -530l166 529l267 -13q-75 -216 -236 -683q90 -290 245 -729l-281 -28l-168 560l-169 -536l-284 40q106 284 257 693l-265 654z" />
    <glyph glyph-name="afii10040" unicode="&#x426;" horiz-adv-x="1017" 
d="M298 45l11 13h-261q12 334 12 684q0 351 -12 718l273 1v-1132h284v1179h227q9 -611 18 -1158h127v-533h-239v231l-156 -14v23z" />
    <glyph glyph-name="afii10041" unicode="&#x427;" horiz-adv-x="904" 
d="M856 1484q-12 -673 -23 -1450h-227v583h-285q-293 46 -261 183q0 350 -12 684h261l-11 -583l285 -12v619z" />
    <glyph glyph-name="afii10042" unicode="&#x428;" horiz-adv-x="1414" 
d="M840 57l-257 -23v23l-285 -12l11 13h-261q12 334 12 684q0 351 -12 718l273 1v-1132h267q4 204 4 413q0 351 -12 718h26v48h227q0 -24 1 -47h19v-1132h285v1179h227q9 -611 18 -1158l-24 -295l-244 -21v23l-285 -12z" />
    <glyph glyph-name="afii10043" unicode="&#x429;" horiz-adv-x="1534" 
d="M840 57l-257 -23v23l-285 -12l11 13h-261q12 334 12 684q0 351 -12 718l273 1v-1132h267q4 204 4 413q0 351 -12 718h26v48h227q0 -24 1 -47h19v-1132h285v1179h227q9 -611 18 -1158h127v-533h-239v231l-156 -14v23l-285 -12z" />
    <glyph glyph-name="afii10044" unicode="&#x42a;" horiz-adv-x="1065" 
d="M612 328q120 0 150 107q20 73 20 142q0 59 -15 115q-32 123 -218 133l-7 -489q38 -8 70 -8zM286 1510v6l310 -6q-17 -227 -17 -393q0 -33 1 -64q195 -6 328 -94.5t143 -404.5v-33q0 -288 -161 -381q-104 -60 -310 -60q-131 0 -302 24q14 452 14 874q0 156 -2 309h-259
v223h255z" />
    <glyph glyph-name="afii10045" unicode="&#x42b;" horiz-adv-x="1176" 
d="M366 1510q-17 -227 -17 -393q0 -33 1 -64q195 -6 328 -94.5t143 -404.5v-33q0 -288 -161 -381q-104 -60 -310 -60q-131 0 -302 24q14 452 14 874q0 275 -6 538zM382 328q120 0 150 107q20 73 20 142q0 59 -15 115q-32 123 -218 133l-7 -489q38 -8 70 -8zM1115 127
l-249 -23q0 734 -24 1378l285 24q-11 -679 -12 -1379z" />
    <glyph glyph-name="afii10046" unicode="&#x42c;" horiz-adv-x="850" 
d="M366 1510q-17 -227 -17 -393q0 -33 1 -64q195 -6 328 -94.5t143 -404.5v-33q0 -288 -161 -381q-104 -60 -310 -60q-131 0 -302 24q14 452 14 874q0 275 -6 538zM382 328q120 0 150 107q20 73 20 142q0 59 -15 115q-32 123 -218 133l-7 -489q38 -8 70 -8z" />
    <glyph glyph-name="afii10047" unicode="&#x42d;" horiz-adv-x="885" 
d="M294 715v223h295q-20 301 -137 301q-132 0 -132 -235v-27l-222 1q-1 31 -1 60q0 484 373 484q396 0 396 -724q0 -740 -385 -740q-12 0 -24 1q-409 23 -409 521v75h248v-99q0 -239 148 -240h1q134 0 147 399h-298z" />
    <glyph glyph-name="afii10048" unicode="&#x42e;" horiz-adv-x="1373" 
d="M728 777q-1 -26 -1 -50q0 -377 176 -377q187 0 187 427t-174 427q-175 0 -188 -427zM449 922q31 602 479 602q421 0 421 -720q0 -721 -451 -721q-407 0 -447 608h-128q-2 -280 -2 -564l-249 -23q0 734 -24 1378l285 24q-5 -290 -8 -584h124z" />
    <glyph glyph-name="afii10049" unicode="&#x42f;" horiz-adv-x="895" 
d="M532 70q20 273 26 578q-16 3 -31 3q-77 0 -133 -76q-49 -68 -49 -371q0 -100 5 -226l-302 4v43q0 476 64 594q67 122 197 140q-186 59 -244 279q-17 68 -17 132q0 141 88 258q94 125 436 125q123 0 278 -16q-14 -453 -14 -897q0 -290 6 -576zM515 1308q-143 0 -179 -85
q-20 -49 -20 -100q0 -59 27 -121q50 -117 236 -126l7 428q-38 4 -71 4z" />
    <glyph glyph-name="afii10065" unicode="&#x430;" horiz-adv-x="796" 
d="M427 1106q329 -18 329 -331v-710l-233 -4l-8 95q-72 -82 -191 -82q-51 0 -110 16q-177 44 -177 274q0 28 3 60q20 237 337 237q61 0 134 -9v116q0 141 -89 141h-4q-7 1 -13 1q-97 0 -97 -158v-15l-238 20q0 349 336 349h21zM511 316v176q-43 9 -78 9q-91 0 -124 -61
q-20 -37 -20 -69q0 -40 32 -71q25 -24 65 -24q51 0 125 40z" />
    <glyph glyph-name="afii10066" unicode="&#x431;" horiz-adv-x="747" 
d="M359 849q-63 -22 -86 -163q-14 -84 -14 -169q0 -57 6 -115q16 -144 103 -149h7q81 0 111 107q25 89 25 211q0 30 -1 61q-8 161 -48 201q-25 24 -60 24q-20 0 -43 -8zM202 968q96 141 190 109q340 0 340 -472q0 -19 -1 -38q-14 -511 -362 -516q-4 -1 -8 -1
q-331 0 -331 483v28q4 212 19 370t58.5 301.5t87 163t206.5 31t155 130.5l207 -119q-64 -222 -195 -186.5t-254 8t-112 -291.5z" />
    <glyph glyph-name="afii10067" unicode="&#x432;" horiz-adv-x="795" 
d="M278 923l7 -302q162 7 206 90q23 43 23 85q0 35 -17 70q-31 60 -157 60q-28 0 -62 -3zM295 477v-236h38q163 0 206 71q23 40 23 73q0 31 -22 55q-38 39 -175 39q-32 0 -70 -2zM54 63q3 196 3 386q0 327 -10 635q148 13 260 13q205 0 285 -43q122 -66 138 -178
q3 -29 3 -56q0 -76 -32 -133q-44 -76 -158 -109q127 -16 182 -74q46 -49 46 -140q0 -18 -2 -37q-10 -119 -93.5 -178t-232.5 -81q-83 -12 -196 -12q-88 0 -193 7z" />
    <glyph glyph-name="afii10068" unicode="&#x433;" horiz-adv-x="644" 
d="M612 1097v-204l-351 11l42 -817l-246 9q10 204 10 410q0 285 -19 576q201 7 564 15z" />
    <glyph glyph-name="afii10069" unicode="&#x434;" horiz-adv-x="977" 
d="M617 225q8 254 8 450q0 106 -3 193l-196 -6q1 -80 1 -150q0 -380 -38 -475zM120 251l6 2q62 28 62 195v16q-3 182 -18 589l53 4l-1 28l632 12q-1 -94 -1 -187q0 -350 15 -698l62 -3v-311l-176 -29l-24 182l-509 14v-202l-189 -6v398z" />
    <glyph glyph-name="afii10070" unicode="&#x435;" horiz-adv-x="747" 
d="M365 1077q347 0 347 -461q0 -56 -5 -120h-447q0 -257 99 -257h7q87 7 87 133q0 27 -4 60l238 5q0 -381 -333 -386q-4 -1 -7 -1q-317 0 -317 481v30q10 516 335 516zM236 680h226v24q0 182 -103 182q-111 0 -123 -206z" />
    <glyph glyph-name="afii10072" unicode="&#x436;" horiz-adv-x="1271" 
d="M530 670q1 188 1 402l210 22l-4 -465q141 244 260 447l235 -4q-118 -199 -324 -493q104 -186 313 -513l-267 -12q-77 171 -228 428v-403l-210 -22l3 466q-140 -245 -260 -448l-235 4q118 199 324 493q-104 186 -313 513l267 12q77 -170 228 -427z" />
    <glyph glyph-name="afii10073" unicode="&#x437;" horiz-adv-x="707" 
d="M37 757q-4 36 -4 68q0 110 41 169q51 76 167 94q57 9 109 9q53 0 101 -10q93 -18 148.5 -83t59.5 -178v-21q0 -98 -37 -143q-41 -50 -135 -76q78 -9 117 -46t54 -99q9 -35 9 -76q0 -34 -6 -73q-13 -87 -85.5 -149.5t-222.5 -65.5h-14q-141 0 -226 61q-88 62 -88 267v4
l217 10q-1 -11 -1 -22q0 -145 92 -150q7 -1 13 -1q87 0 105 76q5 21 5 41q0 54 -38 94q-52 54 -172 54l-10 131h27q105 0 144 49q37 46 37 120q0 15 -2 30q-7 88 -96 88h-11q-88 -5 -88 -145q0 -16 1 -35z" />
    <glyph glyph-name="afii10074" unicode="&#x438;" horiz-adv-x="850" 
d="M286 1084q-10 -282 -21 -609l253 592l237 -2v-124q0 -459 40 -909l-271 3q16 298 19 583l-237 -553l-258 10q14 258 14 533q0 238 -10 489z" />
    <glyph glyph-name="afii10075" unicode="&#x439;" horiz-adv-x="850" 
d="M286 1084q-10 -282 -21 -609l253 592l237 -2v-124q0 -459 40 -909l-271 3q16 298 19 583l-237 -553l-258 10q14 258 14 533q0 238 -10 489zM122 1550h180q0 -120 120 -120t120 120h180q0 -300 -300 -300t-300 300z" />
    <glyph glyph-name="afii10076" unicode="&#x43a;" horiz-adv-x="808" 
d="M285 1092l-4 -394q137 212 259 409l230 -26q-181 -252 -316 -477q114 -205 313 -533l-248 -24q-112 243 -252 456v-384l-219 -4q7 532 7 957z" />
    <glyph glyph-name="afii10077" unicode="&#x43b;" horiz-adv-x="906" 
d="M64 265q6 -1 12 -1q25 0 53 12q59 27 59 189v16q-3 177 -18 574l52 3l-1 28l608 11q-1 -91 -1 -182q0 -416 22 -828l-256 -19q15 361 15 618q0 103 -3 189l-189 -7q1 -77 1 -145q0 -370 -37 -462q-53 -129 -174 -160q-72 -19 -140 -19h-3v183z" />
    <glyph glyph-name="afii10078" unicode="&#x43c;" horiz-adv-x="1144" 
d="M346 1097l200 -736l148 682l392 -4q-10 -230 -10 -465q0 -262 13 -531l-251 -14q0 283 -7 691l-141 -624l-267 -15l-172 673l-3 -682l-211 -12q6 234 6 464q0 287 -9 567z" />
    <glyph glyph-name="afii10079" unicode="&#x43d;" horiz-adv-x="795" 
d="M747 1087q-10 -489 -20 -1053h-196v423h-247v-389l-236 1q10 266 10 521q0 254 -10 497h226l-10 -424l247 -8v449z" />
    <glyph glyph-name="afii10080" unicode="&#x43e;" horiz-adv-x="747" 
d="M392 1077q340 0 340 -472q0 -19 -1 -38q-14 -511 -362 -516q-4 -1 -8 -1q-331 0 -331 483v28q10 516 362 516zM359 849q-63 -22 -86 -163q-14 -84 -14 -169q0 -57 6 -115q16 -144 103 -149h7q81 0 111 107q25 89 25 211q0 30 -1 61q-8 161 -48 201q-25 24 -60 24
q-20 0 -43 -8z" />
    <glyph glyph-name="afii10081" unicode="&#x43f;" horiz-adv-x="826" 
d="M803 1080q-11 -486 -21 -1046h-213v850h-266v-816l-255 1q11 264 11 517t-11 494h244l-10 9l266 -9v17z" />
    <glyph glyph-name="afii10082" unicode="&#x440;" 
d="M46 -349q6 337 6 717q0 346 -5 726l237 1l8 -154q74 112 197 112q307 0 307 -485v-20q-7 -486 -306 -486q-12 0 -24 1q-102 5 -165 111q0 -222 11 -523h-266zM296 736l5 -376q58 -79 117 -79q24 0 48 14q73 40 73 239q0 24 -1 50q-10 244 -97 257q-9 1 -17 1
q-76 0 -128 -106z" />
    <glyph glyph-name="afii10083" unicode="&#x441;" horiz-adv-x="730" 
d="M449 462l238 -15q0 -361 -333 -366q-4 -1 -7 -1q-317 0 -317 481v30q10 516 338 521h8q302 0 302 -346q0 -20 -1 -40l-215 -16v24q0 182 -103 182q-105 0 -105 -295v-33q6 -319 106 -319h6q87 7 87 133q0 27 -4 60z" />
    <glyph glyph-name="afii10084" unicode="&#x442;" horiz-adv-x="699" 
d="M48 898v187q120 -2 238 -2q183 0 359 6l7 -199h-206q0 -506 12 -802l-230 -10q18 505 26 823z" />
    <glyph glyph-name="afii10085" unicode="&#x443;" horiz-adv-x="803" 
d="M38 1081l262 21q-9 -300 -9 -494q0 -73 2 -131q4 -214 96 -220q6 -1 11 -1q82 0 104 94q12 55 12 261q0 165 -8 426l246 18q4 -305 4 -524q0 -273 -6 -412q-10 -250 -143 -380q-120 -118 -337 -118q-25 0 -51 2l-28 244q19 -1 37 -1q168 0 230 59q64 61 64 196v16
q-57 -90 -175 -90h-14q-129 6 -200 101.5t-77.5 268t-19.5 664.5z" />
    <glyph glyph-name="afii10086" unicode="&#x444;" horiz-adv-x="1304" 
d="M784 972q69 81 174 81q307 0 307 -485v-20q-7 -486 -306 -486q-12 0 -24 1q-91 4 -151 90q1 -284 5 -502h-274q4 218 5 502q-60 -86 -151 -90q-12 -1 -24 -1q-299 0 -306 486v20q0 485 307 485q105 0 174 -81q-2 255 -4 542h29v1h214v-1h29q-2 -287 -4 -542zM521 343v426
q-47 73 -110 73q-8 0 -17 -1q-87 -13 -97 -257q-1 -26 -1 -50q0 -199 73 -239q24 -14 48 -14q52 0 104 62zM783 769v-426q52 -62 104 -62q24 0 48 14q73 40 73 239q0 24 -1 50q-10 244 -97 257q-9 1 -17 1q-63 0 -110 -73z" />
    <glyph glyph-name="afii10087" unicode="&#x445;" horiz-adv-x="812" 
d="M291 1096l105 -393l104 396l264 -31q-92 -195 -196 -475q92 -242 203 -495l-258 -28l-126 385l-120 -382l-245 32q107 243 202 478l-196 473z" />
    <glyph glyph-name="afii10088" unicode="&#x446;" horiz-adv-x="890" 
d="M629 58l-70 -8l-10 163q-42 -130 -226 -131q-2 -1 -3 -1q-182 0 -241 164q-40 109 -40 451q0 176 11 415h243q-20 -336 -20 -517q0 -91 5 -142q15 -156 101 -156t108 81l-10 694l235 2q0 -338 19 -763h135l-71 -469h-199z" />
    <glyph glyph-name="afii10089" unicode="&#x447;" horiz-adv-x="786" 
d="M502 418q-7 -55 -179 -56h-3q-182 0 -241 119q-40 79 -40 328q0 128 11 302h243q-20 -244 -20 -376q0 -66 5 -103q15 -114 101 -114t108 59l-10 505l235 1q0 -313 39 -1036l-255 -15z" />
    <glyph glyph-name="afii10090" unicode="&#x448;" horiz-adv-x="1140" 
d="M937 58l-4 160q-54 -115 -125 -143q-42 -16 -85 -16q-32 0 -64 8q-78 20 -111 160q-26 -109 -90 -145.5t-142 -37.5h-4q-76 0 -146 37q-71 38 -108.5 142.5t-39.5 286.5v581l216 5q-13 -329 -13 -560t88 -249q13 -2 25 -2q70 0 108 90q6 104 6 243q0 189 -11 441l250 2
q-14 -387 -14 -564v-12q1 -175 69 -184h13q61 0 118 70l-2 732l236 9v-164q0 -436 13 -871z" />
    <glyph glyph-name="afii10091" unicode="&#x449;" horiz-adv-x="1343" 
d="M1043 69l-106 -11l-4 160q-54 -115 -125 -143q-42 -16 -85 -16q-32 0 -64 8q-78 20 -111 160q-26 -109 -90 -145.5t-142 -37.5h-4q-76 0 -146 37q-71 38 -108.5 142.5t-39.5 286.5v581l216 5q-13 -329 -13 -560t88 -249q13 -2 25 -2q70 0 108 90q6 104 6 243
q0 189 -11 441l250 2q-14 -387 -14 -564v-12q1 -175 69 -184h13q61 0 118 70l-2 732l236 9v-164q0 -303 6 -606h206l-71 -517h-239z" />
    <glyph glyph-name="afii10092" unicode="&#x44a;" horiz-adv-x="978" 
d="M489 552l-5 -246q48 -76 122 -76q8 0 17 1q85 9 94 176q1 17 1 32q0 137 -72 163q-22 8 -44 8q-58 0 -113 -58zM499 1057q-10 -214 -10 -372q49 67 124 79q13 1 25 1q302 0 308 -336v-12q0 -336 -321 -336q-76 0 -145 79l-7 -109l-219 1q5 260 5 501q0 178 -3 345h-169
v159h412z" />
    <glyph glyph-name="afii10093" unicode="&#x44b;" horiz-adv-x="1128" 
d="M292 1057q-10 -214 -10 -372q49 67 124 79q13 1 25 1q302 0 308 -336v-12q0 -336 -321 -336q-76 0 -145 79l-7 -109l-219 1q5 260 5 501q0 264 -6 504h246zM282 552l-5 -246q48 -76 122 -76q8 0 17 1q85 9 94 176q1 17 1 32q0 137 -72 163q-22 8 -44 8q-58 0 -113 -58z
M840 45q-7 585 -7 1011l252 15q-12 -408 -12 -811q0 -108 1 -215h-234z" />
    <glyph glyph-name="afii10094" unicode="&#x44c;" horiz-adv-x="771" 
d="M292 1057q-10 -214 -10 -372q49 67 124 79q13 1 25 1q302 0 308 -336v-12q0 -336 -321 -336q-76 0 -145 79l-7 -109l-219 1q5 260 5 501q0 264 -6 504h246zM282 552l-5 -246q48 -76 122 -76q8 0 17 1q85 9 94 176q1 17 1 32q0 137 -72 163q-22 8 -44 8q-58 0 -113 -58z
" />
    <glyph glyph-name="afii10095" unicode="&#x44d;" horiz-adv-x="730" 
d="M457 715q-19 208 -100 208h-6q-87 -7 -87 -133q0 -27 4 -60l-238 15q0 361 333 366q4 1 7 1q317 0 317 -481v-30q-10 -516 -338 -521h-8q-302 0 -302 346q0 20 1 40l215 16v-24q0 -182 103 -182q93 0 104 233h-190v206h185z" />
    <glyph glyph-name="afii10096" unicode="&#x44e;" horiz-adv-x="1176" 
d="M612 575v-36q0 -267 146 -267q155 0 155 303q0 302 -144 302q-146 0 -157 -302zM381 677q26 427 398 427q349 0 349 -510q0 -511 -374 -511q-338 0 -371 431h-107q-1 -199 -1 -400l-207 -16q0 520 -20 976l237 17q-5 -205 -7 -414h103z" />
    <glyph glyph-name="afii10097" unicode="&#x44f;" horiz-adv-x="755" 
d="M451 44q16 195 21 413q-13 2 -26 2q-64 0 -110 -54q-41 -49 -41 -265q0 -72 4 -162l-251 3v31q0 340 53 424q56 87 164 100q-155 43 -203 200q-14 48 -14 94q0 101 73 185q78 89 363 89q102 0 231 -11q-12 -324 -12 -642q0 -207 5 -412zM436 929q-119 0 -148 -61
q-17 -35 -17 -71q0 -43 22 -87q42 -84 197 -90l5 306q-31 3 -59 3z" />
    <glyph glyph-name="afii10071" unicode="&#x451;" horiz-adv-x="747" 
d="M366 1077q347 0 347 -461q0 -56 -5 -120h-447q0 -257 99 -257h7q87 7 87 133q0 27 -4 60l238 5q0 -381 -333 -386q-4 -1 -7 -1q-317 0 -317 481v30q10 516 335 516zM237 680h226v24q0 182 -103 182q-111 0 -123 -206zM166 1245q-60 0 -103 43t-43 103q0 61 43 104t103 43
q61 0 104 -43t43 -104q0 -60 -43 -103t-104 -43zM576 1245q-60 0 -103 43t-43 103q0 61 43 104t103 43q61 0 104 -43t43 -104q0 -60 -43 -103t-104 -43z" />
    <glyph glyph-name="afii10099" unicode="&#x452;" horiz-adv-x="791" 
d="M482 762q-20 75 -74 75q-76 0 -98 -80l10 -725l-245 -2q0 379 -28 1114h-63v175h56q-3 75 -6 154l244 10l3 -164h299v-175h-296l4 -224q42 130 196 132h3q150 0 214 -134l23 2q1 -42 1 -83q22 -119 22 -363q0 -170 -11 -402h-11q-1 -66 -3 -118q-10 -73 -118 -173
q-95 -88 -277 -88q-27 0 -56 2l-28 254q42 -7 76 -7q95 0 131 55q45 69 47 75h-13q6 151 10 269q-4 174 -12 421z" />
    <glyph glyph-name="afii10100" unicode="&#x453;" horiz-adv-x="644" 
d="M612 1097v-204l-351 11l42 -817l-246 9q10 204 10 410q0 285 -19 576q201 7 564 15zM211 1301q117 139 192 265l164 -130q-106 -104 -236 -255z" />
    <glyph glyph-name="afii10101" unicode="&#x454;" horiz-adv-x="730" 
d="M445 715v-206h-190q11 -233 104 -233q103 0 103 182v24l215 -16q1 -20 1 -40q0 -346 -302 -346h-8q-328 5 -338 521v30q0 481 317 481q3 0 7 -1q333 -5 333 -366l-238 -15q4 33 4 60q0 126 -87 133h-6q-81 0 -100 -208h185z" />
    <glyph glyph-name="afii10102" unicode="&#x455;" horiz-adv-x="710" 
d="M28 405l229 11v-13q0 -154 95 -156h4q92 0 92 89v7q-4 98 -181.5 158t-213.5 202q-13 50 -13 96q0 84 43 156q66 110 200 126q36 4 70 4q89 0 157 -31q93 -43 129 -123q24 -55 24 -122q0 -32 -5 -66l-214 -5q3 25 3 46q0 100 -64 107q-7 1 -14 1q-66 0 -89 -67
q-8 -23 -8 -42q0 -47 44 -81q62 -48 183.5 -97.5t163.5 -168.5q15 -45 15 -90q0 -76 -44 -153q-70 -123 -217 -143q-32 -5 -63 -5q-110 0 -204 57q-120 73 -122 303z" />
    <glyph glyph-name="afii10103" unicode="&#x456;" horiz-adv-x="335" 
d="M320 1307q0 -61 -43 -104t-104 -43q-60 0 -103 43t-43 104q0 60 43 103t103 43q61 0 104 -43t43 -103zM52 45q-7 585 -7 1011l252 15q-12 -408 -12 -811q0 -108 1 -215h-234z" />
    <glyph glyph-name="afii10104" unicode="&#x457;" horiz-adv-x="335" 
d="M53 45q-7 585 -7 1011l252 15q-12 -408 -12 -811q0 -108 1 -215h-234zM-33 1196q-60 0 -103 43t-43 103q0 61 43 104t103 43q61 0 104 -43t43 -104q0 -60 -43 -103t-104 -43zM377 1196q-60 0 -103 43t-43 103q0 61 43 104t103 43q61 0 104 -43t43 -104q0 -60 -43 -103
t-104 -43z" />
    <glyph glyph-name="afii10105" unicode="&#x458;" horiz-adv-x="335" 
d="M48 1037l246 18q4 -305 4 -529q0 -281 -6 -437q-10 -280 -118 -380q-95 -88 -277 -88q-27 0 -56 2l-28 254q42 -7 76 -7q95 0 131 55q47 73 47 305v10q-1 239 -19 797zM320 1307q0 -61 -43 -104t-104 -43q-60 0 -103 43t-43 104q0 60 43 103t103 43q61 0 104 -43t43 -103
z" />
    <glyph glyph-name="afii10106" unicode="&#x459;" horiz-adv-x="1327" 
d="M874 607q4 -175 12 -350q15 -1 30 -1q103 0 129 75q18 52 18 101q0 42 -13 81q-27 84 -176 94zM639 606v96q0 97 -2 179l-200 -6q1 -78 1 -146q0 -371 -39 -464q-56 -129 -184 -160q-76 -19 -148 -19h-3v183q6 -1 13 -1q26 0 55 12q63 27 63 190v16q-3 178 -19 576l55 3
l-1 28l642 11v-11h30q-15 -161 -15 -279q0 -23 1 -45q169 -4 283.5 -67t123.5 -286v-24q0 -204 -139 -270q-90 -42 -268 -42q-47 0 -101 3q-74 4 -160 14q10 262 12 509z" />
    <glyph glyph-name="afii10107" unicode="&#x45a;" horiz-adv-x="1255" 
d="M818 229q106 0 133 77q18 53 18 102q0 43 -13 83q-29 89 -194 96l-6 -353q33 -5 62 -5zM532 454h-241v-386l-243 1q11 264 11 517t-11 494h232l-10 -421l254 -8v446l206 -14l74 -2q-16 -164 -16 -283q0 -24 1 -46q174 -5 292 -68.5t127 -291.5v-24q0 -208 -143 -275
q-93 -43 -276 -43q-21 0 -43 1v-17h-202v30q-12 2 -23 3q7 198 11 387z" />
    <glyph glyph-name="afii10108" unicode="&#x45b;" horiz-adv-x="791" 
d="M40 1319q-3 75 -6 154l244 10l3 -164h299v-175h-296l4 -224q42 130 196 132h3q152 0 216 -138q44 -94 44 -440q0 -170 -11 -402h-252q13 309 13 479q0 85 -3 136q-10 150 -86 150t-98 -80l10 -725l-245 -2q0 379 -28 1114h-63v175h56z" />
    <glyph glyph-name="afii10109" unicode="&#x45c;" horiz-adv-x="808" 
d="M285 1092l-4 -394q137 212 259 409l230 -26q-181 -252 -316 -477q114 -205 313 -533l-248 -24q-112 243 -252 456v-384l-219 -4q7 532 7 957zM290 1301q117 139 192 265l164 -130q-106 -104 -236 -255z" />
    <glyph glyph-name="afii10110" unicode="&#x45e;" horiz-adv-x="803" 
d="M38 1081l262 21q-9 -300 -9 -494q0 -73 2 -131q4 -214 96 -220q6 -1 11 -1q82 0 104 94q12 55 12 261q0 165 -8 426l246 18q4 -305 4 -524q0 -273 -6 -412q-10 -250 -143 -380q-120 -118 -337 -118q-25 0 -51 2l-28 244q19 -1 37 -1q168 0 230 59q64 61 64 196v16
q-57 -90 -175 -90h-14q-129 6 -200 101.5t-77.5 268t-19.5 664.5zM114 1447h180q0 -120 120 -120t120 120h180q0 -300 -300 -300t-300 300z" />
    <glyph glyph-name="afii10193" unicode="&#x45f;" horiz-adv-x="795" 
d="M311 24l-39 -2l10 10h-234q11 245 11 502q0 258 -11 528h244v-831h255v866h203q10 -571 21 -1065l-218 -16v-167h-242v175z" />
    <glyph glyph-name="afii10050" unicode="&#x490;" horiz-adv-x="731" 
d="M683 1255v-26l-395 15l47 -1130l-277 13q11 281 11 566q0 395 -21 797q155 7 396 14v164h255v-413h-16z" />
    <glyph glyph-name="afii10098" unicode="&#x491;" horiz-adv-x="644" 
d="M612 906v-13l-351 11l42 -817l-246 9q10 204 10 410q0 285 -19 576q142 5 365 10v187h207v-373h-8z" />
    <glyph glyph-name="endash" unicode="&#x2013;" horiz-adv-x="580" 
d="M540 870v-250h-500v250h500z" />
    <glyph glyph-name="emdash" unicode="&#x2014;" horiz-adv-x="772" 
d="M740 870v-250h-700v250h700z" />
    <glyph glyph-name="quoteleft" unicode="&#x2018;" horiz-adv-x="381" 
d="M321 1135q-102 8 -153.5 49.5t-78.5 87.5t-38 97q-11 48 -11 88q0 2 1 4q0 41 8 70.5t27.5 55.5t51.5 39q30 12 63 12h3q34 -1 69.5 -19t54.5 -52.5t19 -79.5t-24 -81t-101 -62q18 -91 129 -123z" />
    <glyph glyph-name="quoteright" unicode="&#x2019;" horiz-adv-x="381" 
d="M40 1221q111 32 129 123q-77 26 -101 62t-24 81t19 79.5t54.5 52.5t70.5 19h2q33 0 64 -12q31 -13 50.5 -39t27.5 -55.5t9 -70.5v-4q0 -40 -11 -88q-11 -51 -38 -97t-78.5 -87.5t-153.5 -49.5z" />
    <glyph glyph-name="quotesinglbase" unicode="&#x201a;" horiz-adv-x="381" 
d="M40 -79q111 32 129 123q-77 26 -101 62t-24 81t19 79.5t54.5 52.5t70.5 19h2q33 0 64 -12q31 -13 50.5 -39t27.5 -55.5t9 -70.5v-4q0 -40 -11 -88q-11 -51 -38 -97t-78.5 -87.5t-153.5 -49.5z" />
    <glyph glyph-name="quotedblleft" unicode="&#x201c;" horiz-adv-x="713" 
d="M661 1135q-102 8 -153.5 49.5t-78.5 87.5t-38 97q-11 48 -11 88q0 2 1 4q0 41 8 70.5t27.5 55.5t51.5 39q30 12 63 12h3q34 -1 69.5 -19t54.5 -52.5t19 -79.5t-24 -81t-101 -62q18 -91 129 -123zM321 1085q-102 8 -153.5 49.5t-78.5 87.5t-38 97q-11 48 -11 88q0 2 1 4
q0 41 8 70.5t27.5 55.5t51.5 39q30 12 63 12h3q34 -1 69.5 -19t54.5 -52.5t19 -79.5t-24 -81t-101 -62q18 -91 129 -123z" />
    <glyph glyph-name="quotedblright" unicode="&#x201d;" horiz-adv-x="713" 
d="M40 1221q111 32 129 123q-77 26 -101 62t-24 81t19 79.5t54.5 52.5t70.5 19h2q33 0 64 -12q31 -13 50.5 -39t27.5 -55.5t9 -70.5v-4q0 -40 -11 -88q-11 -51 -38 -97t-78.5 -87.5t-153.5 -49.5zM380 1171q111 32 129 123q-77 26 -101 62t-24 81t19 79.5t54.5 52.5t70.5 19
h2q33 0 64 -12q31 -13 50.5 -39t27.5 -55.5t9 -70.5v-4q0 -40 -11 -88q-11 -51 -38 -97t-78.5 -87.5t-153.5 -49.5z" />
    <glyph glyph-name="quotedblbase" unicode="&#x201e;" horiz-adv-x="713" 
d="M40 -109q111 32 129 123q-77 26 -101 62t-24 81t19 79.5t54.5 52.5t70.5 19h2q33 0 64 -12q31 -13 50.5 -39t27.5 -55.5t9 -70.5v-4q0 -40 -11 -88q-11 -51 -38 -97t-78.5 -87.5t-153.5 -49.5zM380 -159q111 32 129 123q-77 26 -101 62t-24 81t19 79.5t54.5 52.5t70.5 19
h2q33 0 64 -12q31 -13 50.5 -39t27.5 -55.5t9 -70.5v-4q0 -40 -11 -88q-11 -51 -38 -97t-78.5 -87.5t-153.5 -49.5z" />
    <glyph glyph-name="dagger" unicode="&#x2020;" horiz-adv-x="920" 
d="M40 930v250h290v290h250v-290h300v-250h-300v-900h-250v900h-290z" />
    <glyph glyph-name="daggerdbl" unicode="&#x2021;" horiz-adv-x="920" 
d="M330 570v360h-290v250h290v290h250v-290h300v-250h-300v-360h300v-250h-300v-290h-250v290h-290v250h290z" />
    <glyph glyph-name="bullet" unicode="&#x2022;" horiz-adv-x="515" 
d="M279 918q105 -5 143.5 -57t45.5 -148q2 -21 2 -41q0 -70 -20 -120q-26 -65 -108 -88q-37 -11 -73 -11q-45 0 -88 16q-80 29 -105 106q-17 51 -17 102q0 26 4 52q13 77 63 136q44 54 134 54q9 0 19 -1z" />
    <glyph glyph-name="ellipsis" unicode="&#x2026;" horiz-adv-x="1150" 
d="M186 45q-60 0 -103 43t-43 103q0 61 43 104t103 43q61 0 104 -43t43 -104q0 -60 -43 -103t-104 -43zM569 45q-60 0 -103 43t-43 103q0 61 43 104t103 43q61 0 104 -43t43 -104q0 -60 -43 -103t-104 -43zM952 45q-60 0 -103 43t-43 103q0 61 43 104t103 43q61 0 104 -43
t43 -104q0 -60 -43 -103t-104 -43z" />
    <glyph glyph-name="perthousand" unicode="&#x2030;" horiz-adv-x="2451" 
d="M1170 1560l-440 -1540l-170 30l440 1540zM412 1560q340 0 340 -398q0 -16 -1 -32q-14 -431 -362 -435q-4 -1 -8 -1q-331 0 -331 407v24q10 435 362 435zM379 1329q-63 -17 -86 -121q-14 -62 -14 -124q0 -43 6 -86q16 -106 103 -110h8q80 0 110 79q25 66 25 156
q0 22 -1 45q-8 119 -48 149q-25 18 -60 18q-20 0 -43 -6zM1322 906q340 0 340 -398q0 -16 -1 -32q-14 -431 -362 -435q-4 -1 -8 -1q-331 0 -331 407v24q10 435 362 435zM1289 675q-63 -17 -86 -121q-14 -62 -14 -124q0 -43 6 -86q16 -106 103 -110h8q80 0 110 79
q25 66 25 156q0 22 -1 45q-8 119 -48 149q-25 18 -60 18q-20 0 -43 -6zM2072 906q340 0 340 -398q0 -16 -1 -32q-14 -431 -362 -435q-4 -1 -8 -1q-331 0 -331 407v24q10 435 362 435zM2039 675q-63 -17 -86 -121q-14 -62 -14 -124q0 -43 6 -86q16 -106 103 -110h8
q80 0 110 79q25 66 25 156q0 22 -1 45q-8 119 -48 149q-25 18 -60 18q-20 0 -43 -6z" />
    <glyph glyph-name="guilsinglleft" unicode="&#x2039;" horiz-adv-x="540" 
d="M50 700l230 400h220l-200 -400l200 -400h-220z" />
    <glyph glyph-name="guilsinglright" unicode="&#x203a;" horiz-adv-x="540" 
d="M270 300h-220l200 400l-200 400h220l230 -400z" />
    <glyph glyph-name="Euro" unicode="&#x20ac;" horiz-adv-x="1039" 
d="M454 810v-5q0 -67 3 -125h180l-30 -170h-133q35 -194 127 -194h1q149 1 149 240v99h248v-75q0 -498 -409 -522q-12 -1 -23 -1q-303 0 -368 453h-159v170h144q-3 56 -3 118v12h-141v170h148q46 542 389 542q373 0 373 -484q0 -29 -1 -60l-222 -1v27q0 235 -133 235
q-108 0 -133 -259h229l-30 -170h-206z" />
    <glyph glyph-name="trademark" unicode="&#x2122;" horiz-adv-x="1080" 
d="M450 1510v-120h-140v-380h-120v380h-140v120h400zM500 1010v500h160l110 -300l110 300h160v-500h-120v300l-100 -300h-100l-100 300v-300h-120z" />
    <glyph glyph-name="uniE000" unicode="&#xe000;" horiz-adv-x="967" 
d="M-18 90q188 854 284 1188l-132 3l4 279l523 4q138 -638 316 -1428l-256 -52l-81 379h-311l-84 -409zM632 744q-52 216 -170 517q-91 -253 -154 -524z" />
    <glyph glyph-name="uniE001" unicode="&#xe001;" horiz-adv-x="931" 
d="M327 1309l7 -429q186 10 236 127q27 62 27 122q0 50 -20 99q-35 85 -179 85q-32 0 -71 -4zM346 674v-335q23 -1 44 -1q186 0 235 102q27 57 27 103q0 45 -26 79q-43 55 -200 55q-37 0 -80 -3zM70 85q4 279 4 513q0 403 -12 671l-149 -2l-9 308l281 12h22q343 0 479 -91
q140 -94 158 -254q4 -41 4 -79q0 -109 -37 -189q-51 -109 -181 -156q145 -22 208 -105q53 -70 53 -200q0 -25 -2 -52q-12 -170 -107.5 -254t-265.5 -115q-96 -17 -225 -17q-101 0 -221 10z" />
    <glyph glyph-name="uniE002" unicode="&#xe002;" horiz-adv-x="896" 
d="M312 1241q-17 -336 -17 -646q0 -116 2 -228q35 -8 67 -8q88 0 148 61q82 82 82 368v4q-1 288 -80 378q-66 74 -161 74q-20 0 -41 -3zM64 88q2 337 2 622t-2 517l-121 -2l-11 309l120 10q67 4 128 4q346 0 494 -125q174 -148 182 -547v-72q0 -342 -66 -488
q-73 -161 -267 -214q-112 -31 -246 -31q-100 0 -213 17z" />
    <glyph glyph-name="uniE003" unicode="&#xe003;" horiz-adv-x="693" 
d="M40 141q18 521 18 1099q0 131 -1 265l596 -8v-320q-215 19 -367 19l-7 -268q250 6 364 21l2 -295q-138 5 -375 14l2 -215q186 -9 309 -9q33 0 62 1l5 -323q-177 19 -513 19h-95z" />
    <glyph glyph-name="uniE004" unicode="&#xe004;" horiz-adv-x="668" 
d="M40 207q16 630 16 1112v148q340 0 572 22l-1 -309q-128 7 -228 7q-85 0 -150 -5l3 -286h51q137 0 269 13v-241q-137 5 -228 5h-29v-228q138 6 288 25v-276q-253 13 -479 13h-84z" />
    <glyph glyph-name="uniE005" unicode="&#xe005;" horiz-adv-x="731" 
d="M659 1417v-247q-200 -17 -400 -27l-10 -318h392l10 -244h-364v-268h393v-254l-647 9l-2 1319q315 0 628 30z" />
    <glyph glyph-name="uniE006" unicode="&#xe006;" horiz-adv-x="902" 
d="M862 1484q-12 -673 -23 -1450h-227v583h-285v-536l-273 1q12 367 12 673q0 305 -12 549h-130l5 230h386l-11 -633l285 -12v619z" />
    <glyph glyph-name="uniE007" unicode="&#xe007;" horiz-adv-x="1320" 
d="M417 1533l233 -1036l171 960l456 -5q-12 -325 -12 -656q0 -369 15 -747l-291 -20q0 398 -9 973l-163 -879l-310 -21l-200 948l-4 -960l-244 -17q7 329 7 585q0 320 -11 526l-139 -5l1 352z" />
    <glyph glyph-name="uniE008" unicode="&#xe008;" horiz-adv-x="940" 
d="M53 79q26 736 26 1091l-183 -13l-6 328l453 29l270 -783q-4 388 -22 794l309 4q-46 -613 -46 -1238q0 -84 1 -168l-271 -3l-288 806q13 -446 24 -829z" />
    <glyph glyph-name="uniE009" unicode="&#xe009;" horiz-adv-x="876" 
d="M71 80q6 263 6 502q0 367 -14 680l-179 -14l1 253q256 41 435 41q229 0 335 -66q181 -112 181 -404v-30q-10 -316 -143 -404.5t-328 -94.5q-1 -31 -1 -64q0 -166 17 -393zM327 1260l7 -489q186 10 218 133q15 56 15 115q0 69 -20 142q-30 107 -150 107q-32 0 -70 -8z" />
    <glyph glyph-name="uniE00A" unicode="&#xe00a;" horiz-adv-x="876" 
d="M71 80q6 263 6 502q0 367 -14 680l-179 -14l1 253q256 41 435 41q229 0 335 -66q181 -112 181 -404v-30q-10 -316 -143 -404.5t-328 -94.5q-1 -31 -1 -64q0 -166 17 -393zM277 1260l7 -489q186 10 234.5 89.5t48.5 153.5t-40 164q-37 83 -217 83q-16 0 -33 -1z" />
    <glyph glyph-name="uniE00B" unicode="&#xe00b;" horiz-adv-x="876" 
d="M71 80q6 263 6 502q0 367 -14 930q78 30 257 30q229 0 335 -66q181 -112 181 -404v-30q-10 -316 -143 -404.5t-328 -94.5q-1 -31 -1 -64q0 -166 17 -393zM277 1260l7 -489q186 10 234.5 89.5t48.5 153.5t-40 164q-37 83 -217 83q-16 0 -33 -1z" />
    <glyph glyph-name="uniE00C" unicode="&#xe00c;" horiz-adv-x="704" 
d="M-44 1575h334q350 0 371 -302q3 -42 3 -81q0 -241 -113 -332q-131 -106 -278 -106q18 -322 44 -632l-263 -2q8 646 8 1105v176l-107 7zM257 1375q-5 -142 -5 -329v-111h6q114 0 142 105q19 70 19 146q0 38 -5 79q-14 110 -141 110h-16z" />
    <glyph glyph-name="uniE00D" unicode="&#xe00d;" horiz-adv-x="690" 
d="M264 1575h12q351 0 372 -302q2 -42 2 -79q0 -242 -113 -334q-131 -106 -278 -106q19 -322 44 -632l-263 -2q8 646 8 1223v228zM243 1375q-4 -137 -4 -316v-124h6q113 0 142 105q19 70 19 145q0 39 -5 80q-15 110 -142 110h-16z" />
    <glyph glyph-name="uniE00E" unicode="&#xe00e;" horiz-adv-x="866" 
d="M-124 1549q95 5 180 5q769 0 769 -405q1 -14 1 -28q0 -232 -158 -340q-167 -116 -372 -156l25 -550l-270 -5q8 372 8 679q0 308 -8 550h-170zM390 934.5q74 23.5 125 89.5q31 39 31 93q0 34 -13 75q-33 102 -283 107v-396q66 8 140 31.5z" />
    <glyph glyph-name="uniE00F" unicode="&#xe00f;" horiz-adv-x="856" 
d="M40 1549q100 9 188 9q587 0 587 -409q1 -14 1 -28q0 -232 -158 -340q-168 -116 -373 -156l25 -550l-270 -5q8 372 8 742t-8 737zM379 934.5q74 23.5 125 89.5q31 39 31 96q0 37 -13 82q-27 92 -199 92q-39 0 -84 -5v-386q66 8 140 31.5z" />
    <glyph glyph-name="uniE010" unicode="&#xe010;" horiz-adv-x="890" 
d="M245 1561q585 0 585 -429q0 -341 -162 -443q-160 -102 -341 -102h-4v-429l-259 -4l25 1173l-156 -7v238zM284 1288v-467q271 7 271 240v8q-5 221 -228 221q-21 0 -43 -2z" />
    <glyph glyph-name="uniE011" unicode="&#xe011;" horiz-adv-x="890" 
d="M245 1561q584 0 584 -449q0 -291 -175 -408t-331 -117v-429l-259 -4l5 1393zM284 1288v-467q271 7 271 240v8q-5 221 -228 221q-21 0 -43 -2z" />
    <glyph glyph-name="uniE012" unicode="&#xe012;" horiz-adv-x="896" 
d="M62 64q6 286 6 540q0 389 -14 703l-147 -14l-4 252q256 37 439 37q327 0 416 -119q97 -131 97 -284q0 -63 -16 -131q-58 -230 -244 -289q130 -18 197 -140q64 -118 64 -594v-43l-302 -4q5 126 5 226q0 303 -49 371q-56 76 -133 76q-15 0 -31 -3q6 -305 26 -578zM318 1304
l7 -428q186 9 236 126q27 62 27 121q0 51 -20 100q-36 85 -179 85q-33 0 -71 -4z" />
    <glyph glyph-name="uniE013" unicode="&#xe013;" horiz-adv-x="726" 
d="M-44 1575h334q350 0 381 -302q4 -37 4 -71q0 -249 -201 -344q186 -31 186 -682q0 -63 -2 -133h-224q3 92 3 172q0 541 -146 541q-9 0 -18 -2q18 -322 44 -632l-263 -2q8 646 8 1105v176l-107 7zM257 1375q-5 -142 -5 -329v-111h6q114 0 142 105q19 70 19 146q0 38 -5 79
q-14 110 -141 110h-16z" />
    <glyph glyph-name="uniE014" unicode="&#xe014;" horiz-adv-x="726" 
d="M290 1575q350 0 381 -302q4 -37 4 -71q0 -249 -201 -344q186 -31 186 -682q0 -63 -2 -133h-224q3 92 3 172q0 541 -146 541q-9 0 -18 -2q18 -322 44 -632l-263 -2q8 646 8 1451zM257 1375q-5 -142 -5 -329v-111h6q114 0 142 105q19 70 19 146q0 38 -5 79
q-14 110 -141 110h-16z" />
    <glyph glyph-name="uniE015" unicode="&#xe015;" horiz-adv-x="901" 
d="M-124 1549q95 5 180 5q769 0 769 -405q0 -293 -329 -409l357 -670l-277 -70q-155 415 -280 625l25 -550l-270 -5q8 372 8 679q0 308 -8 550h-170zM390 934.5q74 23.5 125 89.5q31 39 31 93q0 34 -13 75q-33 102 -283 107v-396q66 8 140 31.5z" />
    <glyph glyph-name="uniE016" unicode="&#xe016;" horiz-adv-x="901" 
d="M56 1544q51 2 98 2q671 0 671 -397q0 -293 -329 -409l357 -670l-277 -70q-155 415 -280 625l25 -550l-270 -5q8 372 8 679q0 308 -3 795zM390 934.5q74 23.5 125 89.5q31 39 31 93q0 34 -13 75q-33 102 -283 107v-396q66 8 140 31.5z" />
    <glyph glyph-name="uniE017" unicode="&#xe017;" horiz-adv-x="890" 
d="M245 1561q585 0 585 -429v-78q0 -283 -234 -428q177 -154 217 -559l-279 -16q-5 376 -133 536h-78v-429l-259 -4l25 1173l-156 -7v238zM284 1288v-467q271 7 271 240v8q-5 221 -228 221q-21 0 -43 -2z" />
    <glyph glyph-name="uniE018" unicode="&#xe018;" horiz-adv-x="890" 
d="M245 1561q584 0 584 -429v-78q0 -283 -233 -428q177 -154 217 -559l-280 -16q-4 376 -132 536h-78v-429l-259 -4l5 1393zM284 1288v-467q271 7 271 240v8q-5 221 -228 221q-21 0 -43 -2z" />
    <glyph glyph-name="uniE019" unicode="&#xe019;" horiz-adv-x="1251" 
d="M325 1501q-23 -601 -23 -1196q133 0 408 14l5 -259q-213 8 -405 8q-133 0 -257 -4q1 136 1 273q0 578 -14 1154zM711 1514h243l268 -1095l-219 -48l-54 218h-262l-35 -194l-257 24q136 383 316 1095zM808 1232l-97 -399h219q-65 249 -122 399z" />
    <glyph glyph-name="uniE01A" unicode="&#xe01a;" horiz-adv-x="1260" 
d="M1136 1587v-247q-200 -17 -431 -27v-138h413l10 -244h-365v-168h454v-254l-708 9l-1 1039q315 0 628 30zM75 56q4 314 4 600q0 399 -8 743l259 21l-27 -1093q336 10 666 35l4 -291q-472 0 -898 -15z" />
    <glyph glyph-name="uniE01B" unicode="&#xe01b;" horiz-adv-x="993" 
d="M619 1586l-11 -848q36 -1 73 -1q134 0 272 9l-9 -263q-131 11 -260 11t-256 -11q7 263 7 536q0 274 -7 559zM54 70q1 141 1 279q0 619 -15 1167l252 8q-17 -582 -30 -1182h61q329 0 516 20l3 -298q-254 8 -520 8q-132 0 -268 -2z" />
    <glyph glyph-name="uniE01C" unicode="&#xe01c;" horiz-adv-x="1271" 
d="M54 0q1 141 1 279q0 619 -15 1167l252 8q-17 -582 -30 -1182h61q329 0 516 20l3 -298q-254 8 -520 8q-132 0 -268 -2zM450 1546q100 8 188 8q527 0 558 -296q4 -48 4 -91q0 -220 -132 -300q-168 -103 -373 -138l25 -275l-270 -4q8 205 8 488t-8 608zM789 974.5
q74 23.5 115 76t41 99.5t-35 100.5t-125 68.5q-68 11 -111 11q-14 0 -25 -1v-386q66 8 140 31.5z" />
    <glyph glyph-name="uniE01D" unicode="&#xe01d;" horiz-adv-x="1240" 
d="M54 70q1 141 1 279q0 619 -15 1167l252 8q-17 -582 -30 -1182h61q329 0 516 20l3 -298q-254 8 -520 8q-132 0 -268 -2zM645 1591q504 0 544 -350q6 -51 6 -98q0 -272 -199 -387q177 -154 217 -659l-280 -16q-4 476 -132 636h-78v-239l-229 -4l-25 1103zM684 1318v-367
q269 7 269 185v3q-3 181 -226 181q-21 0 -43 -2z" />
    <glyph glyph-name="uniE01E" unicode="&#xe01e;" horiz-adv-x="1230" 
d="M54 70q1 141 1 279q0 619 -15 1167l252 8q-17 -582 -30 -1182h61q229 0 546 20l3 -298q-384 8 -550 8q-132 0 -268 -2zM432 1283l-16 247q78 -2 159 -2q232 0 616 33l5 -237l-334 -26q-1 -92 -1 -187q0 -381 26 -641l-267 -16q8 226 8 581q0 128 -2 248h-194z" />
    <glyph glyph-name="uniE01F" unicode="&#xe01f;" horiz-adv-x="1271" 
d="M54 70q1 141 1 279q0 619 -15 1167l252 8q-17 -582 -30 -1182h61q149 0 296 20l3 -298q-214 8 -300 8q-132 0 -268 -2zM432 1283l-16 247q78 -2 159 -2q232 0 616 33l5 -237l-224 -16q-1 -92 -1 -187q0 -381 26 -1041l-267 -16q8 626 8 981q0 128 -2 248z" />
    <glyph glyph-name="uniE020" unicode="&#xe020;" horiz-adv-x="1540" 
d="M-44 1575h334q350 0 381 -302q4 -37 4 -71q0 -249 -201 -344q104 -34 104 -174v-311q3 -85 93 -92q15 -1 36 -1q103 0 340 28l23 -237q-177 -21 -339 -21q-317 0 -317 273l-13 320q-11 111 -128 111q18 -322 44 -632l-263 -2q8 646 8 1105v176l-107 7zM257 1375
q-5 -142 -5 -329v-111h6q114 0 142 105q19 70 19 146q0 38 -5 79q-14 110 -141 110h-16zM1275 1524q110 -544 225 -1099l-250 -50l-25 285l-250 15l-70 -275l-229 30q274 752 349 1094h250zM1145 1279l-140 -374q95 -20 220 -25q-30 205 -80 399z" />
    <glyph glyph-name="uniE021" unicode="&#xe021;" horiz-adv-x="1526" 
d="M48 1561q124 26 226 26q108 0 192 -29q161 -58 167 -325v-16q0 -254 -173 -359q104 -34 104 -174v-311q3 -85 93 -92q15 -1 36 -1q103 0 340 28l24 -237q-177 -21 -340 -21q-317 0 -317 273l-13 320q-11 111 -128 111q19 -322 44 -632l-263 -2q8 646 8 1216v225z
M243 1375q-4 -137 -4 -316v-124h6q113 0 142 105q19 70 19 145q0 39 -5 80q-15 110 -142 110h-16zM1261 1524q110 -544 225 -1099l-250 -50l-25 285l-250 15l-70 -275l-229 30q274 752 349 1094h250zM1131 1279l-140 -374q95 -20 220 -25q-30 205 -80 399z" />
    <glyph glyph-name="uniE022" unicode="&#xe022;" horiz-adv-x="1640" 
d="M-124 1549q95 5 180 5q769 0 769 -405q0 -293 -329 -409l234 -445h370l10 -225h-554q-135 345 -260 555l25 -550l-270 -5q8 372 8 679q0 308 -8 550h-170zM1375 1524q110 -544 225 -1099l-250 -50l-25 285l-250 15l-70 -275l-229 30q274 752 349 1094h250zM1245 1279
l-140 -374q95 -20 220 -25q-30 205 -80 399zM390 934.5q74 23.5 125 89.5q31 39 31 93q0 34 -13 75q-33 102 -283 107v-396q66 8 140 31.5z" />
    <glyph glyph-name="uniE023" unicode="&#xe023;" horiz-adv-x="1629" 
d="M40 1539q140 21 258 21q167 0 292 -41q215 -70 225 -370q0 -293 -330 -409l235 -445h369l10 -225h-554q-135 345 -260 555l25 -550l-270 -5q8 372 8 739q0 368 -8 730zM1364 1524q110 -544 225 -1099l-250 -50l-25 285l-250 15l-70 -275l-229 30q274 752 349 1094h250z
M1234 1279l-140 -374q95 -20 220 -25q-30 205 -80 399zM379 934.5q74 23.5 125 89.5q31 39 31 100q0 39 -13 88q-26 95 -183 95q-44 0 -100 -8v-396q66 8 140 31.5z" />
    <glyph glyph-name="uniE024" unicode="&#xe024;" horiz-adv-x="1853" 
d="M1189 1600l379 -20q110 -712 236 -1344l-274 -39l-38 312l-351 10q-30 -124 -56 -244l-255 39q210 647 359 1286zM245 1561q585 0 585 -429v-78q0 -283 -234 -428q117 -154 117 -429l386 -11v-246l-595 21q-15 466 -103 626h-78v-429l-259 -4l25 1173l-156 -7v238z
M284 1288v-467q271 7 271 240v8q-5 221 -228 221q-21 0 -43 -2zM1188 799l284 -10l-108 441q-81 -200 -176 -431z" />
    <glyph glyph-name="uniE025" unicode="&#xe025;" horiz-adv-x="1853" 
d="M1189 1600l379 -20q110 -712 236 -1344l-274 -39l-38 312l-351 10q-30 -124 -57 -244l-255 39q211 647 360 1286zM79 1537q79 7 149 7q601 0 601 -490q0 -283 -233 -428q117 -154 117 -429l386 -11v-246l-596 21q-14 466 -102 626h-78v-429l-259 -4zM284 1288v-467
q271 7 271 240v8q-5 221 -228 221q-21 0 -43 -2zM1188 799l284 -10l-108 441q-82 -200 -176 -431z" />
    <glyph glyph-name="uniE026" unicode="&#xe026;" horiz-adv-x="1322" 
d="M-39 1575h334q350 0 381 -302q4 -37 4 -71q0 -249 -201 -344q104 -34 104 -174v-311q3 -85 93 -92q15 -1 36 -1q103 0 340 28l23 -237q-177 -21 -339 -21q-317 0 -317 273l-13 320q-11 111 -128 111q18 -322 44 -632l-263 -2q8 646 8 1105v176l-107 7zM262 1375
q-5 -142 -5 -329v-111h6q114 0 142 105q19 70 19 146q0 38 -5 79q-14 110 -141 110h-16zM729 401q18 440 18 936q0 112 -1 228l536 -8v-290q-215 19 -347 19l-7 -228q230 6 344 21l2 -225q-138 5 -355 14q0 -123 12 -205q163 -9 280 -9q32 0 61 1l5 -273q-177 19 -467 19
h-81z" />
    <glyph glyph-name="uniE027" unicode="&#xe027;" horiz-adv-x="1304" 
d="M48 1561q124 26 226 26q108 0 192 -29q161 -58 167 -325v-16q0 -254 -173 -359q104 -34 104 -174v-311q3 -85 93 -92q15 -1 36 -1q103 0 340 28l24 -237q-177 -21 -340 -21q-317 0 -317 273l-13 320q-11 111 -128 111q19 -322 44 -632l-263 -2q8 646 8 1216v225z
M243 1375q-4 -137 -4 -316v-124h6q113 0 142 105q19 70 19 145q0 39 -5 80q-15 110 -142 110h-16zM710 401q18 440 18 936q0 112 -1 228l537 -8v-290q-215 19 -348 19l-7 -228q230 6 344 21l2 -225q-138 5 -354 14q0 -123 11 -205q163 -9 280 -9q32 0 61 1l5 -273
q-177 19 -467 19h-81z" />
    <glyph glyph-name="uniE028" unicode="&#xe028;" horiz-adv-x="1457" 
d="M-124 1549q95 5 180 5q769 0 769 -405q0 -293 -329 -409l234 -445h370l10 -225h-554q-135 345 -260 555l25 -550l-270 -5q8 372 8 679q0 308 -8 550h-170zM390 934.5q74 23.5 125 89.5q31 39 31 93q0 34 -13 75q-33 102 -283 107v-396q66 8 140 31.5zM864 401
q18 440 18 936q0 112 -1 228l536 -8v-290q-215 19 -347 19l-7 -228q230 6 344 21l2 -225q-138 5 -355 14q0 -123 12 -205q163 -9 280 -9q32 0 61 1l5 -273q-177 19 -467 19h-81z" />
    <glyph glyph-name="uniE029" unicode="&#xe029;" horiz-adv-x="1446" 
d="M40 1539q140 21 258 21q167 0 292 -41q215 -70 225 -370q0 -293 -330 -409l235 -445h369l10 -225h-554q-135 345 -260 555l25 -550l-270 -5q8 372 8 739q0 368 -8 730zM379 934.5q74 23.5 125 89.5q31 39 31 100q0 39 -13 88q-26 95 -183 95q-44 0 -100 -8v-396
q66 8 140 31.5zM853 401q18 440 18 936q0 112 -1 228l536 -8v-290q-215 19 -347 19l-7 -228q230 6 344 21l2 -225q-138 5 -355 14q0 -123 12 -205q163 -9 280 -9q32 0 61 1l5 -273q-177 19 -467 19h-81z" />
    <glyph glyph-name="uniE02A" unicode="&#xe02a;" horiz-adv-x="1492" 
d="M245 1561q585 0 585 -429v-78q0 -283 -234 -428q117 -154 117 -429l386 -11v-246l-595 21q-15 466 -103 626h-78v-429l-259 -4l25 1173l-156 -7v238zM284 1288v-467q271 7 271 240v8q-5 221 -228 221q-21 0 -43 -2zM904 281q18 500 18 996q0 112 -1 228l536 -8v-290
q-215 19 -347 19l-7 -258q230 6 344 21l2 -225q-138 5 -355 14q0 -153 12 -235q163 -9 280 -9q32 0 61 1l5 -273q-177 19 -467 19h-81z" />
    <glyph glyph-name="uniE02B" unicode="&#xe02b;" horiz-adv-x="1498" 
d="M79 1537q79 7 149 7q601 0 601 -490q0 -283 -233 -428q117 -154 117 -429l386 -11v-246l-596 21q-14 466 -102 626h-78v-429l-259 -4zM284 1288v-467q271 7 271 240v8q-5 221 -228 221q-21 0 -43 -2zM884 281q18 500 18 996q0 112 -1 228l536 -8v-290q-215 19 -347 19
l-7 -258q230 6 344 21l2 -225q-138 5 -355 14q0 -153 12 -235q163 -9 280 -9q32 0 61 1l5 -273q-177 19 -467 19h-81z" />
    <glyph glyph-name="uniE02C" unicode="&#xe02c;" horiz-adv-x="1663" 
d="M47 1219l-11 279q536 36 1066 72l20 -217l-519 -66q-11 -561 -11 -1210l-278 16q26 643 26 1163zM752 983l-16 247q78 -2 159 -2q332 0 716 33l5 -237l-334 -26q-1 -92 -1 -187q0 -381 16 -821l-267 -26q18 416 18 771q0 128 -2 248h-294z" />
    <glyph glyph-name="uniE02D" unicode="&#xe02d;" horiz-adv-x="1663" 
d="M1318 1256q0 -520 26 -1163l-278 -16q0 649 -11 1210l-519 66l20 217q530 -36 1066 -72l-11 -279zM52 983l-16 247q128 -3 264 -3q287 0 611 14l5 -237l-334 -6q-1 -92 -1 -187q0 -381 16 -821l-267 -26q18 416 18 771q0 128 -2 248h-294z" />
    <glyph glyph-name="uniE02E" unicode="&#xe02e;" horiz-adv-x="747" 
d="M392 1077q340 0 340 -472q0 -19 -1 -38q-14 -511 -362 -516q-4 -1 -8 -1q-331 0 -331 483v28q10 516 362 516zM357 849q-59 -22 -81 -163q-13 -84 -13 -169q0 -57 6 -115q15 -144 97 -149h7q76 0 104 107q24 89 24 211q0 30 -1 61q-7 161 -45 201q-24 24 -57 24
q-19 0 -41 -8z" />
    <glyph glyph-name="uniE02F" unicode="&#xe02f;" horiz-adv-x="521" 
d="M479 1086q-7 -472 -7 -632q0 -161 2 -394l-258 -13l-7 773q-84 -17 -168 -64l-48 189l218 146z" />
    <glyph glyph-name="uniE030" unicode="&#xe030;" horiz-adv-x="855" 
d="M72 702v32q0 204 60 277q83 101 212 121q46 7 90 7q79 0 152 -22q114 -35 172 -138q41 -76 41 -178v-28q-7 -121 -98.5 -230.5t-316.5 -258.5l437 7l-3 -231q-287 -13 -740 -13l-23 273q272 164 383 261q106 91 106 193v11q-6 107 -125 107q-97 -3 -97 -184v-11z" />
    <glyph glyph-name="uniE031" unicode="&#xe031;" horiz-adv-x="824" 
d="M39 612q-4 53 -4 99q0 159 48 245q61 110 200 136q68 13 130 13q63 0 120 -14q111 -27 177.5 -121t71.5 -258v-30q0 -142 -44 -207q-49 -73 -161 -110q93 -14 139.5 -67.5t64.5 -143.5q10 -50 10 -110q0 -49 -7 -106q-15 -125 -101.5 -216t-266.5 -95h-16q-169 0 -270 88
q-105 90 -105 387v6l259 15q-1 -17 -1 -33q0 -210 110 -217q8 -1 15 -1q104 0 125 110q6 31 6 59q0 79 -45 137q-62 78 -205 78l-12 190q17 -1 32 -1q125 0 172 72q44 67 44 174q0 21 -2 43q-9 128 -115 128h-13q-105 -7 -105 -210q0 -24 1 -51z" />
    <glyph glyph-name="uniE032" unicode="&#xe032;" horiz-adv-x="921" 
d="M39 87l-21 239q172 376 398 778l322 -18l-4 -772l141 -3v-239h-137v-421l-242 9l3 417zM503 311l3 516q-110 -254 -234 -511z" />
    <glyph glyph-name="uniE033" unicode="&#xe033;" horiz-adv-x="824" 
d="M29 105l235 20q0 -219 138 -219q137 0 149 131q5 61 5 123q0 71 -7 143q-13 131 -108 131h-6q-102 -5 -148 -159l-243 6l28 829l672 12l3 -243l-445 -9l-18 -340q46 133 167 152q29 5 57 5q87 0 160 -46q96 -60 120 -286q8 -77 8 -151q0 -140 -30 -265
q-46 -191 -180 -237q-95 -33 -191 -33q-39 0 -79 6q-136 19 -215 117q-73 89 -73 275q0 18 1 38z" />
    <glyph glyph-name="uniE034" unicode="&#xe034;" horiz-adv-x="885" 
d="M312 804q78 147 226 147h2q149 -1 227 -109.5t83 -249.5v-25q0 -129 -44 -257q-48 -140 -151 -186q-75 -35 -169 -35q-34 0 -71 5q-137 17 -219 126t-118 290q-27 133 -27 298q0 58 4 119q12 236 60 384.5t143 211.5q93 61 212 61h6q122 -2 206.5 -79t109.5 -210
q16 -88 16 -173q0 -45 -4 -88h-224q2 35 2 65q0 187 -69 205q-18 4 -34 4q-58 0 -97 -59q-51 -76 -63 -210q-9 -91 -9 -167q0 -36 2 -68zM332 614q2 -132 34.5 -197.5t96.5 -75.5q10 -2 21 -2q50 0 89 41q43 45 43 162v20q-4 133 -93 156q-14 3 -28 3q-77 0 -163 -107z" />
    <glyph glyph-name="uniE035" unicode="&#xe035;" horiz-adv-x="826" 
d="M64 844l10 250q363 6 698 9v-254q-278 -570 -322 -1131l-237 27q44 543 289 1102z" />
    <glyph glyph-name="uniE036" unicode="&#xe036;" horiz-adv-x="820" 
d="M605 805q136 -61 169 -176q23 -80 23 -164q0 -38 -5 -77q-15 -125 -101.5 -216t-266.5 -95h-16q-169 0 -270 88q-106 91 -110 257q-1 11 -1 22q0 151 58 241q62 96 153 121q-67 27 -136 107.5t-71 231.5v9q0 144 60 252q61 110 200 136q68 13 130 13q63 0 120 -14
q111 -27 177.5 -121t71.5 -248v-29q0 -134 -44 -208q-49 -83 -141 -130zM416 704q-102 -54 -120 -128q-10 -42 -10 -81q0 -30 6 -58q14 -66 53 -94q28 -21 65 -21q14 0 30 3q56 10 81.5 48.5t29.5 106.5q1 8 1 17q0 58 -24 110q-28 60 -112 97zM414 956q104 45 121 145
q7 38 7 70q0 50 -17 84q-27 55 -95 59h-9q-62 0 -97 -52q-28 -42 -28 -108q0 -24 4 -52q14 -103 114 -146z" />
    <glyph glyph-name="uniE037" unicode="&#xe037;" horiz-adv-x="885" 
d="M589 289q-78 -147 -226 -147q-1 0 -1 1q-150 0 -233 108.5t-87 300.5q-1 14 -1 29q0 173 49 302q53 140 166 187q83 34 173 34q33 0 67 -5q127 -17 209 -126t118 -289q27 -134 27 -299q0 -58 -3 -118q-13 -237 -61 -385.5t-143 -210.5q-93 -62 -221 -62q-3 0 -6 1
q-133 1 -227 98q-92 94 -92 336v15h224q-2 -23 -2 -44q0 -111 60 -145q29 -18 58 -18q40 0 78 33q65 55 73 180q4 69 4 130q0 50 -3 94zM579 479q1 34 1 64q0 143 -30 214q-38 85 -101 95q-9 1 -17 1q-54 0 -99 -55q-48 -59 -48 -213v-24q4 -173 114 -185q10 -2 21 -2
q95 0 159 105z" />
  </font>
</defs>
</svg>
